<?xml version="1.0" encoding="UTF-8" standalone="no"?>
<svg
   width="128"
   height="128"
   viewBox="0 0 128 128"
   fill="none"
   version="1.1"
   id="svg290"
   sodipodi:docname="Acala Gradient.e027e8c0.svg"
   xmlns:inkscape="http://www.inkscape.org/namespaces/inkscape"
   xmlns:sodipodi="http://sodipodi.sourceforge.net/DTD/sodipodi-0.dtd"
   xmlns="http://www.w3.org/2000/svg"
   xmlns:svg="http://www.w3.org/2000/svg">
  <sodipodi:namedview
     id="namedview292"
     pagecolor="#ffffff"
     bordercolor="#000000"
     borderopacity="0.25"
     inkscape:showpageshadow="2"
     inkscape:pageopacity="0.0"
     inkscape:pagecheckerboard="0"
     inkscape:deskcolor="#d1d1d1"
     showgrid="false" />
  <circle
     style="fill:#ffffff;fill-opacity:1;stroke-width:0;stroke-linejoin:bevel;stroke-opacity:0.684597"
     id="path486"
     cx="64"
     cy="64"
     r="64" />
  <path
     fill-rule="evenodd"
     clip-rule="evenodd"
     d="M 64,128 C 99.3453,128 128,99.3453 128,64 128,28.6547 99.3453,0 64,0 28.6547,0 0,28.6547 0,64 c 0,35.3453 28.6547,64 64,64 z m 0.261,-6.006 c 32.0287,0 57.991,-25.9653 57.991,-57.991 C 122.252,31.9773 96.2897,6.00933 64.261,6.00933 32.2327,6.00933 6.27067,31.9713 6.27067,64 c 0,32.0287 25.96203,57.994 57.99033,57.994 z M 64,117.551 C 93.576,117.551 117.551,93.576 117.551,64 117.551,34.424 93.576,10.449 64,10.449 34.424,10.449 10.449,34.424 10.449,64 c 0,29.576 23.975,53.551 53.551,53.551 z m 0.132,-6.529 c 26.04,0 47.151,-21.111 47.151,-47.151 0,-26.04 -21.111,-47.1513 -47.151,-47.1513 -26.04,0 -47.1513,21.1083 -47.1513,47.1513 0,26.043 21.1083,47.151 47.1513,47.151 z M 63.736,72.696 c -2.6207,0 -5.166,0.219 -7.6307,0.6363 l 3.7944,-6.5886 c 1.2816,-0.084 2.5633,-0.126 3.8363,-0.126 2.9807,0 6.0123,0.246 8.942,0.7173 l -14.7327,-25.59 -24.527,42.5977 -3.506,-6.0874 27.976,-48.5893 0.057,0.0993 0.0544,-0.0963 33.7633,58.639 H 84.754 L 76.8623,74.602 C 72.75,73.3593 68.3557,72.696 63.736,72.696 Z M 93.9453,84.4447 61.2563,27.673 h 7.009 l 29.183,50.6843 z M 61.5027,55.6823 48.0817,78.9937 c 4.803,-1.453 10.4553,-2.1014 15.7893,-2.1014 0.4323,0 0.8643,0.006 1.2967,0.015 3.0286,0.072 6.0906,0.3934 9.0233,0.9427 l 4.4783,7.7777 C 74.0857,83.9557 69.124,82.971 63.871,82.971 c -7.7687,0 -14.9037,1.927 -21.1173,5.277 l 0.099,-0.177 -0.135,0.234 h -7.009 l 22.291,-38.7133 z"
     fill="url(#paint0_linear_221_148)"
     id="path279"
     style="fill:url(#paint0_linear_221_148)" />
  <defs
     id="defs288">
    <linearGradient
       id="paint0_linear_221_148"
       x1="100.847"
       y1="120.459"
       x2="26.005699"
       y2="5.7816701"
       gradientUnits="userSpaceOnUse">
      <stop
         offset="0.0076157"
         stop-color="#645AFF"
         id="stop281" />
      <stop
         offset="0.5038"
         stop-color="#E40C5B"
         id="stop283" />
      <stop
         offset="1"
         stop-color="#FF4C3B"
         id="stop285" />
    </linearGradient>
  </defs>
</svg>
