<?xml version="1.0" encoding="UTF-8" standalone="no"?>
<!-- Created with Inkscape (http://www.inkscape.org/) -->

<svg
   width="127.99999"
   height="127.99999"
   viewBox="0 0 33.866664 33.866664"
   version="1.1"
   id="svg577"
   inkscape:export-filename="agoric.png"
   inkscape:export-xdpi="96"
   inkscape:export-ydpi="96"
   sodipodi:docname="agoric.svg"
   xml:space="preserve"
   inkscape:version="1.2.2 (732a01da63, 2022-12-09)"
   xmlns:inkscape="http://www.inkscape.org/namespaces/inkscape"
   xmlns:sodipodi="http://sodipodi.sourceforge.net/DTD/sodipodi-0.dtd"
   xmlns="http://www.w3.org/2000/svg"
   xmlns:svg="http://www.w3.org/2000/svg"><sodipodi:namedview
     id="namedview579"
     pagecolor="#ffffff"
     bordercolor="#000000"
     borderopacity="0.25"
     inkscape:showpageshadow="2"
     inkscape:pageopacity="0.0"
     inkscape:pagecheckerboard="0"
     inkscape:deskcolor="#d1d1d1"
     inkscape:document-units="mm"
     showgrid="false"
     inkscape:zoom="6.2968754"
     inkscape:cx="52.645158"
     inkscape:cy="66.38213"
     inkscape:window-width="1920"
     inkscape:window-height="1009"
     inkscape:window-x="-8"
     inkscape:window-y="-8"
     inkscape:window-maximized="1"
     inkscape:current-layer="layer1" /><defs
     id="defs574" /><g
     inkscape:label="Layer 1"
     inkscape:groupmode="layer"
     id="layer1"><circle
       style="display:inline;fill:#000000;fill-opacity:1;stroke:none;stroke-width:0;stroke-linecap:butt;stroke-linejoin:bevel;stroke-dasharray:none;stroke-opacity:1;paint-order:fill markers stroke"
       id="path800"
       cx="16.933332"
       cy="16.933332"
       r="16.933332" /><g
       id="MAIN"
       stroke="none"
       stroke-width="1"
       fill="none"
       fill-rule="evenodd"
       transform="matrix(0.26458333,0,0,0.26458333,3.6831567,1.6570992)"><g
         id="BRANDING-PAGE"
         transform="translate(-1220,-2172)"
         fill="#ffffff"
         fill-rule="nonzero"><g
           id="LOGO-SYMBOL-Copy"
           transform="translate(209,1995)"><g
             id="Group"
             transform="translate(0,102)"><g
               id="Group-7"
               transform="translate(861)"><g
                 id="Build-logo-symbol-outline"
                 transform="translate(150,75)"><path
                   d="M 50,18.743955 31.153288,29.624033 50,40.50411 68.846712,29.624033 Z M 48.688346,36.726306 36.387814,29.624033 48.688346,22.52176 Z M 51.311654,22.52176 63.612186,29.624033 51.311654,36.726306 Z M 50,0 0,28.868472 V 86.605416 L 50,115.47389 100,86.605416 V 28.868472 Z M 48.688346,111.69004 2.6172631,85.094294 V 31.89676 L 48.688346,58.492505 Z M 3.9289168,29.624033 50,3.0282882 96.071083,29.624033 50,56.225822 Z M 97.382737,85.094294 51.311654,111.69004 V 58.492505 L 97.382737,31.89676 Z M 35.082205,66.350339 16.235493,55.470261 V 77.23646 L 35.082205,88.116538 Z M 18.852756,60.003627 31.153288,67.105899 18.852756,74.208172 Z M 32.458897,83.577128 20.158366,76.474855 32.458897,69.372582 Z M 83.770551,55.470261 64.923839,66.350339 V 88.116538 L 83.770551,77.23646 Z M 67.541102,83.577128 V 69.372582 l 12.300532,7.102273 z M 81.147244,74.208172 68.846712,67.105899 81.147244,60.003627 Z"
                   id="Shape" /></g></g></g></g></g></g></g></svg>
