<?xml version="1.0" encoding="UTF-8" standalone="no"?>
<!-- Created with Inkscape (http://www.inkscape.org/) -->

<svg
   width="128"
   height="128"
   viewBox="0 0 33.866667 33.866667"
   version="1.1"
   id="svg353"
   inkscape:export-filename="Arbitrum.svg"
   inkscape:export-xdpi="96"
   inkscape:export-ydpi="96"
   sodipodi:docname="arb.svg"
   xmlns:inkscape="http://www.inkscape.org/namespaces/inkscape"
   xmlns:sodipodi="http://sodipodi.sourceforge.net/DTD/sodipodi-0.dtd"
   xmlns="http://www.w3.org/2000/svg"
   xmlns:svg="http://www.w3.org/2000/svg">
  <sodipodi:namedview
     id="namedview355"
     pagecolor="#ffffff"
     bordercolor="#000000"
     borderopacity="0.25"
     inkscape:showpageshadow="2"
     inkscape:pageopacity="0.0"
     inkscape:pagecheckerboard="0"
     inkscape:deskcolor="#d1d1d1"
     inkscape:document-units="mm"
     showgrid="false" />
  <defs
     id="defs350" />
  <g
     inkscape:label="Layer 1"
     inkscape:groupmode="layer"
     id="layer1"
     transform="scale(0.22145328)">
    <circle
       style="fill:#2c374b;fill-opacity:1;stroke-width:0.686855"
       id="path474"
       cx="76.464584"
       cy="76.464584"
       r="76.464584" />
    <g
       id="symbol"
       transform="matrix(0.84675473,0,0,0.84675473,-126.73919,-27.988296)">
      <path
         id="Path_153"
         data-name="Path 153"
         d="m 266.978,128.665 10.305,-17.485 27.776,43.262 0.013,8.3 -0.091,-57.131 a 4.3,4.3 0 0 0 -1.99,-3.428 L 252.984,73.42 a 4.408,4.408 0 0 0 -3.821,0.018 4.352,4.352 0 0 0 -0.448,0.259 l -0.174,0.11 -48.541,28.128 -0.189,0.085 a 4.417,4.417 0 0 0 -0.717,0.418 4.29,4.29 0 0 0 -1.729,2.731 4.419,4.419 0 0 0 -0.062,0.505 l 0.076,46.556 25.872,-40.1 c 3.257,-5.317 10.354,-7.03 16.942,-6.937 l 7.732,0.2 -45.56,73.064 5.371,3.092 46.106,-76.083 20.379,-0.074 -45.987,78 19.166,11.03 2.29,1.317 a 4.4,4.4 0 0 0 3.087,0.061 l 50.71,-29.387 -9.7,5.618 z m 3.932,56.627 -19.356,-30.379 11.815,-20.049 25.42,40.066 z"
         transform="translate(-11.186,-11.178)"
         fill="#2d374b" />
      <path
         id="Path_154"
         data-name="Path 154"
         d="M 321.883,235.122 341.239,265.5 359.119,255.138 333.7,215.073 Z"
         transform="translate(-81.515,-91.387)"
         fill="#28a0f0" />
      <path
         id="Path_155"
         data-name="Path 155"
         d="m 395.4,212.248 -0.013,-8.3 -27.776,-43.262 -10.311,17.483 26.814,43.366 9.7,-5.618 a 4.3,4.3 0 0 0 1.587,-3.129 z"
         transform="translate(-101.511,-60.683)"
         fill="#28a0f0" />
      <path
         id="Path_156"
         data-name="Path 156"
         d="m 177.491,212.312 13.691,7.889 45.56,-73.064 -7.732,-0.2 c -6.588,-0.093 -13.685,1.619 -16.942,6.937 l -25.872,40.1 -8.7,13.373 v 4.969 z"
         transform="translate(0,-52.917)"
         fill="#ffffff" />
      <path
         id="Path_157"
         data-name="Path 157"
         d="m 287.75,147.406 -20.378,0.074 -46.106,76.083 16.115,9.279 4.382,-7.433 z"
         transform="translate(-24.713,-53.187)"
         fill="#ffffff" />
      <path
         id="Path_158"
         data-name="Path 158"
         d="M 302.474,94.114 A 12.98,12.98 0 0 0 296.381,83.679 L 245.719,54.545 a 13.178,13.178 0 0 0 -11.624,0 c -0.423,0.213 -49.268,28.542 -49.268,28.542 a 13.016,13.016 0 0 0 -1.94,1.148 12.881,12.881 0 0 0 -5.4,9.854 v 60.338 l 8.7,-13.373 L 186.12,94.5 a 4.325,4.325 0 0 1 1.791,-3.236 c 0.23,-0.165 49.909,-28.921 50.067,-29 a 4.408,4.408 0 0 1 3.821,-0.018 l 50.007,28.765 a 4.3,4.3 0 0 1 1.99,3.428 v 57.672 a 4.2,4.2 0 0 1 -1.495,3.129 l -9.7,5.618 -5,2.9 -17.88,10.362 -18.133,10.509 a 4.395,4.395 0 0 1 -3.087,-0.061 l -21.453,-12.339 -4.382,7.432 19.28,11.1 c 0.638,0.362 1.206,0.684 1.672,0.946 0.722,0.4 1.214,0.675 1.387,0.759 a 12.528,12.528 0 0 0 5.118,1.053 12.89,12.89 0 0 0 4.72,-0.888 l 52.667,-30.5 a 12.876,12.876 0 0 0 4.962,-9.7 z"
         transform="translate(-0.001)"
         fill="#96bedc" />
    </g>
  </g>
</svg>
