<?xml version="1.0" encoding="UTF-8" standalone="no"?>
<!-- Created with Inkscape (http://www.inkscape.org/) -->

<svg
   width="127.99999"
   height="127.99999"
   viewBox="0 0 33.866664 33.866664"
   version="1.1"
   id="svg577"
   inkscape:export-filename="..\Mainnet_128x128\chains\assetmantle.png"
   inkscape:export-xdpi="96"
   inkscape:export-ydpi="96"
   sodipodi:docname="cly.svg"
   xml:space="preserve"
   inkscape:version="1.2.2 (732a01da63, 2022-12-09)"
   xmlns:inkscape="http://www.inkscape.org/namespaces/inkscape"
   xmlns:sodipodi="http://sodipodi.sourceforge.net/DTD/sodipodi-0.dtd"
   xmlns="http://www.w3.org/2000/svg"
   xmlns:svg="http://www.w3.org/2000/svg"><sodipodi:namedview
     id="namedview579"
     pagecolor="#ffffff"
     bordercolor="#000000"
     borderopacity="0.25"
     inkscape:showpageshadow="2"
     inkscape:pageopacity="0.0"
     inkscape:pagecheckerboard="0"
     inkscape:deskcolor="#d1d1d1"
     inkscape:document-units="mm"
     showgrid="false"
     inkscape:zoom="6.2968754"
     inkscape:cx="52.645158"
     inkscape:cy="66.38213"
     inkscape:window-width="1920"
     inkscape:window-height="1009"
     inkscape:window-x="-8"
     inkscape:window-y="-8"
     inkscape:window-maximized="1"
     inkscape:current-layer="layer1" /><defs
     id="defs574"><radialGradient
       id="paint0_radial_198_1012"
       cx="0"
       cy="0"
       r="1"
       gradientUnits="userSpaceOnUse"
       gradientTransform="matrix(12.832293,0,0,12.832293,16.933334,16.933334)"><stop
         offset="0.473958"
         stop-color="#FFC640"
         id="stop6159" /><stop
         offset="1"
         stop-color="#F2AF13"
         id="stop6161" /></radialGradient></defs><g
     inkscape:label="Layer 1"
     inkscape:groupmode="layer"
     id="layer1"><circle
       style="display:inline;fill:#f2af13;fill-opacity:1;stroke:none;stroke-width:0;stroke-linecap:butt;stroke-linejoin:bevel;stroke-dasharray:none;stroke-opacity:1;paint-order:fill markers stroke"
       id="path800"
       cx="16.933332"
       cy="16.933332"
       r="16.933332" /><path
       d="M 26.099256,4.1010408 H 7.7674101 c -2.0248809,0 -3.6663693,1.6414884 -3.6663693,3.6663693 V 26.099256 c 0,2.024854 1.6414884,3.666368 3.6663693,3.666368 H 26.099256 c 2.024854,0 3.666368,-1.641514 3.666368,-3.666368 V 7.7674101 c 0,-2.0248809 -1.641514,-3.6663693 -3.666368,-3.6663693 z"
       fill="url(#paint0_radial_198_1012)"
       id="path6151"
       style="display:inline;fill:url(#paint0_radial_198_1012);stroke-width:0.203686" /><path
       opacity="0.95"
       d="M 15.711211,10.822718 H 9.6005945 c -0.4861809,0 -0.9524615,0.193137 -1.2962652,0.536919 -0.3437831,0.343803 -0.5369192,0.810085 -0.5369192,1.296265 v 8.554861 c 6.925e-4,0.388005 0.1244936,0.765783 0.35356,1.078953 0.2290667,0.313168 0.551585,0.545596 0.9211345,0.663796 0.3695703,0.118199 0.7671068,0.116101 1.1353934,-0.006 0.368306,-0.122089 0.688341,-0.357918 0.914087,-0.673491 l 6.110616,-8.554846 c 0.195112,-0.27402 0.31105,-0.596457 0.335146,-0.93197 0.02408,-0.335534 -0.04463,-0.67121 -0.198574,-0.970304 -0.153967,-0.299098 -0.38725,-0.550042 -0.674328,-0.725395 C 16.377389,10.916141 16.0476,10.823158 15.711211,10.82273 Z m -4.888493,4.277431 c -0.241714,0 -0.477993,-0.07168 -0.67897,-0.205968 -0.2009792,-0.134292 -0.3576362,-0.325146 -0.4501296,-0.548468 -0.092499,-0.223324 -0.1166919,-0.469052 -0.06953,-0.706102 0.047152,-0.237072 0.1635401,-0.454834 0.3344754,-0.625748 0.1709142,-0.170934 0.3886762,-0.287321 0.6257482,-0.334475 0.237051,-0.04715 0.482778,-0.02295 0.706101,0.06953 0.223322,0.0925 0.414178,0.24915 0.54847,0.450127 0.13429,0.20098 0.205966,0.437256 0.205966,0.678971 0,0.324129 -0.128749,0.634976 -0.357958,0.864165 -0.22919,0.229209 -0.540036,0.35796 -0.864164,0.35796 z"
       fill="#0d0a03"
       id="path6153"
       style="stroke-width:0.203686" /><path
       opacity="0.95"
       d="m 20.294172,22.432887 c 0.843693,0 1.527654,-0.683961 1.527654,-1.527654 0,-0.843692 -0.683961,-1.527654 -1.527654,-1.527654 -0.843692,0 -1.527654,0.683962 -1.527654,1.527654 0,0.843693 0.683962,1.527654 1.527654,1.527654 z"
       fill="#0d0a03"
       id="path6155"
       style="stroke-width:0.203686" /><path
       opacity="0.95"
       d="m 26.099256,12.655902 v 8.554861 c 6.12e-4,0.457462 -0.169671,0.898648 -0.477646,1.236932 -0.307975,0.338263 -0.731238,0.549162 -1.186825,0.591263 -0.455525,0.04213 -0.910318,-0.08761 -1.275081,-0.363703 -0.364764,-0.276078 -0.613119,-0.678564 -0.696284,-1.128407 -0.01954,-0.110989 -0.02975,-0.223404 -0.03055,-0.336085 v -1.393219 c -0.0033,-0.386965 -0.128893,-0.762972 -0.358896,-1.074186 -0.230024,-0.311192 -0.552604,-0.541624 -0.921582,-0.658295 -0.368981,-0.116653 -0.765396,-0.113556 -1.132522,0.0089 -0.367106,0.122416 -0.68606,0.357857 -0.911175,0.672614 l -0.953255,1.338225 -1.533766,2.150937 c -0.292535,0.371952 -0.717549,0.616377 -1.186149,0.682148 -0.468624,0.06577 -0.944499,-0.05221 -1.328122,-0.329261 -0.383606,-0.277054 -0.645221,-0.691722 -0.730117,-1.157249 -0.0849,-0.465506 0.01351,-0.94584 0.27463,-1.340465 l 6.110615,-8.55486 c 0.168877,-0.225217 0.387373,-0.408517 0.638519,-0.535677 0.251146,-0.127162 0.528202,-0.194767 0.809698,-0.197597 h 3.055307 c 0.486222,0 0.952461,0.193136 1.296286,0.536919 0.343824,0.343803 0.53692,0.810083 0.53692,1.296264 z"
       fill="#fffdfa"
       id="path6157"
       style="stroke-width:0.203686" /></g></svg>
