<?xml version="1.0" encoding="UTF-8" standalone="no"?>
<!-- Created with Inkscape (http://www.inkscape.org/) -->

<svg
   width="127.99999"
   height="127.99999"
   viewBox="0 0 33.866664 33.866665"
   version="1.1"
   id="svg1563"
   inkscape:export-filename="astr.png"
   inkscape:export-xdpi="96"
   inkscape:export-ydpi="96"
   xmlns:inkscape="http://www.inkscape.org/namespaces/inkscape"
   xmlns:sodipodi="http://sodipodi.sourceforge.net/DTD/sodipodi-0.dtd"
   xmlns="http://www.w3.org/2000/svg"
   xmlns:svg="http://www.w3.org/2000/svg">
  <sodipodi:namedview
     id="namedview1565"
     pagecolor="#ffffff"
     bordercolor="#000000"
     borderopacity="0.25"
     inkscape:showpageshadow="2"
     inkscape:pageopacity="0.0"
     inkscape:pagecheckerboard="0"
     inkscape:deskcolor="#d1d1d1"
     inkscape:document-units="mm"
     showgrid="false" />
  <defs
     id="defs1560">
    <linearGradient
       id="paint0_linear_102_141"
       x1="47.633801"
       y1="252.373"
       x2="238.908"
       y2="61.098099"
       gradientUnits="userSpaceOnUse"
       gradientTransform="matrix(0.10406955,0,0,0.10406955,1.3229217,1.3229124)">
      <stop
         offset="0.001139"
         stop-color="#E6007A"
         id="stop889" />
      <stop
         offset="0.207149"
         stop-color="#703AC2"
         id="stop891" />
      <stop
         offset="0.456011"
         stop-color="#0070EB"
         id="stop893" />
      <stop
         offset="0.768132"
         stop-color="#0297FB"
         id="stop895" />
      <stop
         offset="1"
         stop-color="#0AE2FF"
         id="stop897" />
    </linearGradient>
    <radialGradient
       id="paint1_radial_102_141"
       cx="0"
       cy="0"
       r="1"
       gradientUnits="userSpaceOnUse"
       gradientTransform="matrix(5.9353884,0,0,5.9353884,21.382952,13.773481)">
      <stop
         stop-color="white"
         id="stop900" />
      <stop
         offset="1"
         stop-color="white"
         stop-opacity="0"
         id="stop902" />
    </radialGradient>
    <radialGradient
       id="paint2_radial_102_141"
       cx="0"
       cy="0"
       r="1"
       gradientUnits="userSpaceOnUse"
       gradientTransform="matrix(3.4532567,0,0,3.4532567,12.60968,24.784352)">
      <stop
         stop-color="white"
         id="stop905" />
      <stop
         offset="1"
         stop-color="white"
         stop-opacity="0"
         id="stop907" />
    </radialGradient>
    <linearGradient
       id="paint3_linear_102_141"
       x1="58.6576"
       y1="219.827"
       x2="90.643097"
       y2="219.383"
       gradientUnits="userSpaceOnUse"
       gradientTransform="matrix(0.10406955,0,0,0.10406955,1.3229217,1.3229124)">
      <stop
         stop-color="white"
         stop-opacity="0"
         id="stop910" />
      <stop
         offset="1"
         stop-color="white"
         id="stop912" />
    </linearGradient>
    <radialGradient
       id="paint4_radial_102_141"
       cx="0"
       cy="0"
       r="1"
       gradientUnits="userSpaceOnUse"
       gradientTransform="matrix(-2.9676941,-5.140197,5.140197,-2.9676941,11.971943,14.659738)">
      <stop
         stop-color="white"
         id="stop915" />
      <stop
         offset="1"
         stop-color="white"
         stop-opacity="0"
         id="stop917" />
    </radialGradient>
    <radialGradient
       id="paint5_radial_102_141"
       cx="0"
       cy="0"
       r="1"
       gradientUnits="userSpaceOnUse"
       gradientTransform="matrix(-1.7266283,-2.990608,2.990608,-1.7266283,25.894367,16.75216)">
      <stop
         stop-color="white"
         id="stop920" />
      <stop
         offset="1"
         stop-color="white"
         stop-opacity="0"
         id="stop922" />
    </radialGradient>
    <linearGradient
       id="paint6_linear_102_141"
       x1="256.14301"
       y1="194.19099"
       x2="239.76601"
       y2="166.713"
       gradientUnits="userSpaceOnUse"
       gradientTransform="matrix(0.10406955,0,0,0.10406955,1.3229217,1.3229124)">
      <stop
         stop-color="white"
         stop-opacity="0"
         id="stop925" />
      <stop
         offset="1"
         stop-color="white"
         id="stop927" />
    </linearGradient>
    <radialGradient
       id="paint7_radial_102_141"
       cx="0"
       cy="0"
       r="1"
       gradientUnits="userSpaceOnUse"
       gradientTransform="matrix(-2.9676941,5.140197,-5.140197,-2.9676941,17.16366,22.091655)">
      <stop
         stop-color="white"
         id="stop930" />
      <stop
         offset="1"
         stop-color="white"
         stop-opacity="0"
         id="stop932" />
    </radialGradient>
    <radialGradient
       id="paint8_radial_102_141"
       cx="0"
       cy="0"
       r="1"
       gradientUnits="userSpaceOnUse"
       gradientTransform="matrix(-1.7266283,2.990608,-2.990608,-1.7266283,12.29487,9.2628252)">
      <stop
         stop-color="white"
         id="stop935" />
      <stop
         offset="1"
         stop-color="white"
         stop-opacity="0"
         id="stop937" />
    </radialGradient>
    <linearGradient
       id="paint9_linear_102_141"
       x1="135.188"
       y1="35.975399"
       x2="119.58"
       y2="63.8978"
       gradientUnits="userSpaceOnUse"
       gradientTransform="matrix(0.10406955,0,0,0.10406955,1.3229217,1.3229124)">
      <stop
         stop-color="white"
         stop-opacity="0"
         id="stop940" />
      <stop
         offset="1"
         stop-color="white"
         id="stop942" />
    </linearGradient>
    <linearGradient
       id="paint10_linear_102_141"
       x1="142.142"
       y1="21.781401"
       x2="93.274803"
       y2="35.9972"
       gradientUnits="userSpaceOnUse"
       gradientTransform="matrix(0.10406955,0,0,0.10406955,1.3229217,1.3229124)">
      <stop
         stop-color="#231F20"
         id="stop945" />
      <stop
         offset="1"
         stop-color="white"
         id="stop947" />
    </linearGradient>
    <linearGradient
       id="paint11_linear_102_141"
       x1="49.792801"
       y1="208.15601"
       x2="90.6632"
       y2="250.80299"
       gradientUnits="userSpaceOnUse"
       gradientTransform="matrix(0.10406955,0,0,0.10406955,1.3229217,1.3229124)">
      <stop
         stop-color="#231F20"
         id="stop950" />
      <stop
         offset="1"
         stop-color="white"
         id="stop952" />
    </linearGradient>
    <linearGradient
       id="paint12_linear_102_141"
       x1="269.146"
       y1="201.728"
       x2="283.36099"
       y2="158.48801"
       gradientUnits="userSpaceOnUse"
       gradientTransform="matrix(0.10406955,0,0,0.10406955,1.3229217,1.3229124)">
      <stop
         stop-color="#231F20"
         id="stop955" />
      <stop
         offset="1"
         stop-color="white"
         id="stop957" />
    </linearGradient>
    <linearGradient
       id="paint13_linear_102_141"
       x1="164.408"
       y1="46.508202"
       x2="229.924"
       y2="61.509602"
       gradientUnits="userSpaceOnUse"
       gradientTransform="matrix(0.10406955,0,0,0.10406955,1.3229217,1.3229124)">
      <stop
         stop-color="#231F20"
         id="stop960" />
      <stop
         offset="1"
         stop-color="white"
         id="stop962" />
    </linearGradient>
    <linearGradient
       id="paint14_linear_102_141"
       x1="232.422"
       y1="214.224"
       x2="186.673"
       y2="263.46201"
       gradientUnits="userSpaceOnUse"
       gradientTransform="matrix(0.10406955,0,0,0.10406955,1.3229217,1.3229124)">
      <stop
         stop-color="#231F20"
         id="stop965" />
      <stop
         offset="1"
         stop-color="white"
         id="stop967" />
    </linearGradient>
    <linearGradient
       id="paint15_linear_102_141"
       x1="53.183601"
       y1="189.302"
       x2="33.416901"
       y2="125.063"
       gradientUnits="userSpaceOnUse"
       gradientTransform="matrix(0.10406955,0,0,0.10406955,1.3229217,1.3229124)">
      <stop
         stop-color="#231F20"
         id="stop970" />
      <stop
         offset="1"
         stop-color="white"
         id="stop972" />
    </linearGradient>
    <linearGradient
       id="paint16_linear_102_141"
       x1="178.731"
       y1="70.6726"
       x2="158"
       y2="91.4039"
       gradientUnits="userSpaceOnUse"
       gradientTransform="matrix(0.10406955,0,0,0.10406955,1.3229217,1.3229124)">
      <stop
         stop-color="#231F20"
         id="stop975" />
      <stop
         offset="1"
         stop-color="white"
         id="stop977" />
    </linearGradient>
    <linearGradient
       id="paint17_linear_102_141"
       x1="66.9347"
       y1="164.782"
       x2="95.254303"
       y2="172.37"
       gradientUnits="userSpaceOnUse"
       gradientTransform="matrix(0.10406955,0,0,0.10406955,1.3229217,1.3229124)">
      <stop
         stop-color="#231F20"
         id="stop980" />
      <stop
         offset="1"
         stop-color="white"
         id="stop982" />
    </linearGradient>
    <linearGradient
       id="paint18_linear_102_141"
       x1="204.327"
       y1="214.534"
       x2="196.73801"
       y2="186.214"
       gradientUnits="userSpaceOnUse"
       gradientTransform="matrix(0.10406955,0,0,0.10406955,1.3229217,1.3229124)">
      <stop
         stop-color="#231F20"
         id="stop985" />
      <stop
         offset="1"
         stop-color="white"
         id="stop987" />
    </linearGradient>
    <linearGradient
       id="paint19_linear_102_141"
       x1="161.22"
       y1="189.35201"
       x2="173.659"
       y2="172.174"
       gradientUnits="userSpaceOnUse"
       gradientTransform="matrix(0.10406955,0,0,0.10406955,1.3229217,1.3229124)">
      <stop
         stop-color="#231F20"
         id="stop990" />
      <stop
         offset="1"
         stop-color="white"
         id="stop992" />
    </linearGradient>
    <linearGradient
       id="paint20_linear_102_141"
       x1="118.389"
       y1="181.91499"
       x2="93.511597"
       y2="193.761"
       gradientUnits="userSpaceOnUse"
       gradientTransform="matrix(0.10406955,0,0,0.10406955,1.3229217,1.3229124)">
      <stop
         stop-color="#231F20"
         id="stop995" />
      <stop
         offset="1"
         stop-color="white"
         id="stop997" />
    </linearGradient>
    <linearGradient
       id="paint21_linear_102_141"
       x1="109.362"
       y1="140.504"
       x2="117.062"
       y2="156.496"
       gradientUnits="userSpaceOnUse"
       gradientTransform="matrix(0.10406955,0,0,0.10406955,1.3229217,1.3229124)">
      <stop
         stop-color="#231F20"
         id="stop1000" />
      <stop
         offset="1"
         stop-color="white"
         id="stop1002" />
    </linearGradient>
    <linearGradient
       id="paint22_linear_102_141"
       x1="145.183"
       y1="91.112"
       x2="139.85201"
       y2="72.749901"
       gradientUnits="userSpaceOnUse"
       gradientTransform="matrix(0.10406955,0,0,0.10406955,1.3229217,1.3229124)">
      <stop
         stop-color="#231F20"
         id="stop1005" />
      <stop
         offset="1"
         stop-color="white"
         id="stop1007" />
    </linearGradient>
    <linearGradient
       id="paint23_linear_102_141"
       x1="202.63699"
       y1="175.18201"
       x2="218.03799"
       y2="178.73599"
       gradientUnits="userSpaceOnUse"
       gradientTransform="matrix(0.10406955,0,0,0.10406955,1.3229217,1.3229124)">
      <stop
         stop-color="#231F20"
         id="stop1010" />
      <stop
         offset="1"
         stop-color="white"
         id="stop1012" />
    </linearGradient>
    <linearGradient
       id="paint24_linear_102_141"
       x1="178.468"
       y1="123.158"
       x2="158.922"
       y2="119.604"
       gradientUnits="userSpaceOnUse"
       gradientTransform="matrix(0.10406955,0,0,0.10406955,1.3229217,1.3229124)">
      <stop
         stop-color="#231F20"
         id="stop1015" />
      <stop
         offset="1"
         stop-color="white"
         id="stop1017" />
    </linearGradient>
  </defs>
  <g
     inkscape:label="Layer 1"
     inkscape:groupmode="layer"
     id="layer1">
    <circle
       style="fill:#ffffff;fill-opacity:1;stroke-width:0;stroke-linejoin:bevel;stroke-opacity:0.684597"
       id="path1684"
       cx="16.933332"
       cy="16.933332"
       r="16.933332" />
    <path
       d="M 32.507155,15.874021 C 31.922075,7.2728912 24.475276,0.77445645 15.874031,1.3595128 11.589269,1.65095 7.827092,3.6459321 5.2017292,6.6374739 l 2.09e-5,-1.06e-5 -0.00733,-0.00529 c -0.017692,0.024477 -0.034217,0.048622 -0.051786,0.073088 C 2.5348075,9.7114032 1.068099,13.708539 1.3595007,17.992665 c 0.027769,0.408264 0.075821,0.809973 0.1338868,1.208247 1.77e-5,1.04e-4 1.77e-5,1.04e-4 3.54e-5,2.07e-4 0.0026,0.01801 0.00529,0.03591 0.00781,0.05391 0.039255,0.262775 0.084829,0.523157 0.1368318,0.781146 3.42e-5,1.03e-4 5.19e-5,3.12e-4 8.65e-5,4.33e-4 9.44e-4,0.0047 0.00185,0.0093 0.00275,0.01405 0.047343,0.233636 0.099934,0.465086 0.1574799,0.694664 l 1.042e-4,4.33e-4 c 5.19e-5,2.08e-4 1.043e-4,4.32e-4 1.392e-4,5.11e-4 1.8028196,7.189635 8.5389915,12.281656 16.1940255,11.760891 8.60116,-0.584999 15.099576,-8.032007 14.514496,-16.633148 z m -3.397871,0.231138 c 0.07202,1.058909 0.0054,2.095753 -0.183162,3.09326 -0.0024,-0.0057 -0.0041,-0.0118 -0.0065,-0.01738 v -1.05e-4 c -1.131707,-2.766265 -3.370347,-4.763359 -5.339031,-5.866601 0.398482,-4.6873028 -1.1917,-6.6620226 -2.991479,-6.9833271 -0.04891,-0.00942 -0.09814,-0.017452 -0.148195,-0.023656 -1.428355,-0.1832042 -2.734636,0.8264474 -2.917591,2.2547713 -0.183265,1.428396 0.826417,2.7346878 2.254772,2.9179538 0.124571,0.01577 0.247789,0.02014 0.369864,0.01823 0.0079,0.158227 0.01291,0.326278 0.01425,0.502052 -1.664064,-0.412364 -3.219696,-0.493081 -4.637957,-0.365564 -0.530339,0.03535 -1.061092,0.102165 -1.588933,0.200822 0.177022,-1.582773 0.770842,-3.3597398 1.9231,-4.6601512 1.113857,-1.257077 2.769915,-1.977592 4.576459,-1.7926919 0.342493,0.035043 0.707881,0.1191283 1.036845,0.2296086 0.01509,0.00507 0.03122,0.00938 0.0461,0.01457 2.08e-4,-2.915e-4 5.11e-4,-6.687e-4 7.08e-4,-9.864e-4 4.18443,1.7046239 7.263952,5.6758559 7.590729,10.4792059 z m -10.880368,2.384338 c -0.0011,0.0017 -0.0024,0.0033 -0.0034,0.0051 -0.372466,0.537207 -0.81549,1.066921 -1.335525,1.579256 -0.779481,-0.829435 -1.405771,-1.722664 -1.880848,-2.646698 -0.02434,-0.04954 -0.05037,-0.09657 -0.0741,-0.146944 -9.22e-4,-0.0018 -0.0018,-0.0037 -0.0027,-0.0055 -0.279115,-0.591427 -0.516395,-1.240198 -0.700077,-1.946935 1.109278,-0.261005 2.197117,-0.356958 3.235938,-0.30638 0.05506,0.0037 0.108855,0.0047 0.164327,0.0093 0.0019,1.05e-4 0.004,3.13e-4 0.0061,4.35e-4 0.650643,0.05391 1.33001,0.172546 2.032791,0.366324 -0.328547,1.090648 -0.789263,2.080351 -1.35228,2.95443 -0.0307,0.04589 -0.05848,0.0919 -0.09023,0.137683 z M 12.894832,5.4190172 c -0.0029,0.00378 -0.0061,0.0073 -0.0091,0.011068 v 1.06e-5 c -1.828898,2.3620294 -2.439484,5.2975072 -2.411251,7.5536002 -4.2582652,1.998553 -5.1732862,4.363012 -4.551658,6.082242 0.016288,0.04705 0.033969,0.09376 0.053596,0.140182 0.5555549,1.328655 2.083077,1.95505 3.411515,1.399318 1.328634,-0.555523 1.95507,-2.083055 1.399662,-3.411608 -0.04866,-0.115829 -0.106484,-0.22479 -0.169176,-0.329483 0.134583,-0.087 0.279104,-0.176295 0.432565,-0.266418 0.474921,1.647628 1.177475,3.041329 1.99723,4.205971 0.295247,0.440837 0.617757,0.866171 0.966287,1.273186 -1.459368,0.638362 -3.295561,1.012805 -4.998242,0.665108 C 7.3706526,22.40605 5.9186637,21.332157 5.1755243,19.67516 5.0346556,19.361078 4.9248102,19.002664 4.8559682,18.662564 4.8136119,18.365342 4.7781241,18.065829 4.7574352,17.76153 4.3770712,12.169769 7.846282,7.1916335 12.89483,5.4190168 Z m 4.866707,23.6902578 c -3.320546,0.225831 -6.424525,-0.906758 -8.77044,-2.919985 2.96003,0.402854 5.807478,-0.536166 7.747229,-1.688735 3.861605,2.690717 6.367704,2.301185 7.546083,0.902906 0.03269,-0.03768 0.0642,-0.07629 0.0946,-0.116561 0.872936,-1.145389 0.651684,-2.781467 -0.49381,-3.65409 -1.145493,-0.872935 -2.781571,-0.65158 -3.654401,0.493706 -0.07597,0.100017 -0.141432,0.204497 -0.200751,0.311167 -0.141638,-0.07253 -0.290354,-0.152565 -0.444064,-0.239776 1.190555,-1.235721 2.038826,-2.543354 2.637954,-3.836315 0.234574,-0.476951 0.442088,-0.970032 0.620671,-1.476539 1.283178,0.944743 2.526705,2.348329 3.077129,3.997624 0.53169,1.593201 0.327714,3.387672 -0.735668,4.859735 -0.201582,0.279011 -0.457178,0.553443 -0.717351,0.783125 -0.0038,0.0033 -0.0074,0.0068 -0.01109,0.01027 -1.860451,1.462178 -4.162366,2.401093 -6.696044,2.573432 z"
       fill="url(#paint0_linear_102_141)"
       id="path827"
       style="fill:url(#paint0_linear_102_141);stroke-width:0.10407" />
    <path
       style="mix-blend-mode:overlay;fill:url(#paint1_radial_102_141);stroke-width:0.10407"
       opacity="0.9"
       d="m 20.58911,6.3310099 c -0.04891,-0.00943 -0.09814,-0.017464 -0.148195,-0.023667 -0.25268,-0.032406 -0.501199,-0.025724 -0.740767,0.01226 1.493397,0.8123983 2.582174,3.0759633 2.00979,7.5409831 -0.189614,1.478827 -0.629412,2.886057 -1.264341,4.177456 -0.514624,1.110318 -1.214595,2.231252 -2.155696,3.308475 0.451974,0.338954 0.892605,0.622647 1.296083,0.851393 1.190555,-1.235721 2.038825,-2.543356 2.637954,-3.836315 0.635032,-1.291296 1.074726,-2.698628 1.264341,-4.177352 C 24.169831,8.8678402 22.496602,6.671536 20.58911,6.3310099 Z"
       fill="url(#paint1_radial_102_141)"
       id="path829" />
    <g
       style="mix-blend-mode:overlay"
       opacity="0.8"
       id="g833"
       transform="matrix(0.10406955,0,0,0.10406955,1.3229218,1.3229124)">
      <path
         d="m 195.898,120.474 c 5.5,-42.9042 -4.962,-64.6547 -19.312,-72.461 -0.56,0.0889 -1.11,0.2083 -1.659,0.3343 14.049,8.0756 24.157,29.8056 18.731,72.1267 -1.822,14.21 -6.047,27.732 -12.149,40.141 -4.78,10.316 -11.245,20.724 -19.84,30.759 0.458,0.354 0.912,0.691 1.366,1.032 9.043,-10.351 15.77,-21.122 20.714,-31.791 6.101,-12.409 10.327,-25.931 12.149,-40.141 z"
         fill="#ffffff"
         id="path831" />
    </g>
    <path
       style="mix-blend-mode:overlay;fill:url(#paint2_radial_102_141);stroke-width:0.10407"
       opacity="0.5"
       d="m 16.033777,23.987596 c -0.140285,-0.106884 -0.275368,-0.218859 -0.41045,-0.330733 -2.203776,0.919454 -5.258791,1.495895 -8.2922518,0.791969 0.4967448,0.633159 1.0511028,1.217822 1.6600238,1.740458 2.96003,0.402854 5.807478,-0.536166 7.747229,-1.688631 -0.230201,-0.160475 -0.464566,-0.330214 -0.704551,-0.513063 z"
       fill="url(#paint2_radial_102_141)"
       id="path835" />
    <path
       style="mix-blend-mode:overlay;fill:url(#paint3_linear_102_141);stroke-width:0.10407"
       opacity="0.6"
       d="m 15.623327,23.656863 c -0.06744,-0.05599 -0.135394,-0.111356 -0.201583,-0.16849 -2.220531,0.887298 -5.289418,1.41774 -8.316073,0.663444 0.073744,0.100111 0.1487258,0.199293 0.2254042,0.297015 3.0334608,0.703926 6.0884758,0.127485 8.2922518,-0.791969 z"
       fill="url(#paint3_linear_102_141)"
       id="path837" />
    <path
       style="mix-blend-mode:overlay;fill:url(#paint4_radial_102_141);stroke-width:0.10407"
       opacity="0.9"
       d="m 5.923545,19.06854 c 0.016288,0.04705 0.033969,0.09367 0.053596,0.140078 0.098314,0.235197 0.2283389,0.446979 0.3810091,0.635449 -0.043116,-1.699456 1.3728019,-3.774187 5.5258529,-5.5109 1.375489,-0.575296 2.814041,-0.89812 4.249889,-0.993865 1.218862,-0.109586 2.539713,-0.0637 3.943091,0.212615 0.06753,-0.56083 0.09294,-1.084301 0.08929,-1.548139 -1.665422,-0.413166 -3.222096,-0.493997 -4.641292,-0.366397 -1.435847,0.09571 -2.874505,0.418536 -4.249962,0.993729 -4.9448531,2.067966 -6.0103171,4.615172 -5.351474,6.43743 z"
       fill="url(#paint4_radial_102_141)"
       id="path839" />
    <g
       style="mix-blend-mode:overlay"
       opacity="0.8"
       id="g843"
       transform="matrix(0.10406955,0,0,0.10406955,1.3229218,1.3229124)">
      <path
         d="m 101.481,125.015 c -39.9065,16.688 -53.512,36.624 -53.0977,52.954 0.3571,0.441 0.7354,0.857 1.1189,1.269 -0.0304,-16.203 13.7343,-35.822 53.0978,-52.284 13.217,-5.527 27.041,-8.629 40.838,-9.549 11.324,-1.018 23.571,-0.624 36.558,1.802 0.078,-0.573 0.143,-1.135 0.211,-1.699 -13.485,-2.655 -26.177,-3.096 -37.889,-2.043 -13.797,0.92 -27.62,4.022 -40.837,9.55 z"
         fill="#ffffff"
         id="path841" />
    </g>
    <path
       style="mix-blend-mode:overlay;fill:url(#paint5_radial_102_141);stroke-width:0.10407"
       opacity="0.4"
       d="m 23.492234,14.185285 c -0.02237,0.17494 -0.05183,0.347904 -0.08117,0.520867 1.898123,1.448753 3.924879,3.80624 4.831948,6.78523 0.300033,-0.746698 0.529194,-1.519206 0.677285,-2.307845 -1.131131,-2.764815 -3.368002,-4.761391 -5.336062,-5.864945 -0.02373,0.279636 -0.0536,0.567492 -0.09199,0.866693 z"
       fill="url(#paint5_radial_102_141)"
       id="path845" />
    <path
       style="mix-blend-mode:overlay;fill:url(#paint6_linear_102_141);stroke-width:0.10407"
       opacity="0.5"
       d="m 23.411059,14.706152 c -0.01468,0.08638 -0.02872,0.172965 -0.04516,0.258821 1.878768,1.479245 3.872635,3.871804 4.732667,6.870152 0.04984,-0.113953 0.09825,-0.228432 0.144448,-0.343743 -0.90707,-2.97899 -2.933825,-5.336477 -4.831949,-6.78523 z"
       fill="url(#paint6_linear_102_141)"
       id="path847" />
    <path
       style="mix-blend-mode:overlay;fill:url(#paint7_radial_102_141);stroke-width:0.10407"
       opacity="0.9"
       d="m 24.286181,25.399923 c 0.03269,-0.03768 0.0642,-0.07629 0.0946,-0.11656 0.15444,-0.202624 0.272869,-0.421171 0.359768,-0.647626 -1.450208,0.887089 -3.95485,0.698202 -7.535467,-2.030085 -1.185977,-0.903531 -2.184838,-1.98804 -2.985653,-3.183591 -0.704342,-1.000837 -1.325013,-2.167561 -1.787499,-3.521089 -0.51941,0.221875 -0.985476,0.461653 -1.385341,0.696744 0.474921,1.648775 1.183239,3.037375 2.003411,4.202642 0.800816,1.195655 1.799675,2.280059 2.985547,3.183696 4.263314,3.248426 7.002008,2.897504 8.250635,1.415865 z"
       fill="url(#paint7_radial_102_141)"
       id="path849" />
    <g
       style="mix-blend-mode:overlay"
       opacity="0.8"
       id="g853"
       transform="matrix(0.10406955,0,0,0.10406955,1.3229218,1.3229124)">
      <path
         d="m 152.611,204.505 c 34.406,26.216 58.473,28.031 72.408,19.507 0.203,-0.53 0.375,-1.066 0.54,-1.604 -14.018,8.128 -37.89,6.017 -71.829,-19.842 -11.395,-8.683 -20.993,-19.103 -28.688,-30.591 -6.544,-9.298 -12.325,-20.102 -16.719,-32.562 -0.534,0.219 -1.054,0.444 -1.577,0.667 4.444,13.006 10.408,24.217 17.176,33.834 7.695,11.488 17.293,21.909 28.689,30.591 z"
         fill="#ffffff"
         id="path851" />
    </g>
    <path
       style="mix-blend-mode:overlay;fill:url(#paint8_radial_102_141);stroke-width:0.10407"
       opacity="0.3"
       d="m 11.272834,12.62653 c 0.162775,-0.06806 0.327247,-0.129046 0.491698,-0.19003 0.305548,-2.36829 1.333859,-5.3022711 3.460209,-7.5773457 -0.796653,0.1136127 -1.580192,0.3013645 -2.337299,0.5674182 -1.828856,2.3620357 -2.43941,5.2975255 -2.411166,7.5535865 0.254085,-0.11916 0.518277,-0.237279 0.796558,-0.353629 z"
       fill="url(#paint8_radial_102_141)"
       id="path855" />
    <path
       style="mix-blend-mode:overlay;fill:url(#paint9_linear_102_141);stroke-width:0.10407"
       opacity="0.4"
       d="m 11.764532,12.4365 c 0.08221,-0.03049 0.164118,-0.06161 0.246748,-0.09044 0.341661,-2.3666348 1.416804,-5.2896155 3.583429,-7.5336153 -0.123636,0.013791 -0.246958,0.029181 -0.369968,0.046707 -2.12635,2.2750747 -3.154661,5.2090553 -3.460209,7.5773453 z"
       fill="url(#paint9_linear_102_141)"
       id="path857" />
    <path
       style="mix-blend-mode:multiply;fill:url(#paint10_linear_102_141);stroke-width:0.10407"
       opacity="0.4"
       d="M 15.874031,1.3595136 C 11.589269,1.6509512 7.827092,3.6459321 5.2017292,6.6374739 c -0.019836,0.022612 -0.039547,0.045269 -0.059247,0.067999 l 1.561e-4,-2.08e-4 C 5.6537653,7.2122607 7.3241958,8.2119632 8.001221,8.6288452 9.330532,7.1992519 11.00165,6.0837511 12.894832,5.4190175 13.027104,5.248645 13.164163,5.0805519 13.309341,4.9167154 15.072592,2.9269575 17.480657,1.875263 20.273571,1.875263 c 0.310856,0 0.944016,0.049482 0.957648,0.050488 C 19.538007,1.4392955 17.733441,1.2330344 15.874031,1.3595136 Z"
       fill="url(#paint10_linear_102_141)"
       id="path859" />
    <path
       style="mix-blend-mode:multiply;fill:url(#paint11_linear_102_141);stroke-width:0.10407"
       opacity="0.4"
       d="m 17.761539,29.109275 c -3.320546,0.225831 -6.424525,-0.906758 -8.77044,-2.919985 h -10e-6 -2.1e-5 C 8.77272,26.159527 8.553882,26.123831 8.334681,26.079082 5.7298509,25.54687 3.6150536,23.987387 2.2185726,21.568603 2.0631353,21.299375 1.9240513,21.025047 1.7987049,20.746453 c 1.8028715,7.189541 8.5390131,12.281456 16.1939741,11.760693 0.03392,-0.788224 -0.198462,-2.617351 -0.23114,-3.397871 z"
       fill="url(#paint11_linear_102_141)"
       id="path861" />
    <path
       style="mix-blend-mode:multiply;fill:url(#paint12_linear_102_141);stroke-width:0.10407"
       opacity="0.4"
       d="m 32.507155,15.874021 c -0.479552,-0.04911 -2.821951,0.135811 -3.397871,0.231138 0.07202,1.058909 0.0054,2.095753 -0.183162,3.09326 0.08085,0.198357 0.157457,0.399835 0.226351,0.606101 0.841507,2.521918 0.548239,5.13323 -0.848167,7.552014 -0.152566,0.264129 -0.317308,0.517228 -0.492145,0.760853 -0.0033,0.0046 -0.0072,0.0099 -0.01003,0.01374 -1.05e-4,2.08e-4 0.0072,-0.006 0.01133,-0.0098 3.170582,-3.084726 5.017401,-7.488117 4.69364,-12.247321 z"
       fill="url(#paint12_linear_102_141)"
       id="path863" />
    <path
       style="mix-blend-mode:multiply;fill:url(#paint13_linear_102_141);stroke-width:0.10407"
       opacity="0.5"
       d="m 20.434878,5.3827593 c 0.342493,0.03505 0.707881,0.1191282 1.036846,0.2296188 0.01509,0.00507 0.03122,0.00937 0.0461,0.014561 2.08e-4,-2.913e-4 5.11e-4,-6.686e-4 7.08e-4,-9.863e-4 1.34666,0.5485711 2.577803,1.3329746 3.640664,2.3032354 0.0024,0.0019 0.0046,0.0035 0.0068,0.0054 0.51223,-0.5856097 1.498497,-1.2290927 1.498497,-1.2290927 0,0 -1.510258,-1.5448395 -3.819977,-2.0242669 -1.617054,-0.3356285 -5.264276,-0.6609603 -7.564525,3.2533566 0,0 0.0091,-0.0086 0.02257,-0.02104 0.170155,-0.257197 0.351132,-0.5071722 0.555732,-0.7380714 1.113857,-1.2570769 2.769916,-1.9775919 4.576459,-1.7926916 z"
       fill="url(#paint13_linear_102_141)"
       id="path865" />
    <path
       style="mix-blend-mode:multiply;fill:url(#paint14_linear_102_141);stroke-width:0.10407"
       opacity="0.5"
       d="m 25.185654,25.741063 c -0.201583,0.279011 -0.457075,0.553442 -0.717247,0.783124 -0.01197,0.0105 -0.02373,0.02228 -0.0357,0.03269 2.08e-4,3.12e-4 3.11e-4,8.26e-4 5.11e-4,0.0011 -1.148407,0.891876 -2.443345,1.565934 -3.814982,2.001258 -0.0027,10e-4 -0.0053,0.0022 -0.0081,0.0032 0.251015,0.736395 0.315226,1.912277 0.315226,1.912277 0,0 2.092943,-0.535438 3.663041,-2.296085 1.099182,-1.2326 3.20451,-4.228451 0.964724,-8.177683 0,0 0.003,0.01228 0.007,0.03008 0.13758,0.275993 0.263609,0.557605 0.361329,0.850249 0.531692,1.593201 0.327716,3.387672 -0.735771,4.859735 z"
       fill="url(#paint14_linear_102_141)"
       id="path867" />
    <path
       style="mix-blend-mode:multiply;fill:url(#paint15_linear_102_141);stroke-width:0.10407"
       opacity="0.5"
       d="M 5.1809777,19.679845 C 5.0400884,19.365658 4.930191,19.00714 4.86138,18.667039 4.85824,18.651429 4.8539,18.635299 4.850937,18.619789 c -3.536e-4,0 -8.654e-4,-1.03e-4 -0.00122,-1.03e-4 -0.1982213,-1.440531 -0.134489,-2.898962 0.1743685,-4.304525 5.112e-4,-0.0029 7.08e-4,-0.0057 0.00122,-0.0086 -0.7632668,-0.150809 -1.8136823,-0.683229 -1.8136823,-0.683229 0,0 -0.5827479,2.080351 0.1569574,4.320344 0.5178397,1.568224 2.0596926,4.8895 6.5997174,4.924363 0,0 -0.01205,-0.0037 -0.02954,-0.0091 -0.307818,-0.01873 -0.614761,-0.05047 -0.91702,-0.112183 -1.6456212,-0.336145 -3.0976202,-1.41004 -3.8407495,-3.06693 z"
       fill="url(#paint15_linear_102_141)"
       id="path869" />
    <path
       style="mix-blend-mode:multiply;fill:url(#paint16_linear_102_141);stroke-width:0.10407"
       opacity="0.6"
       d="m 19.778096,11.480069 c 0.12457,0.01577 0.24779,0.02014 0.369863,0.01822 0,0 -0.08148,-1.6219758 -0.280676,-2.4541578 C 19.668094,8.2119462 19.37441,7.6608672 19.05169,7.3489499 18.820552,7.1255021 18.090816,6.84722 17.523325,8.5621092 c -0.183266,1.428397 0.826416,2.7346888 2.254771,2.9179538 z"
       fill="url(#paint16_linear_102_141)"
       id="path871" />
    <path
       style="mix-blend-mode:multiply;fill:url(#paint17_linear_102_141);stroke-width:0.10407"
       opacity="0.5"
       d="m 10.788328,17.196433 c -0.04866,-0.115829 -0.106483,-0.22479 -0.169186,-0.329484 0,0 -1.363904,0.881573 -1.985012,1.47019 -0.621108,0.588513 -0.951487,1.118435 -1.0602707,1.553863 -0.077938,0.311896 0.045937,1.083051 1.8148167,0.717039 1.328624,-0.555524 1.955071,-2.083057 1.399652,-3.411608 z"
       fill="url(#paint17_linear_102_141)"
       id="path873" />
    <path
       style="mix-blend-mode:multiply;fill:url(#paint18_linear_102_141);stroke-width:0.10407"
       opacity="0.6"
       d="m 20.23288,22.122252 c -0.07597,0.100111 -0.141326,0.204601 -0.200751,0.311272 0,0 1.445526,0.740352 2.265802,0.983979 0.820172,0.243626 1.444383,0.264751 1.875855,0.141326 0.309087,-0.08846 0.914979,-0.581333 -0.286504,-1.930178 -1.145389,-0.872936 -2.781466,-0.651684 -3.654402,0.493601 z"
       fill="url(#paint18_linear_102_141)"
       id="path875" />
    <path
       style="mix-blend-mode:multiply;fill:url(#paint19_linear_102_141);stroke-width:0.10407"
       opacity="0.3"
       d="m 19.671424,15.397382 c -0.328547,1.090648 -0.789263,2.080351 -1.35228,2.95443 -0.0307,0.04589 -0.05848,0.0919 -0.09022,0.137685 -0.0011,0.0017 -0.0024,0.0033 -0.0034,0.0051 -0.372466,0.537207 -0.81549,1.066921 -1.335525,1.579256 0.357374,0.380165 0.743889,0.748259 1.168285,1.097517 0.53294,0.420649 1.055368,0.758772 1.52774,1.026542 1.190557,-1.235722 2.038828,-2.543356 2.637956,-3.836316 0.23456,-0.476948 0.442075,-0.97003 0.620658,-1.476537 -0.549279,-0.40431 -1.105634,-0.725988 -1.61828,-0.944535 -0.530132,-0.226039 -1.048397,-0.403477 -1.554904,-0.543138 z"
       fill="url(#paint19_linear_102_141)"
       id="path877" />
    <path
       style="mix-blend-mode:multiply;fill:url(#paint20_linear_102_141);stroke-width:0.10407"
       opacity="0.3"
       d="m 8.991099,26.18929 c 2.96003,0.402854 5.807478,-0.536166 7.747229,-1.688631 -0.230201,-0.160475 -0.464566,-0.330214 -0.704551,-0.513063 -0.748676,-0.57051 -1.422423,-1.213348 -2.019261,-1.910509 -1.459368,0.638363 -3.29556,1.012804 -4.998242,0.665107 C 7.3706529,22.40605 5.9186641,21.332157 5.1755246,19.675161 5.0346561,19.36108 4.9248106,19.002664 4.8559685,18.662564 5.2860254,21.680165 6.8087709,24.316351 8.991099,26.18929 Z"
       fill="url(#paint20_linear_102_141)"
       id="path879" />
    <path
       style="mix-blend-mode:multiply;fill:url(#paint21_linear_102_141);stroke-width:0.10407"
       opacity="0.3"
       d="m 16.889958,20.073852 c -0.779482,-0.829434 -1.405668,-1.722664 -1.880849,-2.646697 -0.02435,-0.04954 -0.05037,-0.09657 -0.0741,-0.146946 -9.22e-4,-0.0018 -0.0018,-0.0037 -0.0027,-0.0055 -0.279114,-0.591426 -0.516393,-1.240198 -0.700076,-1.946933 -0.506819,0.119264 -1.017695,0.269644 -1.531175,0.462069 -0.629412,0.250703 -1.182532,0.533461 -1.650053,0.8081 0.47492,1.64763 1.177472,3.041329 1.997229,4.205972 0.295246,0.440838 0.617756,0.866169 0.966286,1.273186 0.625771,-0.273599 1.183375,-0.59507 1.629521,-0.930173 0.460091,-0.345512 0.872311,-0.704968 1.245921,-1.073062 z"
       fill="url(#paint21_linear_102_141)"
       id="path881" />
    <path
       style="mix-blend-mode:multiply;fill:url(#paint22_linear_102_141);stroke-width:0.10407"
       opacity="0.3"
       d="m 12.885777,5.4301007 c -1.828918,2.3620245 -2.439514,5.2975033 -2.41127,7.5535973 0.255032,-0.119681 0.520389,-0.23832 0.799816,-0.355191 0.867357,-0.362681 1.759962,-0.62452 2.660996,-0.792905 0.177023,-1.582773 0.770844,-3.3597288 1.923101,-4.660151 1.113856,-1.2570666 2.769916,-1.977592 4.576458,-1.7926917 0.342493,0.03505 0.707881,0.1191282 1.036846,0.2296188 0.0152,0.00507 0.03122,0.00937 0.0461,0.014561 2.08e-4,-2.913e-4 5.11e-4,-6.686e-4 7.08e-4,-9.863e-4 C 19.854251,4.9479393 18.015654,4.6274884 16.105145,4.75744 c -1.122077,0.076325 -2.197219,0.3058815 -3.210338,0.6615705 -0.0027,0.00378 -0.0061,0.0073 -0.0091,0.011068 z"
       fill="url(#paint22_linear_102_141)"
       id="path883" />
    <path
       style="mix-blend-mode:multiply;fill:url(#paint23_linear_102_141);stroke-width:0.10407"
       opacity="0.3"
       d="m 28.919565,19.180935 c -1.131652,-2.766272 -3.370292,-4.763367 -5.338976,-5.866608 -0.02384,0.280571 -0.0538,0.569572 -0.09231,0.869917 -0.119576,0.932462 -0.338954,1.836411 -0.643671,2.700813 1.283179,0.944742 2.526705,2.348329 3.07713,3.997623 0.53169,1.593201 0.327714,3.387672 -0.735668,4.859736 -0.201582,0.279011 -0.457178,0.553442 -0.717352,0.783124 -0.0038,0.0033 -0.0074,0.0068 -0.01121,0.01027 2.291924,-1.801233 3.912807,-4.397353 4.468642,-7.337421 -0.0024,-0.0057 -0.0041,-0.0118 -0.0065,-0.01738 z"
       fill="url(#paint23_linear_102_141)"
       id="path885" />
    <path
       style="mix-blend-mode:multiply;fill:url(#paint24_linear_102_141);stroke-width:0.10407"
       opacity="0.3"
       d="m 13.926057,13.712913 c 0.06921,0.570925 0.174212,1.107404 0.306173,1.614847 1.109277,-0.261007 2.197115,-0.356959 3.235938,-0.306381 0.05506,0.0037 0.108855,0.0047 0.164325,0.0093 0.0019,1.03e-4 0.004,3.12e-4 0.0061,4.33e-4 0.650643,0.05391 1.330009,0.172546 2.032792,0.366325 0.150379,-0.49891 0.275678,-1.016968 0.365803,-1.558234 0.09793,-0.672914 0.129359,-1.295146 0.124988,-1.838805 -1.664073,-0.412365 -3.219704,-0.493071 -4.637965,-0.365555 -0.530338,0.03535 -1.061092,0.102153 -1.588933,0.200813 -0.07597,0.679053 -0.07649,1.323036 -0.0093,1.877309 z"
       fill="url(#paint24_linear_102_141)"
       id="path887" />
  </g>
</svg>
