<?xml version="1.0" encoding="UTF-8" standalone="no"?>
<svg
   width="127.99983"
   height="128"
   viewBox="0 0 127.99983 128"
   fill="none"
   version="1.1"
   id="svg10584"
   sodipodi:docname="avax.svg"
   xmlns:inkscape="http://www.inkscape.org/namespaces/inkscape"
   xmlns:sodipodi="http://sodipodi.sourceforge.net/DTD/sodipodi-0.dtd"
   xmlns="http://www.w3.org/2000/svg"
   xmlns:svg="http://www.w3.org/2000/svg">
  <defs
     id="defs10588" />
  <sodipodi:namedview
     id="namedview10586"
     pagecolor="#ffffff"
     bordercolor="#000000"
     borderopacity="0.25"
     inkscape:showpageshadow="2"
     inkscape:pageopacity="0.0"
     inkscape:pagecheckerboard="0"
     inkscape:deskcolor="#d1d1d1"
     showgrid="false" />
  <rect
     x="24.415361"
     y="21.901464"
     width="79.083893"
     height="71.92543"
     fill="#ffffff"
     id="rect10580"
     style="stroke-width:0.0852197" />
  <path
     fill-rule="evenodd"
     clip-rule="evenodd"
     d="m 127.99992,64 c 0,35.34658 -28.653425,64 -64.000004,64 C 28.653679,128 -8.392334e-5,99.34658 -8.392334e-5,64 -8.392334e-5,28.653763 28.653679,0 63.999916,0 99.346495,0 127.99992,28.653763 127.99992,64 Z M 45.86414,89.468761 H 33.443538 c -2.609939,0 -3.899143,0 -4.685209,-0.502795 -0.849044,-0.550522 -1.367862,-1.462374 -1.430754,-2.468818 -0.04721,-0.927192 0.597475,-2.059588 1.88668,-4.32362 L 59.88227,28.116964 c 1.30497,-2.295478 1.965252,-3.443217 2.79853,-3.867696 0.896171,-0.455926 1.965337,-0.455926 2.861508,0 0.833277,0.424479 1.493645,1.572218 2.79853,3.867696 l 6.304724,11.005614 0.03213,0.05616 c 1.409449,2.462594 2.124186,3.711403 2.43626,5.022082 0.345822,1.430754 0.345822,2.94008 0,4.370834 -0.31446,1.320649 -1.021954,2.578493 -2.452708,5.078328 l -16.109166,28.47642 -0.04167,0.07295 c -1.418737,2.482876 -2.137736,3.741319 -3.13421,4.690662 -1.084847,1.037977 -2.389817,1.79217 -3.82057,2.217419 -1.304969,0.36133 -2.767084,0.36133 -5.691483,0.36133 z m 31.366135,0 h 17.797288 c 2.625615,0 3.946523,0 4.733103,-0.518136 0.848784,-0.550522 1.383114,-1.478558 1.430834,-2.484158 0.0452,-0.897363 -0.58545,-1.985615 -1.821142,-4.118067 -0.04261,-0.07261 -0.08522,-0.146493 -0.128682,-0.221657 L 90.326837,66.876165 90.225428,66.704448 C 88.9727,64.586056 88.34037,63.516293 87.528223,63.102807 c -0.895659,-0.45601 -1.949829,-0.45601 -2.845569,0 -0.817598,0.424479 -1.47788,1.540772 -2.782849,3.789038 l -8.883132,15.250664 -0.03042,0.05249 c -1.300367,2.244687 -1.950253,3.366438 -1.903382,4.286804 0.06289,1.006443 0.581709,1.933636 1.430668,2.484158 0.770472,0.502795 2.091122,0.502795 4.71674,0.502795 z"
     fill="#e84142"
     id="path10582"
     style="stroke-width:0.0852197" />
</svg>
