<?xml version="1.0" encoding="UTF-8" standalone="no"?>
<svg
   class="grow"
   viewBox="0 0 128 128"
   version="1.1"
   id="svg926"
   sodipodi:docname="axelar.svg"
   width="128"
   height="128"
   inkscape:export-filename="Networks\Tokens\axl.svg"
   inkscape:export-xdpi="96"
   inkscape:export-ydpi="96"
   xmlns:inkscape="http://www.inkscape.org/namespaces/inkscape"
   xmlns:sodipodi="http://sodipodi.sourceforge.net/DTD/sodipodi-0.dtd"
   xmlns="http://www.w3.org/2000/svg"
   xmlns:svg="http://www.w3.org/2000/svg">
  <sodipodi:namedview
     id="namedview928"
     pagecolor="#ffffff"
     bordercolor="#000000"
     borderopacity="0.25"
     inkscape:showpageshadow="2"
     inkscape:pageopacity="0.0"
     inkscape:pagecheckerboard="0"
     inkscape:deskcolor="#d1d1d1"
     showgrid="false" />
  <defs
     id="defs902">
    <clipPath
       id="a">
      <path
         d="M 1920,0 V 11288 H 0 V 0 Z"
         id="path884" />
    </clipPath>
    <clipPath
       id="b">
      <path
         d="m 50,0 c 27.614,0 50,22.386 50,50 0,27.614 -22.386,50 -50,50 C 22.386,100 0,77.614 0,50 0,22.386 22.386,0 50,0 Z"
         id="path887" />
    </clipPath>
    <clipPath
       id="c">
      <path
         d="m 39.029,0 7.403,7.363 -19.514,19.405 a 5.256,5.256 0 0 1 -3.705,1.524 5.235,5.235 0 0 1 -3.7,-1.524 L 0,7.363 7.403,0 23.216,15.726 Z"
         id="path890" />
    </clipPath>
    <clipPath
       id="d">
      <path
         d="m 21.047,0 7.402,7.363 -15.813,15.727 15.81,15.724 -7.4,7.36 L 1.535,26.769 a 5.186,5.186 0 0 1 0,-7.363 z"
         id="path893" />
    </clipPath>
    <clipPath
       id="e">
      <path
         d="m 19.513,1.524 a 5.257,5.257 0 0 1 7.403,0 L 46.429,20.929 39.026,28.292 23.214,12.566 7.403,28.292 0,20.93 Z"
         id="path896" />
    </clipPath>
    <clipPath
       id="f">
      <path
         d="m 7.403,0 19.513,19.405 a 5.181,5.181 0 0 1 0,7.363 L 7.403,46.178 0,38.817 15.813,23.09 0,7.363 Z"
         id="path899" />
    </clipPath>
  </defs>
  <g
     clip-path="url(#a)"
     transform="matrix(1.28,0,0,1.28,-1850.88,-10205.44)"
     id="g924">
    <g
       clip-path="url(#b)"
       transform="translate(1446,7973)"
       id="g906"
       style="fill:#ffffff;fill-opacity:1">
      <path
         d="M 0,0 H 100 V 100 H 0 Z"
         id="path904"
         style="fill:#ffffff;fill-opacity:1" />
    </g>
    <g
       clip-path="url(#c)"
       transform="translate(1472.797,7991.213)"
       id="g910"
       style="fill:#000000;fill-opacity:1">
      <path
         fill="#ffffff"
         d="M 0,0 H 46.432 V 28.292 H 0 Z"
         id="path908"
         style="fill:#000000;fill-opacity:1" />
    </g>
    <g
       clip-path="url(#d)"
       transform="translate(1499.514,7999.895)"
       id="g914"
       style="fill:#000000;fill-opacity:1">
      <path
         fill="#ffffff"
         d="M 0,0 H 28.45 V 46.174 H 0 Z"
         id="path912"
         style="fill:#000000;fill-opacity:1" />
    </g>
    <g
       clip-path="url(#e)"
       transform="translate(1472.774,8026.497)"
       id="g918"
       style="fill:#000000;fill-opacity:1">
      <path
         fill="#ffffff"
         d="M 0,0 H 46.429 V 28.292 H 0 Z"
         id="path916"
         style="fill:#000000;fill-opacity:1" />
    </g>
    <g
       clip-path="url(#f)"
       transform="translate(1464.037,7999.926)"
       id="g922"
       style="fill:#000000;fill-opacity:1">
      <path
         fill="#ffffff"
         d="M 0,0 H 28.45 V 46.179 H 0 Z"
         id="path920"
         style="fill:#000000;fill-opacity:1" />
    </g>
  </g>
</svg>
