<?xml version="1.0" encoding="UTF-8" standalone="no"?>
<!-- Created with Inkscape (http://www.inkscape.org/) -->

<svg
   width="127.99999"
   height="128"
   viewBox="0 0 33.866664 33.866667"
   version="1.1"
   id="svg4195"
   inkscape:export-filename="one.svg"
   inkscape:export-xdpi="96"
   inkscape:export-ydpi="96"
   xmlns:inkscape="http://www.inkscape.org/namespaces/inkscape"
   xmlns:sodipodi="http://sodipodi.sourceforge.net/DTD/sodipodi-0.dtd"
   xmlns="http://www.w3.org/2000/svg"
   xmlns:svg="http://www.w3.org/2000/svg">
  <sodipodi:namedview
     id="namedview4197"
     pagecolor="#ffffff"
     bordercolor="#000000"
     borderopacity="0.25"
     inkscape:showpageshadow="2"
     inkscape:pageopacity="0.0"
     inkscape:pagecheckerboard="0"
     inkscape:deskcolor="#d1d1d1"
     inkscape:document-units="mm"
     showgrid="false" />
  <defs
     id="defs4192" />
  <g
     inkscape:label="Layer 1"
     inkscape:groupmode="layer"
     id="layer1"
     transform="scale(0.71111111)">
    <circle
       style="fill:#000000;fill-opacity:1;stroke-width:0;stroke-linejoin:bevel;stroke-opacity:0.684597"
       id="path4316"
       cx="23.8125"
       cy="23.8125"
       r="23.8125" />
    <g
       id="g5937"
       transform="matrix(0.04424378,0,0,0.04424378,12.948698,6.0465741)">
	<g
   id="g5935">
		<g
   id="g5901">
			<g
   id="g5899">
				<g
   id="g5897">
					<path
   class="st0"
   d="m 114.1,555.7 c -14.7,0 -27.2,-10.5 -29.7,-25.1 L 0.4,37.2 C -0.9,29.3 0.9,21.3 5.5,14.7 10.1,8.1 17.1,3.8 25.1,2.5 c 16.4,-2.7 32,8.3 34.8,24.7 l 83.9,493.4 c 1.3,7.9 -0.5,15.9 -5.1,22.5 -4.7,6.6 -11.6,10.9 -19.5,12.3 -1.7,0.2 -3.4,0.3 -5.1,0.3 z"
   id="path5895"
   style="fill:#cbff00" />

				</g>

			</g>

		</g>

		<path
   class="st0"
   d="m 254.7,328.2 c -48,0 -92.6,14.4 -129.9,39 L 135,426.9 C 167.1,399 209,382 254.7,382 c 100.7,0 182.6,81.9 182.6,182.6 0,100.7 -81.9,182.6 -182.6,182.6 -100.7,0 -182.6,-81.9 -182.6,-182.6 0,-13.4 1.5,-26.5 4.3,-39.1 L 60.2,430.4 c -26.4,38.1 -41.9,84.4 -41.9,134.2 0,130.3 106,236.4 236.4,236.4 130.4,0 236.4,-106.1 236.4,-236.4 0,-130.3 -106,-236.4 -236.4,-236.4 z"
   id="path5903"
   style="fill:#cbff00" />

		<g
   id="g5933">
			<g
   id="g5907">
				<circle
   class="st1"
   cx="241.8"
   cy="670.29999"
   r="32.200001"
   id="circle5905"
   style="fill:#1cd7d1" />

			</g>

			<g
   id="g5911">
				<circle
   class="st1"
   cx="342.39999"
   cy="632.79999"
   r="32.200001"
   id="circle5909"
   style="fill:#1cd7d1" />

			</g>

			<g
   id="g5915">
				<circle
   class="st1"
   cx="263.29999"
   cy="563.79999"
   r="32.200001"
   id="circle5913"
   style="fill:#1cd7d1" />

			</g>

			<g
   id="g5919">
				<circle
   class="st1"
   cx="163.3"
   cy="596.70001"
   r="32.200001"
   id="circle5917"
   style="fill:#1cd7d1" />

			</g>

			<g
   id="g5923">
				<circle
   class="st1"
   cx="362.89999"
   cy="530.79999"
   r="32.200001"
   id="circle5921"
   style="fill:#1cd7d1" />

			</g>

			<g
   id="g5927">
				<circle
   class="st1"
   cx="284.79999"
   cy="457.29999"
   r="32.200001"
   id="circle5925"
   style="fill:#1cd7d1" />

			</g>

			<g
   id="g5931">
				<circle
   class="st1"
   cx="183.89999"
   cy="494.70001"
   r="32.200001"
   id="circle5929"
   style="fill:#1cd7d1" />

			</g>

		</g>

	</g>

</g>
  </g>
</svg>
