<?xml version="1.0" encoding="UTF-8" standalone="no"?>
<!-- Created with Inkscape (http://www.inkscape.org/) -->

<svg
   width="127.99999"
   height="127.99999"
   viewBox="0 0 33.866664 33.866664"
   version="1.1"
   id="svg577"
   inkscape:export-filename="..\Mainnet_128x128\chains\assetmantle.svg"
   inkscape:export-xdpi="96"
   inkscape:export-ydpi="96"
   sodipodi:docname="cly.svg"
   xml:space="preserve"
   inkscape:version="1.2.2 (732a01da63, 2022-12-09)"
   xmlns:inkscape="http://www.inkscape.org/namespaces/inkscape"
   xmlns:sodipodi="http://sodipodi.sourceforge.net/DTD/sodipodi-0.dtd"
   xmlns:xlink="http://www.w3.org/1999/xlink"
   xmlns="http://www.w3.org/2000/svg"
   xmlns:svg="http://www.w3.org/2000/svg"><sodipodi:namedview
     id="namedview579"
     pagecolor="#ffffff"
     bordercolor="#000000"
     borderopacity="0.25"
     inkscape:showpageshadow="2"
     inkscape:pageopacity="0.0"
     inkscape:pagecheckerboard="0"
     inkscape:deskcolor="#d1d1d1"
     inkscape:document-units="mm"
     showgrid="false"
     inkscape:zoom="6.2968754"
     inkscape:cx="52.645158"
     inkscape:cy="66.38213"
     inkscape:window-width="1920"
     inkscape:window-height="1009"
     inkscape:window-x="-8"
     inkscape:window-y="-8"
     inkscape:window-maximized="1"
     inkscape:current-layer="layer1" /><defs
     id="defs574"><linearGradient
       inkscape:collect="always"
       id="linearGradient8130"><stop
         style="stop-color:#01070f;stop-opacity:1;"
         offset="0"
         id="stop8126" /><stop
         style="stop-color:#022140;stop-opacity:1;"
         offset="1"
         id="stop8128" /></linearGradient><linearGradient
       inkscape:collect="always"
       xlink:href="#linearGradient8130"
       id="linearGradient8132"
       x1="16.849297"
       y1="33.950703"
       x2="16.891314"
       y2="-0.084036268"
       gradientUnits="userSpaceOnUse" /></defs><g
     inkscape:label="Layer 1"
     inkscape:groupmode="layer"
     id="layer1"><circle
       style="display:inline;fill:url(#linearGradient8132);fill-opacity:1;stroke:none;stroke-width:0;stroke-linecap:butt;stroke-linejoin:bevel;stroke-dasharray:none;stroke-opacity:1;paint-order:fill markers stroke"
       id="path800"
       cx="16.933332"
       cy="16.933332"
       r="16.933332" /><g
       transform="matrix(0.00922543,0,0,-0.00922543,6.3456214,27.028593)"
       fill="#ff0000"
       stroke="none"
       id="g7974"><path
         d="m 593,2179 c -17,-5 -41,-21 -52,-35 -19,-24 -21,-40 -21,-180 v -154 h 105 104 l 3,83 3,82 578,3 c 354,1 577,-1 577,-7 0,-5 -57,-59 -126,-120 L 1637,1740 H 866 C -5,1740 38,1744 12,1666 -7,1606 -1,84 19,54 53,3 20,5 868,2 c 510,-2 806,1 830,7 48,13 571,466 589,510 17,41 6,87 -29,116 l -30,25 H 1479 730 v 395 395 H 625 520 V 985 520 l 29,-32 29,-33 660,-5 659,-5 L 1763,327 1630,210 H 925 220 v 660 660 h 750 749 l 38,33 c 151,129 510,446 519,458 33,42 21,115 -24,146 -25,17 -72,18 -827,20 -472,1 -813,-2 -832,-8 z"
         id="path7972" /></g></g></svg>
