<?xml version="1.0" encoding="UTF-8" standalone="no"?>
<svg
   id="Layer_1"
   data-name="Layer 1"
   viewBox="0 0 128 128"
   version="1.1"
   sodipodi:docname="Cosmos.svg"
   width="128"
   height="128"
   xmlns:inkscape="http://www.inkscape.org/namespaces/inkscape"
   xmlns:sodipodi="http://sodipodi.sourceforge.net/DTD/sodipodi-0.dtd"
   xmlns="http://www.w3.org/2000/svg"
   xmlns:svg="http://www.w3.org/2000/svg"
   xmlns:rdf="http://www.w3.org/1999/02/22-rdf-syntax-ns#"
   xmlns:cc="http://creativecommons.org/ns#"
   xmlns:dc="http://purl.org/dc/elements/1.1/">
  <defs
     id="defs25" />
  <sodipodi:namedview
     id="namedview23"
     pagecolor="#ffffff"
     bordercolor="#000000"
     borderopacity="0.25"
     inkscape:showpageshadow="2"
     inkscape:pageopacity="0.0"
     inkscape:pagecheckerboard="0"
     inkscape:deskcolor="#d1d1d1"
     showgrid="false" />
  <title
     id="title2">cosmos-atom-logo</title>
  <circle
     cx="64"
     cy="64"
     r="64"
     style="fill:#2e3148;stroke-width:0.0512"
     id="circle4" />
  <circle
     cx="64"
     cy="64"
     r="37.135872"
     style="fill:#1b1e36;stroke-width:0.0512"
     id="circle6" />
  <path
     d="m 64.131584,8.164864 c -6.908416,0 -12.510208,25.05728 -12.510208,55.967232 0,30.909952 5.601792,55.967234 12.510208,55.967234 6.908416,0 12.510208,-25.057282 12.510208,-55.967234 C 76.641792,33.222144 71.04,8.164864 64.131584,8.164864 Z M 64.995328,116.9408 c -0.790016,1.0537 -1.580032,0.26317 -1.580032,0.26317 -3.181568,-3.6864 -4.772352,-10.53491 -4.772352,-10.53491 C 53.078016,88.759808 54.40256,50.307072 54.40256,50.307072 57.017856,19.779584 61.77536,12.568064 63.394304,10.96704 a 0.987648,0.987648 0 0 1 1.266688,-0.1024 c 2.349056,1.664512 4.319232,8.625664 4.319232,8.625664 5.817856,21.596672 5.291008,41.87648 5.291008,41.87648 0.526848,17.64608 -2.915328,37.39904 -2.915328,37.39904 -2.6496,15.011836 -6.360576,18.174976 -6.360576,18.174976 z"
     style="fill:#6f7390;stroke-width:0.0512"
     id="path8" />
  <path
     d="M 112.67686,36.279808 C 109.23725,30.285312 84.717056,37.896704 57.892864,53.278208 31.068672,68.659712 12.1472,85.989376 15.584256,91.981312 c 3.437056,5.991936 27.959808,-1.616896 54.784,-16.9984 C 97.192448,59.601408 116.11392,42.271744 112.67686,36.279808 Z M 18.757632,91.15904 C 17.440768,90.993152 17.73824,89.910784 17.73824,89.910784 19.3536,85.317632 24.49408,80.529408 24.49408,80.529408 37.264896,66.789376 71.280128,48.803328 71.280128,48.803328 99.058176,35.879424 107.6864,36.424704 109.8752,37.027328 a 0.987648,0.987648 0 0 1 0.7168,1.053696 c -0.26317,2.8672 -5.3335,8.0384 -5.3335,8.0384 C 89.431552,61.919232 71.5776,71.556096 71.5776,71.556096 56.533504,80.797696 37.686784,87.637504 37.686784,87.637504 23.346176,92.80512 18.758144,91.15904 18.758144,91.15904 v 0 z"
     style="fill:#6f7390;stroke-width:0.0512"
     id="path10" />
  <path
     d="M 112.55552,92.180992 C 116.02176,86.202368 97.147904,68.793344 70.41792,53.296128 43.687936,37.798912 19.170816,30.093312 15.707648,36.082176 12.24448,42.07104 31.115264,59.469824 57.860608,74.96704 84.605952,90.464256 109.09235,98.170368 112.55552,92.180992 Z M 18.00448,38.39232 c -0.512,-1.213952 0.568832,-1.506304 0.568832,-1.506304 C 23.358464,35.982336 30.08,38.0416 30.08,38.0416 c 18.28608,4.164096 50.8928,24.5888 50.8928,24.5888 25.1049,17.567232 28.95514,25.305088 29.53216,27.501568 a 0.987648,0.987648 0 0 1 -0.54784,1.148416 C 107.33926,92.478976 100.32794,90.69312 100.32794,90.69312 78.717952,84.898816 61.435392,74.282496 61.435392,74.282496 45.906944,65.9072 30.552064,53.02016 30.552064,53.02016 18.884608,43.196416 18.008064,38.405632 18.008064,38.405632 Z"
     style="fill:#6f7390;stroke-width:0.0512"
     id="path12" />
  <circle
     cx="64"
     cy="64"
     r="6.5843205"
     style="fill:#b7b9c8;stroke-width:0.0512"
     id="circle14" />
  <ellipse
     cx="90.995712"
     cy="38.715904"
     rx="3.8190079"
     ry="3.9505923"
     style="fill:#b7b9c8;stroke-width:0.0512"
     id="ellipse16" />
  <ellipse
     cx="28.312574"
     cy="52.148224"
     rx="3.8190079"
     ry="3.9505923"
     style="fill:#b7b9c8;stroke-width:0.0512"
     id="ellipse18" />
  <ellipse
     cx="56.2304"
     cy="100.60902"
     rx="3.8190079"
     ry="3.9505923"
     style="fill:#b7b9c8;stroke-width:0.0512"
     id="ellipse20" />
  <metadata
     id="metadata27">
    <rdf:RDF>
      <cc:Work
         rdf:about="">
        <dc:title>cosmos-atom-logo</dc:title>
      </cc:Work>
    </rdf:RDF>
  </metadata>
</svg>
