<?xml version="1.0" encoding="UTF-8" standalone="no"?>
<!-- Created with Inkscape (http://www.inkscape.org/) -->

<svg
   width="127.99999"
   height="127.99999"
   viewBox="0 0 33.866664 33.866664"
   version="1.1"
   id="svg577"
   inkscape:export-filename="..\Mainnet_128x128\chains\crescent.png"
   inkscape:export-xdpi="96"
   inkscape:export-ydpi="96"
   sodipodi:docname="cly.svg"
   xml:space="preserve"
   inkscape:version="1.2.2 (732a01da63, 2022-12-09)"
   xmlns:inkscape="http://www.inkscape.org/namespaces/inkscape"
   xmlns:sodipodi="http://sodipodi.sourceforge.net/DTD/sodipodi-0.dtd"
   xmlns="http://www.w3.org/2000/svg"
   xmlns:svg="http://www.w3.org/2000/svg"><sodipodi:namedview
     id="namedview579"
     pagecolor="#ffffff"
     bordercolor="#000000"
     borderopacity="0.25"
     inkscape:showpageshadow="2"
     inkscape:pageopacity="0.0"
     inkscape:pagecheckerboard="0"
     inkscape:deskcolor="#d1d1d1"
     inkscape:document-units="mm"
     showgrid="false"
     inkscape:zoom="6.2968754"
     inkscape:cx="52.645158"
     inkscape:cy="66.38213"
     inkscape:window-width="1920"
     inkscape:window-height="1009"
     inkscape:window-x="-8"
     inkscape:window-y="-8"
     inkscape:window-maximized="1"
     inkscape:current-layer="layer1" /><defs
     id="defs574"><linearGradient
       id="paint0_linear_2360_219888"
       x1="152.44701"
       y1="205.957"
       x2="152.44701"
       y2="36.054699"
       gradientUnits="userSpaceOnUse"
       gradientTransform="matrix(0.14055987,0,0,0.14055987,-0.07027948,-0.05821774)"><stop
         stop-color="#FFC780"
         id="stop9910" /><stop
         offset="1"
         stop-color="#964B48"
         id="stop9912" /></linearGradient></defs><g
     inkscape:label="Layer 1"
     inkscape:groupmode="layer"
     id="layer1"><circle
       style="display:inline;fill:#ffffff;fill-opacity:1;stroke:none;stroke-width:0;stroke-linecap:butt;stroke-linejoin:bevel;stroke-dasharray:none;stroke-opacity:1;paint-order:fill markers stroke"
       id="path800"
       cx="16.933332"
       cy="16.933332"
       r="16.933332" /><path
       fill-rule="evenodd"
       clip-rule="evenodd"
       d="m 16.935636,0.06614989 c 2.906919,-0.002232 5.765343,0.7404499 8.300481,2.15652551 2.535136,1.4160702 4.661387,3.4578989 6.17423,5.928955 v 0 c -2.339054,0 -4.582248,0.9250389 -6.236217,2.5716256 -1.654109,1.646576 -2.583211,3.879761 -2.583211,6.208417 0,2.328654 0.929102,4.561871 2.583211,6.208528 1.653969,1.64652 3.897163,2.571542 6.236217,2.571542 -1.538847,2.513492 -3.711622,4.582393 -6.302421,6.000923 -2.5908,1.418529 -5.509385,2.137354 -8.465638,2.085205 C 13.685919,33.745589 10.7948,32.924151 8.2562046,31.414959 5.7176096,29.905769 3.6199366,27.761388 2.1716495,25.195187 0.72336324,22.628844 -0.02509893,19.729939 6.4223507e-4,16.786475 0.02638662,13.84301 0.82543552,10.957499 2.3183807,8.4167124 3.811337,5.8759244 5.9462022,3.7683282 8.5108011,2.3033713 11.075415,0.83842488 13.980462,0.06713273 16.937321,0.06614989 Z"
       fill="#ffc780"
       id="path9906"
       style="stroke-width:0.140558" /><path
       fill-rule="evenodd"
       clip-rule="evenodd"
       d="m 31.410347,8.1515321 c -2.339054,0 -4.58239,0.9250387 -6.236358,2.5716249 -1.653968,1.646576 -2.58307,3.87986 -2.58307,6.208376 0,2.328654 0.929102,4.561869 2.58307,6.208527 1.653968,1.646518 3.897304,2.571543 6.236358,2.571543 l -0.05564,0.08321 c -1.722839,1.554452 -3.862441,2.576885 -6.158345,2.942903 -2.296046,0.365872 -4.6493,0.05947 -6.77344,-0.881876 -2.124282,-0.941331 -3.927803,-2.477087 -5.191198,-4.420466 -1.26338,-1.943241 -1.932109,-4.21019 -1.924813,-6.525071 0.0073,-2.314739 0.690333,-4.577457 1.965954,-6.512799 1.275666,-1.9353256 3.088889,-3.4598096 5.218931,-4.3878701 2.130185,-0.9280747 4.485264,-1.2197085 6.778921,-0.8394376 2.293516,0.3802849 4.426652,1.4160845 6.139653,2.9813308 z"
       fill="url(#paint0_linear_2360_219888)"
       id="path9908"
       style="fill:url(#paint0_linear_2360_219888);stroke-width:0.140558" /></g></svg>
