<?xml version="1.0" encoding="UTF-8" standalone="no"?>
<svg
   width="128"
   height="128"
   viewBox="0 0 128 128"
   fill="none"
   version="1.1"
   id="svg11132"
   sodipodi:docname="e-money.logo.svg"
   inkscape:export-filename="..\Mainnet_128x128\chains\e-money.png"
   inkscape:export-xdpi="96"
   inkscape:export-ydpi="96"
   xmlns:inkscape="http://www.inkscape.org/namespaces/inkscape"
   xmlns:sodipodi="http://sodipodi.sourceforge.net/DTD/sodipodi-0.dtd"
   xmlns="http://www.w3.org/2000/svg"
   xmlns:svg="http://www.w3.org/2000/svg">
  <defs
     id="defs11136" />
  <sodipodi:namedview
     id="namedview11134"
     pagecolor="#ffffff"
     bordercolor="#000000"
     borderopacity="0.25"
     inkscape:showpageshadow="2"
     inkscape:pageopacity="0.0"
     inkscape:pagecheckerboard="0"
     inkscape:deskcolor="#d1d1d1"
     showgrid="false" />
  <rect
     width="128"
     height="128"
     rx="64"
     fill="#003034"
     id="rect11124"
     x="0"
     y="0"
     style="stroke-width:4.26667" />
  <path
     d="m 64.059307,29.404331 c 0,3.328768 0.356693,3.685418 3.9232,3.685418 5.230933,0 15.455146,5.230976 19.378346,9.867478 4.279894,5.11232 7.608747,12.482986 7.608747,17.119573 0,3.566507 0.356693,3.9232 3.685547,3.9232 h 3.685543 l -0.83242,-5.587627 C 99.130453,42.125056 85.577813,28.572117 69.40928,26.313301 L 64.059307,25.6 Z"
     fill="#cdf6ed"
     id="path11126"
     style="stroke-width:4.26667" />
  <path
     d="m 56.5696,51.874133 c -1.783467,1.069654 -3.923627,3.447467 -4.755627,5.230934 -0.95104,2.258773 -2.258773,3.328426 -4.04224,3.328426 -1.90208,0 -2.73408,0.713387 -2.73408,2.377814 0,1.545813 0.832,2.377813 2.258774,2.377813 1.426346,0 3.090773,1.664427 4.517546,4.398933 4.04224,8.440747 15.098454,10.937174 21.993814,5.111894 2.615466,-2.258774 2.615466,-2.377814 0.475733,-4.160854 -1.902507,-1.426773 -2.496853,-1.426773 -4.755627,0 -1.307733,0.95104 -3.566506,1.78304 -4.87424,1.78304 -3.209813,0 -7.727786,-3.209813 -7.727786,-5.468586 0,-1.307734 2.377813,-1.664427 12.482986,-1.664427 6.89536,0 12.482987,-0.237653 12.482987,-0.475733 0,-0.237654 0.356693,-1.307734 0.713387,-2.377387 0.594346,-1.426773 0,-1.902507 -2.02112,-1.902507 -2.020694,0 -3.328427,-1.069653 -4.398507,-3.566506 -2.97216,-6.65728 -12.83968,-9.154134 -19.616,-4.992854 z m 12.6016,5.230934 2.615467,2.73408 -7.013974,0.356693 c -8.203093,0.475733 -9.392213,-0.356693 -5.587626,-3.447467 3.68512,-2.97216 6.65728,-2.853546 9.986133,0.356694 z"
     fill="#cdf6ed"
     id="path11128"
     style="stroke-width:4.26667" />
  <path
     d="m 26.372693,69.349973 c 2.258816,16.049494 16.287318,30.077867 32.33664,32.336637 L 64.059307,102.4 v -3.80416 c 0,-3.328853 -0.356694,-3.685547 -3.80416,-3.685547 -4.755627,0 -12.126294,-3.328853 -17.238614,-7.608746 C 38.380117,83.378347 33.149141,73.154133 33.149141,67.9232 33.149141,64.356693 32.792491,64 29.463723,64 h -3.804331 z"
     fill="#cdf6ed"
     id="path11130"
     style="stroke-width:4.26667" />
</svg>
