<?xml version="1.0" encoding="UTF-8" standalone="no"?>
<svg
   width="156"
   height="156"
   viewBox="0 0 156 156"
   fill="none"
   version="1.1"
   id="svg12443"
   sodipodi:docname="Evmos_Token_Orange_RGB (1).svg"
   inkscape:export-filename="..\EvmosOrange.png"
   inkscape:export-xdpi="78.769234"
   inkscape:export-ydpi="78.769234"
   xmlns:inkscape="http://www.inkscape.org/namespaces/inkscape"
   xmlns:sodipodi="http://sodipodi.sourceforge.net/DTD/sodipodi-0.dtd"
   xmlns="http://www.w3.org/2000/svg"
   xmlns:svg="http://www.w3.org/2000/svg">
  <defs
     id="defs12447" />
  <sodipodi:namedview
     id="namedview12445"
     pagecolor="#ffffff"
     bordercolor="#000000"
     borderopacity="0.25"
     inkscape:showpageshadow="2"
     inkscape:pageopacity="0.0"
     inkscape:pagecheckerboard="0"
     inkscape:deskcolor="#d1d1d1"
     showgrid="false" />
  <circle
     cx="78"
     cy="78"
     r="78"
     fill="#ed4e33"
     id="circle12439"
     style="stroke-width:1.00553" />
  <path
     d="M 63.5871,41.5434 C 42.4254,49.6802 40.4869,70.5184 34.419,80.2503 28.2792,90.0978 14.2132,95.5313 16.1367,100.55 c 1.9234,5.018 16.0062,-0.372 27.1477,2.83 11.0095,3.164 26.3706,17.352 47.5323,9.215 10.7803,-4.145 18.5863,-12.6765 22.1763,-22.7817 0.386,-1.0847 -0.336,-2.2447 -1.481,-2.3519 -0.712,-0.0669 -1.395,0.3064 -1.716,0.9458 -3.247,6.4779 -8.817,11.8128 -16.1066,14.6148 -12.0339,4.627 -25.2008,0.994 -33.2875,-8.1168 -1.8366,-2.0689 -3.4075,-4.4241 -4.6475,-7.027 -0.3409,-0.7164 -0.6651,-1.4445 -0.9525,-2.1978 -0.2891,-0.7532 -0.5348,-1.5115 -0.7604,-2.2731 6.3604,-2.9695 13.7,-6.1147 22.0207,-9.3135 8.1585,-3.1369 15.5834,-5.6812 22.1944,-7.7166 4.4724,-1.376 8.5714,-2.5209 12.2724,-3.4566 0.268,-0.067 0.532,-0.1339 0.794,-0.1992 0.56,-0.1389 1.135,0.1607 1.342,0.6997 l 0.004,0.01 c 0.122,0.3197 0.227,0.6411 0.34,0.9625 0.732,2.074 1.281,4.1697 1.643,6.2704 0.159,0.919 1.162,1.4195 1.984,0.9776 3.038,-1.6338 5.817,-3.2273 8.3,-4.7606 9.254,-5.7079 14.384,-10.5488 13.331,-13.2923 -1.051,-2.7452 -8.097,-2.9025 -18.787,-0.9441 -3.397,0.6227 -7.164,1.4596 -11.223,2.4958 -0.702,0.1791 -1.412,0.3649 -2.131,0.5557 -3.416,0.9073 -7.0188,1.9467 -10.7705,3.1101 -6.977,2.1643 -14.4621,4.7572 -22.1894,7.7283 -7.2294,2.7803 -14.0811,5.6628 -20.3646,8.5352 -0.0768,-12.1909 7.2812,-23.7157 19.3151,-28.3423 7.2879,-2.8021 14.9918,-2.5727 21.7332,0.067 0.6651,0.2611 1.4222,0.0803 1.9085,-0.4469 C 96.537,45.5021 96.298,44.1563 95.287,43.6073 85.8684,38.507 74.3676,37.3989 63.5871,41.5434 Z"
     fill="#ffffff"
     id="path12441" />
</svg>
