<?xml version="1.0" encoding="UTF-8" standalone="no"?>
<svg
   width="128"
   height="128"
   viewBox="0 0 128 128"
   fill="none"
   version="1.1"
   id="svg12443"
   sodipodi:docname="evmos.svg"
   inkscape:export-filename="evmos.png"
   inkscape:export-xdpi="96"
   inkscape:export-ydpi="96"
   xmlns:inkscape="http://www.inkscape.org/namespaces/inkscape"
   xmlns:sodipodi="http://sodipodi.sourceforge.net/DTD/sodipodi-0.dtd"
   xmlns="http://www.w3.org/2000/svg"
   xmlns:svg="http://www.w3.org/2000/svg">
  <defs
     id="defs12447" />
  <sodipodi:namedview
     id="namedview12445"
     pagecolor="#ffffff"
     bordercolor="#000000"
     borderopacity="0.25"
     inkscape:showpageshadow="2"
     inkscape:pageopacity="0.0"
     inkscape:pagecheckerboard="0"
     inkscape:deskcolor="#d1d1d1"
     showgrid="false" />
  <circle
     cx="64"
     cy="64"
     r="64"
     fill="#ed4e33"
     id="circle12439"
     style="stroke-width:0.82505" />
  <path
     d="m 52.174031,34.086892 c -17.363446,6.676349 -18.95401,23.774359 -23.9328,31.759508 -5.037785,8.08 -16.579118,12.538256 -15.000862,16.656164 1.578175,4.117333 13.133293,-0.305231 22.275036,2.322051 9.033436,2.596103 21.637416,14.237539 39.000862,7.561026 8.845374,-3.401026 15.250297,-10.401231 18.195938,-18.692677 0.316718,-0.89001 -0.275692,-1.841805 -1.215179,-1.929764 -0.584205,-0.05489 -1.144616,0.251405 -1.408,0.776041 -2.664205,5.3152 -7.234462,9.692554 -13.215672,11.991631 -9.873969,3.796513 -20.67758,0.81559 -27.312821,-6.659939 -1.506954,-1.697559 -2.795897,-3.63003 -3.813333,-5.765743 -0.279713,-0.587816 -0.545723,-1.185231 -0.781538,-1.803323 -0.237211,-0.618011 -0.438811,-1.240205 -0.623918,-1.865108 5.218789,-2.436513 11.241025,-5.01719 18.068266,-7.641846 6.694154,-2.573867 12.78638,-4.661498 18.21079,-6.331569 3.669662,-1.129026 7.032944,-2.068431 10.069662,-2.836185 0.219897,-0.05497 0.436512,-0.109867 0.651487,-0.163446 0.459487,-0.113969 0.931282,0.131856 1.101128,0.574113 l 0.0033,0.0082 c 0.100103,0.262318 0.186256,0.526031 0.278974,0.789743 0.600616,1.701744 1.051077,3.421293 1.348103,5.144944 0.130461,0.754051 0.953436,1.164718 1.627897,0.802133 2.492718,-1.340554 4.772929,-2.648041 6.810259,-3.906133 7.59303,-4.683405 11.80226,-8.655426 10.93826,-10.906503 -0.86236,-2.252471 -6.6437,-2.381538 -15.41498,-0.774646 -2.787282,0.510934 -5.878154,1.197621 -9.208616,2.047836 -0.576,0.146954 -1.158564,0.299405 -1.748512,0.455959 -2.802872,0.744451 -5.759016,1.597292 -8.837334,2.551877 -5.724718,1.775836 -11.866338,3.903344 -18.206687,6.341169 -5.931815,2.281272 -11.553723,4.6464 -16.709415,7.003241 -0.06302,-10.002789 5.974318,-19.459036 15.848287,-23.25522 5.979815,-2.299159 12.300964,-2.110934 17.832369,0.05497 0.545723,0.214236 1.166933,0.06589 1.565949,-0.366687 0.638933,-0.693662 0.442831,-1.797908 -0.386708,-2.248369 -7.728082,-4.184862 -17.164636,-5.094072 -26.010174,-1.693457 z"
     fill="#ffffff"
     id="path12441"
     style="stroke-width:0.820513" />
</svg>
