<?xml version="1.0" encoding="UTF-8" standalone="no"?>
<!-- Generator: Adobe Illustrator 24.0.0, SVG Export Plug-In . SVG Version: 6.00 Build 0)  -->

<svg
   version="1.1"
   id="Layer_1"
   x="0px"
   y="0px"
   viewBox="0 0 127.99999 127.99972"
   xml:space="preserve"
   sodipodi:docname="ewc.svg"
   width="127.99999"
   height="127.99972"
   inkscape:export-filename="ewc.png"
   inkscape:export-xdpi="96"
   inkscape:export-ydpi="96"
   xmlns:inkscape="http://www.inkscape.org/namespaces/inkscape"
   xmlns:sodipodi="http://sodipodi.sourceforge.net/DTD/sodipodi-0.dtd"
   xmlns="http://www.w3.org/2000/svg"
   xmlns:svg="http://www.w3.org/2000/svg"
   xmlns:rdf="http://www.w3.org/1999/02/22-rdf-syntax-ns#"
   xmlns:cc="http://creativecommons.org/ns#"
   xmlns:dc="http://purl.org/dc/elements/1.1/"><defs
   id="defs8102" /><sodipodi:namedview
   id="namedview8100"
   pagecolor="#ffffff"
   bordercolor="#000000"
   borderopacity="0.25"
   inkscape:showpageshadow="2"
   inkscape:pageopacity="0.0"
   inkscape:pagecheckerboard="0"
   inkscape:deskcolor="#d1d1d1"
   showgrid="false" />
<style
   type="text/css"
   id="style8093">
	.st0{fill:#A566FF;}
</style>
<title
   id="title8095">ewf_logo</title>
<circle
   style="fill:#ffffff;stroke-width:0;stroke-linejoin:bevel;stroke-opacity:0.684597"
   id="path288"
   cx="63.999996"
   cy="63.999859"
   r="50" /><path
   class="st0"
   d="M 63.999862,0 C 28.661255,0 0,28.661255 0,63.999862 0,99.33847 28.661255,127.99972 63.999862,127.99972 c 35.338608,0 63.999858,-28.66125 63.999858,-63.999858 v 0 C 128.10245,28.661255 99.441199,0 63.999862,0 Z m -2.876398,95.537515 c -3.492769,2.465484 -7.704638,3.903684 -11.916507,3.903684 -7.396453,0 -14.176535,-4.006412 -19.31296,-11.402865 -4.622783,-7.088267 -7.190996,-15.306548 -7.396453,-23.730286 0,-0.308186 0.205457,-0.616371 0.513642,-0.7191 l 5.033698,-2.260027 c 0.410914,-0.205457 0.821828,0 1.027285,0.410914 0,0.102729 0.102728,0.205457 0.102728,0.308186 v 0 c 0,8.423738 2.260027,16.333833 6.266439,22.189358 3.800955,5.54734 8.731924,8.526466 13.868349,8.526466 2.77367,0 5.54734,-0.821828 7.807367,-2.362755 0.308186,-0.205457 0.821828,-0.102729 1.027285,0.205457 1.027285,1.33547 2.05457,2.568212 3.184584,3.800955 0.102729,0.308185 0.102729,0.821828 -0.205457,1.130013 0,0 0,0 0,0 z m 37.084993,-7.499181 c -5.033698,7.293724 -11.916508,11.402865 -19.312961,11.402865 -7.396452,0 -14.176534,-4.109141 -19.31296,-11.402865 -4.82824,-6.985539 -7.499181,-16.231105 -7.499181,-25.990313 0,-9.040109 5.239154,-16.128377 11.813779,-16.128377 6.574625,0 11.813779,7.088268 11.813779,16.128377 0.102728,7.910095 -1.746385,15.614733 -5.444611,22.600272 -0.205457,0.410914 -0.7191,0.513643 -1.027286,0.308186 -0.102728,0 -0.102728,-0.102729 -0.205457,-0.205457 -0.616371,-0.7191 -1.232742,-1.4382 -1.746384,-2.157299 -0.616371,-0.924557 -1.130014,-1.746385 -1.643656,-2.77367 -0.102729,-0.205457 -0.102729,-0.513643 0,-0.7191 2.362755,-5.444611 3.492769,-11.300136 3.492769,-17.155661 0,-4.417326 -2.260027,-9.451023 -5.239154,-9.451023 -2.979127,0 -5.239154,5.033697 -5.239154,9.451023 0,8.423738 2.260027,16.333833 6.266439,22.189359 3.800955,5.547339 8.731923,8.526466 13.868349,8.526466 5.136425,0 10.067394,-3.081855 13.868349,-8.526466 4.006412,-5.855526 6.266439,-13.765621 6.266439,-22.189359 0,-8.423738 -2.260027,-16.333833 -6.266439,-22.189358 -1.130014,-1.746385 -2.568213,-3.287313 -4.109141,-4.622783 -0.308185,-0.308186 -0.308185,-0.821828 -0.102728,-1.130014 0.102728,-0.102728 0.205457,-0.205457 0.308186,-0.205457 l 5.033697,-2.260027 c 0.308185,-0.102729 0.616371,-0.102729 0.821828,0.205457 1.33547,1.335471 2.465484,2.77367 3.492769,4.211869 4.828242,6.985539 7.499182,16.231105 7.499182,25.990313 0,9.759209 -2.56821,19.107503 -7.396453,26.093042 z"
   id="path8097"
   style="stroke-width:1.02729" />
<metadata
   id="metadata8104"><rdf:RDF><cc:Work
       rdf:about=""><dc:title>ewf_logo</dc:title></cc:Work></rdf:RDF></metadata></svg>
