<?xml version="1.0" encoding="UTF-8" standalone="no"?>
<svg
   id="Layer_1"
   viewBox="0 0 577.78 577.77994"
   version="1.1"
   sodipodi:docname="flare.svg"
   width="577.78003"
   height="577.77997"
   inkscape:export-filename="flare.png"
   inkscape:export-xdpi="21.267609"
   inkscape:export-ydpi="21.267609"
   xmlns:inkscape="http://www.inkscape.org/namespaces/inkscape"
   xmlns:sodipodi="http://sodipodi.sourceforge.net/DTD/sodipodi-0.dtd"
   xmlns="http://www.w3.org/2000/svg"
   xmlns:svg="http://www.w3.org/2000/svg">
  <sodipodi:namedview
     id="namedview12764"
     pagecolor="#ffffff"
     bordercolor="#000000"
     borderopacity="0.25"
     inkscape:showpageshadow="2"
     inkscape:pageopacity="0.0"
     inkscape:pagecheckerboard="0"
     inkscape:deskcolor="#d1d1d1"
     showgrid="false"
     showguides="true" />
  <defs
     id="defs12753">
    <style
       id="style12751">.cls-1{fill:#e62058;}.cls-2{fill:#fff;}</style>
  </defs>
  <circle
     class="cls-1"
     cx="1.4210855e-13"
     cy="408.55219"
     r="288.89001"
     transform="rotate(-45)"
     id="circle12755"
     style="fill:#e62058;fill-opacity:1;stroke-width:1.03638"
     inkscape:label="circle12755" />
  <path
     class="cls-2"
     d="m 371.89248,261.72866 -148.02999,-0.11187 c -40.35554,0 -73.9199,31.90851 -74.97158,72.93534 -0.0335,1.09644 0.87267,2.00268 1.9691,2.00268 l 148.02999,0.0895 v 0.0224 c 40.35554,0 73.9199,-31.90851 74.97159,-72.93533 0.0335,-1.09644 -0.87268,-2.00269 -1.96911,-2.00269 z"
     id="path12757"
     style="fill:#ffffff;fill-opacity:1;stroke-width:1.11881" />
  <path
     class="cls-2"
     d="m 446.91999,149.35521 -223.04632,-0.11188 c -40.35554,0 -73.91989,31.90852 -74.97157,72.93534 -0.0335,1.09643 0.87266,2.00268 1.9691,2.00268 l 223.04633,0.0895 v 0.0224 c 40.35554,0 73.91989,-31.90852 74.97158,-72.93535 0.0335,-1.09644 -0.87268,-2.00267 -1.96912,-2.00267 z"
     id="path12759"
     style="fill:#ffffff;fill-opacity:1;stroke-width:1.11881" />
  <circle
     class="cls-2"
     cx="186.40466"
     cy="411.02289"
     r="37.51376"
     id="circle12761"
     style="fill:#ffffff;fill-opacity:1;stroke-width:1.11881" />
</svg>
