<?xml version="1.0" encoding="UTF-8" standalone="no"?>
<svg
   width="128"
   height="128"
   viewBox="0 0 128 128"
   version="1.1"
   id="svg12593"
   sodipodi:docname="ftm.svg"
   xmlns:inkscape="http://www.inkscape.org/namespaces/inkscape"
   xmlns:sodipodi="http://sodipodi.sourceforge.net/DTD/sodipodi-0.dtd"
   xmlns="http://www.w3.org/2000/svg"
   xmlns:svg="http://www.w3.org/2000/svg"
   xmlns:rdf="http://www.w3.org/1999/02/22-rdf-syntax-ns#"
   xmlns:cc="http://creativecommons.org/ns#"
   xmlns:dc="http://purl.org/dc/elements/1.1/">
  <defs
     id="defs12597" />
  <sodipodi:namedview
     id="namedview12595"
     pagecolor="#ffffff"
     bordercolor="#000000"
     borderopacity="0.25"
     inkscape:showpageshadow="2"
     inkscape:pageopacity="0.0"
     inkscape:pagecheckerboard="0"
     inkscape:deskcolor="#d1d1d1"
     showgrid="false" />
  <title
     id="title12587">Fantom circle@2x</title>
  <g
     id="circle"
     stroke="none"
     stroke-width="1"
     fill="none"
     fill-rule="evenodd"
     transform="scale(0.125)">
    <g
       id="Fantom-circle">
      <circle
         id="Oval"
         fill="#1969ff"
         cx="512"
         cy="512"
         r="512" />
      <path
         d="m 480.95263,162.8204 c 17.24958,-9.09387 43.49638,-9.09387 60.74596,0 l 176.01671,92.79504 c 10.38893,5.4765 16.09444,13.63775 17.11651,22.06278 H 735 v 466.43193 c -0.22918,9.19052 -5.98828,18.31925 -17.2847,24.27441 l -176.01671,92.79518 c -17.24958,9.09368 -43.49638,9.09368 -60.74596,0 L 304.93638,768.38456 c -11.24891,-5.93026 -16.64743,-15.12262 -16.91477,-24.27441 -0.0274,-0.93888 -0.0299,-1.71267 -8.3e-4,-2.34996 l 8.3e-4,-460.94161 c -0.0263,-0.64836 -0.0265,-1.29396 -6.5e-4,-1.93679 l 6.5e-4,-1.20357 h 0.0786 c 0.7818,-8.51818 6.22837,-16.471 16.83613,-22.06278 z M 707,537 541.64482,624.45997 c -17.22456,9.11114 -43.43327,9.11114 -60.65783,0 L 316,537.19496 v 205.47428 l 164.98699,86.80211 c 9.75007,5.21666 19.88769,10.29935 29.75956,10.5211 l 0.56936,0.008 c 9.85249,0.0322 19.41799,-4.97752 29.1173,-9.72019 L 707,741.92083 Z M 260.42384,734 c 0,17.8806 2.0597,29.63306 6.14928,37.9122 3.38964,6.86267 8.47554,12.1068 17.76208,18.48871 l 0.53009,0.36173 c 2.03802,1.38693 4.28305,2.83938 7.0159,4.54559 l 3.22269,1.99134 L 305,803.32529 290.80629,827 l -11.0763,-6.74917 -1.86176,-1.15347 c -3.20256,-1.99504 -5.85702,-3.70771 -8.33293,-5.3927 -26.46685,-18.00241 -36.33758,-37.62983 -36.53235,-78.46076 L 233,734 Z M 498,413 c -1.28072,0.44042 -2.48116,0.95115 -3.57549,1.53035 l -175.74798,93.09354 c -0.18445,0.0971 -0.36032,0.1943 -0.5277,0.2896 l -0.14883,0.0861 0.27598,0.15914 0.40055,0.21743 175.74798,93.09354 c 1.09433,0.5792 2.29477,1.08993 3.57549,1.53035 z m 28,0 v 190 c 1.28164,-0.44042 2.48207,-0.95115 3.5764,-1.53035 l 175.74634,-93.09354 c 0.18454,-0.0971 0.36077,-0.1943 0.52778,-0.2896 l 0.14948,-0.087 -0.27589,-0.15822 -0.40137,-0.21743 L 529.5764,414.53035 C 528.48207,413.95115 527.28164,413.44042 526,413 Z m 181,-102 -158,83 158,83 z m -391,0 V 477 L 474,394 Z M 529.42249,187.62711 c -9.14735,-4.83615 -25.69754,-4.83615 -34.84489,0 l -175.90048,92.9966 c -0.18461,0.098 -0.36063,0.1941 -0.52816,0.29023 l -0.14896,0.086 0.27622,0.15805 0.4009,0.21813 175.90048,92.99632 c 9.14735,4.8368 25.69754,4.8368 34.84489,0 l 175.89965,-92.99632 c 0.18471,-0.098 0.3611,-0.1941 0.52825,-0.2893 L 706,280.9999 l -0.27613,-0.15806 -0.40173,-0.21813 z M 733.19382,197 l 11.07643,6.74927 1.86147,1.1532 c 3.20246,1.99448 5.857,3.70808 8.33316,5.39223 26.46672,18.0028 36.33754,37.63042 36.53238,78.4614 L 791,290 h -27.42352 c 0,-17.88155 -2.05996,-29.63309 -6.14971,-37.91316 -3.38906,-6.86203 -8.47495,-12.10635 -17.76125,-18.48762 l -0.53055,-0.36247 c -2.03801,-1.38619 -4.28275,-2.83864 -7.01595,-4.54522 L 728.89643,226.70009 719,220.67473 Z"
         id="Shape"
         fill="#ffffff"
         fill-rule="nonzero" />
    </g>
  </g>
  <metadata
     id="metadata12599">
    <rdf:RDF>
      <cc:Work
         rdf:about="">
        <dc:title>Fantom circle@2x</dc:title>
      </cc:Work>
    </rdf:RDF>
  </metadata>
</svg>
