<?xml version="1.0" encoding="UTF-8" standalone="no"?>
<svg
   width="201"
   height="201"
   viewBox="0 0 201 201"
   fill="none"
   version="1.1"
   id="svg13669"
   sodipodi:docname="Icon logo (color).svg"
   inkscape:export-filename="..\..\..\..\..\..\Downloads\Networks\Mainnet\Fuse.png"
   inkscape:export-xdpi="61.134327"
   inkscape:export-ydpi="61.134327"
   xmlns:inkscape="http://www.inkscape.org/namespaces/inkscape"
   xmlns:sodipodi="http://sodipodi.sourceforge.net/DTD/sodipodi-0.dtd"
   xmlns="http://www.w3.org/2000/svg"
   xmlns:svg="http://www.w3.org/2000/svg">
  <sodipodi:namedview
     id="namedview13671"
     pagecolor="#ffffff"
     bordercolor="#000000"
     borderopacity="0.25"
     inkscape:showpageshadow="2"
     inkscape:pageopacity="0.0"
     inkscape:pagecheckerboard="0"
     inkscape:deskcolor="#d1d1d1"
     showgrid="false" />
  <rect
     width="201"
     height="201"
     rx="100.5"
     fill="#071927"
     id="rect13639"
     x="0"
     y="0" />
  <mask
     id="mask0_8_33"
     maskUnits="userSpaceOnUse"
     x="44"
     y="115"
     width="113"
     height="42">
    <path
       d="m 44,115.59 h 112.459 v 40.645 H 44 Z"
       fill="#ffffff"
       id="path13641" />
  </mask>
  <g
     mask="url(#mask0_8_33)"
     id="g13646">
    <path
       fill-rule="evenodd"
       clip-rule="evenodd"
       d="m 100.121,136.277 c -3.9629,0 -7.6452,-0.786 -10.6509,-2.274 L 57.1045,117.982 47.4061,123.5 c -4.6099,2.622 -4.5294,6.641 0.1796,8.972 l 44.7646,22.159 c 2.1742,1.076 4.9538,1.605 7.7707,1.605 3.289,0 6.626,-0.72 9.11,-2.133 l 43.823,-24.932 c 4.61,-2.623 4.529,-6.643 -0.18,-8.972 l -9.306,-4.609 -31.136,17.715 c -3.37,1.916 -7.742,2.972 -12.311,2.972 z"
       fill="url(#paint0_linear_8_33)"
       id="path13644"
       style="fill:url(#paint0_linear_8_33)" />
  </g>
  <path
     fill-rule="evenodd"
     clip-rule="evenodd"
     d="m 153.162,93.6686 -7.771,-3.9035 -18.096,10.4459 -3.107,1.793 -3.105,1.793 -8.471,4.89 c -3.378,1.952 -7.763,3.025 -12.343,3.025 -3.9731,0 -7.6652,-0.8 -10.6788,-2.312 l -9.7053,-4.876 -3.2124,-1.612 -3.2123,-1.613 -17.8829,-8.984 -8.1621,4.7123 c -4.6221,2.6686 -4.5429,6.7557 0.1786,9.1277 l 9.3327,4.687 3.2123,1.613 3.2108,1.614 29.1285,14.63 c 2.1783,1.093 4.9668,1.631 7.7909,1.631 3.296,0 6.644,-0.732 9.132,-2.169 l 28.005,-16.166 3.107,-1.793 3.105,-1.792 9.724,-5.614 c 4.622,-2.667 4.541,-6.7557 -0.18,-9.1274 z"
     fill="url(#paint1_linear_8_33)"
     id="path13648"
     style="fill:url(#paint1_linear_8_33)" />
  <path
     fill-rule="evenodd"
     clip-rule="evenodd"
     d="m 153.162,69.7542 -44.885,-22.15 C 106.099,46.5279 103.312,46 100.486,46 c -3.2958,0 -6.6432,0.7204 -9.132,2.1322 L 47.4152,73.056 c -4.6221,2.6207 -4.5429,6.6371 0.1786,8.9676 l 7.7708,3.8356 3.2123,1.5852 3.2124,1.5853 17.8829,8.8262 3.2123,1.5838 3.2124,1.5863 6.3812,3.151 c 2.1783,1.074 4.9668,1.602 7.7909,1.602 3.296,0 6.644,-0.72 9.132,-2.132 l 5.258,-2.982 3.106,-1.762 3.106,-1.7618 18.095,-10.2641 3.107,-1.7617 3.105,-1.7617 8.164,-4.6304 c 4.622,-2.6207 4.541,-6.6386 -0.18,-8.9691 z"
     fill="url(#paint2_linear_8_33)"
     id="path13650"
     style="fill:url(#paint2_linear_8_33)" />
  <defs
     id="defs13667">
    <linearGradient
       id="paint0_linear_8_33"
       x1="100.23"
       y1="49.5439"
       x2="100.23"
       y2="156.23599"
       gradientUnits="userSpaceOnUse">
      <stop
         stop-color="#B3F9BA"
         id="stop13652" />
      <stop
         offset="1"
         stop-color="#F6FB8C"
         id="stop13654" />
    </linearGradient>
    <linearGradient
       id="paint1_linear_8_33"
       x1="100.378"
       y1="49.625999"
       x2="100.378"
       y2="153.78101"
       gradientUnits="userSpaceOnUse">
      <stop
         stop-color="#B1FFBF"
         id="stop13657" />
      <stop
         offset="1"
         stop-color="#FFF16D"
         id="stop13659" />
    </linearGradient>
    <linearGradient
       id="paint2_linear_8_33"
       x1="100.378"
       y1="46"
       x2="100.378"
       y2="154.08299"
       gradientUnits="userSpaceOnUse">
      <stop
         stop-color="#B3F9BA"
         id="stop13662" />
      <stop
         offset="1"
         stop-color="#F6FB8C"
         id="stop13664" />
    </linearGradient>
  </defs>
</svg>
