<?xml version="1.0" encoding="UTF-8" standalone="no"?>
<svg
   width="128"
   height="128"
   viewBox="0 0 128 128"
   fill="none"
   version="1.1"
   id="svg13669"
   sodipodi:docname="fuse.svg"
   inkscape:export-filename="fuse.png"
   inkscape:export-xdpi="96"
   inkscape:export-ydpi="96"
   xmlns:inkscape="http://www.inkscape.org/namespaces/inkscape"
   xmlns:sodipodi="http://sodipodi.sourceforge.net/DTD/sodipodi-0.dtd"
   xmlns="http://www.w3.org/2000/svg"
   xmlns:svg="http://www.w3.org/2000/svg">
  <sodipodi:namedview
     id="namedview13671"
     pagecolor="#ffffff"
     bordercolor="#000000"
     borderopacity="0.25"
     inkscape:showpageshadow="2"
     inkscape:pageopacity="0.0"
     inkscape:pagecheckerboard="0"
     inkscape:deskcolor="#d1d1d1"
     showgrid="false" />
  <rect
     width="128"
     height="128"
     rx="64"
     fill="#071927"
     id="rect13639"
     x="0"
     y="0"
     style="stroke-width:0.636816" />
  <mask
     id="mask0_8_33"
     maskUnits="userSpaceOnUse"
     x="44"
     y="115"
     width="113"
     height="42">
    <path
       d="m 44,115.59 h 112.459 v 40.645 H 44 Z"
       fill="#ffffff"
       id="path13641" />
  </mask>
  <g
     mask="url(#mask0_8_33)"
     id="g13646"
     transform="scale(0.63681592)">
    <path
       fill-rule="evenodd"
       clip-rule="evenodd"
       d="m 100.121,136.277 c -3.9629,0 -7.6452,-0.786 -10.6509,-2.274 L 57.1045,117.982 47.4061,123.5 c -4.6099,2.622 -4.5294,6.641 0.1796,8.972 l 44.7646,22.159 c 2.1742,1.076 4.9538,1.605 7.7707,1.605 3.289,0 6.626,-0.72 9.11,-2.133 l 43.823,-24.932 c 4.61,-2.623 4.529,-6.643 -0.18,-8.972 l -9.306,-4.609 -31.136,17.715 c -3.37,1.916 -7.742,2.972 -12.311,2.972 z"
       fill="url(#paint0_linear_8_33)"
       id="path13644"
       style="fill:url(#paint0_linear_8_33)" />
  </g>
  <path
     fill-rule="evenodd"
     clip-rule="evenodd"
     d="m 97.536,59.649656 -4.948697,-2.485811 -11.52382,6.652115 -1.978587,1.141811 -1.977314,1.141811 -5.394468,3.11403 c -2.151164,1.243065 -4.943602,1.926368 -7.860218,1.926368 -2.530134,0 -4.881322,-0.509453 -6.80043,-1.472318 L 50.871976,66.562547 48.826269,65.536 46.780625,64.508816 35.392509,58.787662 30.194754,61.788529 c -2.943427,1.699407 -2.892991,4.302138 0.113736,5.812665 l 5.943211,2.984756 2.045644,1.027184 2.044689,1.027821 18.549492,9.316617 c 1.387176,0.69604 3.162938,1.038647 4.96137,1.038647 2.098945,0 4.231004,-0.466149 5.815403,-1.381254 l 17.834029,-10.294766 1.978587,-1.141811 1.977314,-1.141174 6.192398,-3.575085 C 100.59399,63.763741 100.54241,61.159992 97.536,59.649656 Z"
     fill="url(#paint1_linear_8_33)"
     id="path13648"
     style="fill:url(#paint1_linear_8_33);stroke-width:0.636816" />
  <path
     fill-rule="evenodd"
     clip-rule="evenodd"
     d="M 97.536,44.420585 68.952517,30.315112 c -1.386985,-0.685405 -3.161791,-1.02158 -4.961432,-1.02158 -2.098818,0 -4.230496,0.458763 -5.815403,1.357819 L 30.194754,46.523224 c -2.943427,1.668903 -2.892991,4.226611 0.113736,5.71071 l 4.948569,2.442571 2.045643,1.009481 2.045708,1.009544 11.388115,5.620665 2.045644,1.008589 2.045708,1.010181 4.063649,2.006607 c 1.387176,0.68394 3.162938,1.020179 4.96137,1.020179 2.098945,0 4.231004,-0.458507 5.815403,-1.357691 l 3.348378,-1.898985 1.97795,-1.12207 1.97795,-1.121942 11.523184,-6.536343 1.978587,-1.121878 1.977314,-1.121879 5.198965,-2.948712 C 100.59399,48.463347 100.54241,45.904685 97.536,44.420585 Z"
     fill="url(#paint2_linear_8_33)"
     id="path13650"
     style="fill:url(#paint2_linear_8_33);stroke-width:0.636816" />
  <defs
     id="defs13667">
    <linearGradient
       id="paint0_linear_8_33"
       x1="100.23"
       y1="49.5439"
       x2="100.23"
       y2="156.23599"
       gradientUnits="userSpaceOnUse">
      <stop
         stop-color="#B3F9BA"
         id="stop13652" />
      <stop
         offset="1"
         stop-color="#F6FB8C"
         id="stop13654" />
    </linearGradient>
    <linearGradient
       id="paint1_linear_8_33"
       x1="100.378"
       y1="49.625999"
       x2="100.378"
       y2="153.78101"
       gradientUnits="userSpaceOnUse"
       gradientTransform="scale(0.63681592)">
      <stop
         stop-color="#B1FFBF"
         id="stop13657" />
      <stop
         offset="1"
         stop-color="#FFF16D"
         id="stop13659" />
    </linearGradient>
    <linearGradient
       id="paint2_linear_8_33"
       x1="100.378"
       y1="46"
       x2="100.378"
       y2="154.08299"
       gradientUnits="userSpaceOnUse"
       gradientTransform="scale(0.63681592)">
      <stop
         stop-color="#B3F9BA"
         id="stop13662" />
      <stop
         offset="1"
         stop-color="#F6FB8C"
         id="stop13664" />
    </linearGradient>
  </defs>
</svg>
