<?xml version="1.0" encoding="UTF-8" standalone="no"?>
<svg
   width="128"
   height="128"
   viewBox="0 0 128 128"
   version="1.1"
   id="svg10763"
   sodipodi:docname="heco.svg"
   inkscape:export-filename="..\Networks\Mainnet\heco.png"
   inkscape:export-xdpi="96"
   inkscape:export-ydpi="96"
   xmlns:inkscape="http://www.inkscape.org/namespaces/inkscape"
   xmlns:sodipodi="http://sodipodi.sourceforge.net/DTD/sodipodi-0.dtd"
   xmlns="http://www.w3.org/2000/svg"
   xmlns:svg="http://www.w3.org/2000/svg">
  <defs
     id="defs10767" />
  <sodipodi:namedview
     id="namedview10765"
     pagecolor="#ffffff"
     bordercolor="#000000"
     borderopacity="0.25"
     inkscape:showpageshadow="2"
     inkscape:pageopacity="0.0"
     inkscape:pagecheckerboard="0"
     inkscape:deskcolor="#d1d1d1"
     showgrid="false" />
  <g
     id="logo-symbol"
     transform="matrix(0.5,0,0,0.5,-24.4,-24.4)">
    <path
       id="Path_168"
       data-name="Path 168"
       d="m 176.8,48.8 c -70.4,0 -128,57.6 -128,128 v 0 c 0,70.4 57.6,128 128,128 v 0 c 70.4,0 128,-57.6 128,-128 v 0 c 0,-70.4 -57.6,-128 -128,-128 z"
       fill="#01943f" />
    <g
       id="Group_20"
       data-name="Group 20"
       transform="translate(113.97,108.24)">
      <g
         id="Group_16"
         data-name="Group 16"
         transform="translate(0.176)">
        <path
           id="Path_169"
           data-name="Path 169"
           d="m 106.108,101.22 a 1.348,1.348 0 0 1 0.276,-0.126 c 1.03,-0.478 2.061,-0.93 3.091,-1.332 V 79.43 A 6.7,6.7 0 0 0 102.79,72.72 H 75.07 v 58.356 a 66.854,66.854 0 0 1 31.038,-29.856 z"
           transform="translate(-75.07,-72.72)"
           fill="#ffffff" />
      </g>
      <g
         id="Group_17"
         data-name="Group 17"
         transform="translate(0,29.505)">
        <path
           id="Path_170"
           data-name="Path 170"
           d="m 134.437,118.991 h 6.182 a 16.228,16.228 0 0 0 16.235,-16.235 V 85.365 c -3.343,-0.578 -18.623,-0.9 -22.166,-0.9 a 59.645,59.645 0 0 0 -59.537,55.491 c -0.1,1.382 -0.151,2.764 -0.151,4.172 0,1.408 0.05,2.79 0.151,4.172 v 0 37.09 a 6.682,6.682 0 0 0 6.685,6.685 h 27.72 V 143.8 a 24.857,24.857 0 0 1 24.881,-24.805 z"
           transform="translate(-75,-84.46)"
           fill="#ffffff" />
      </g>
      <g
         id="Group_18"
         data-name="Group 18"
         transform="translate(91.128,78.763)">
        <path
           id="Path_171"
           data-name="Path 171"
           d="m 114.628,133.917 a 1.347,1.347 0 0 1 -0.276,0.126 c -1.03,0.477 -2.061,0.93 -3.091,1.332 v 20.332 a 6.7,6.7 0 0 0 6.685,6.71 h 27.7 V 104.06 a 66.915,66.915 0 0 1 -31.018,29.857 z"
           transform="translate(-111.26,-104.06)"
           fill="#ffffff" />
      </g>
      <g
         id="Group_19"
         data-name="Group 19"
         transform="translate(43.805)">
        <path
           id="Path_172"
           data-name="Path 172"
           d="m 174.134,116.5 v 0 -37.095 a 6.682,6.682 0 0 0 -6.685,-6.685 h -27.72 V 121 a 24.851,24.851 0 0 1 -24.856,24.8 h -6.208 A 16.228,16.228 0 0 0 92.43,162.039 v 17.391 c 3.343,0.578 18.623,0.9 22.166,0.9 0.4,0 0.779,0 1.181,-0.025 a 59.116,59.116 0 0 0 24.026,-5.554 l 0.151,-0.075 a 59.568,59.568 0 0 0 34.2,-49.862 c 0.1,-1.382 0.151,-2.765 0.151,-4.172 -0.02,-1.378 -0.071,-2.76 -0.171,-4.142 z"
           transform="translate(-92.43,-72.72)"
           fill="#ffffff" />
      </g>
    </g>
  </g>
</svg>
