<?xml version="1.0" encoding="UTF-8" standalone="no"?>
<!-- Created with Inkscape (http://www.inkscape.org/) -->

<svg
   width="127.99999"
   height="127.99999"
   viewBox="0 0 33.866664 33.866664"
   version="1.1"
   id="svg577"
   inkscape:export-filename="..\Mainnet_128x128\chains\crescent.svg"
   inkscape:export-xdpi="96"
   inkscape:export-ydpi="96"
   sodipodi:docname="cly.svg"
   xml:space="preserve"
   inkscape:version="1.2.2 (732a01da63, 2022-12-09)"
   xmlns:inkscape="http://www.inkscape.org/namespaces/inkscape"
   xmlns:sodipodi="http://sodipodi.sourceforge.net/DTD/sodipodi-0.dtd"
   xmlns="http://www.w3.org/2000/svg"
   xmlns:svg="http://www.w3.org/2000/svg"><sodipodi:namedview
     id="namedview579"
     pagecolor="#ffffff"
     bordercolor="#000000"
     borderopacity="0.25"
     inkscape:showpageshadow="2"
     inkscape:pageopacity="0.0"
     inkscape:pagecheckerboard="0"
     inkscape:deskcolor="#d1d1d1"
     inkscape:document-units="mm"
     showgrid="false"
     inkscape:zoom="6.2968754"
     inkscape:cx="52.645158"
     inkscape:cy="66.38213"
     inkscape:window-width="1920"
     inkscape:window-height="1009"
     inkscape:window-x="-8"
     inkscape:window-y="-8"
     inkscape:window-maximized="1"
     inkscape:current-layer="layer1" /><defs
     id="defs574" /><g
     inkscape:label="Layer 1"
     inkscape:groupmode="layer"
     id="layer1"><circle
       style="display:inline;fill:#ffffff;fill-opacity:1;stroke:none;stroke-width:0;stroke-linecap:butt;stroke-linejoin:bevel;stroke-dasharray:none;stroke-opacity:1;paint-order:fill markers stroke"
       id="path800"
       cx="16.933332"
       cy="16.933332"
       r="16.933332" /><path
       d="m 16.933408,33.866665 c 9.35195,0 16.933258,-7.581351 16.933258,-16.933335 C 33.866666,7.5813151 26.285358,-7.7597199e-7 16.933408,-7.7597199e-7 7.5813285,-7.7597199e-7 -1.015972e-6,7.5813151 -1.015972e-6,16.93333 -1.015972e-6,26.285314 7.5813285,33.866665 16.933408,33.866665 Z"
       fill="#ffffff"
       id="path10343"
       style="stroke-width:1.18498" /><path
       d="m 16.933405,33.356656 c 9.070283,0 16.423252,-7.353 16.423252,-16.423296 0,-9.0703785 -7.352969,-16.42335146 -16.423252,-16.42335146 -9.0704072,0 -16.42339771,7.35297296 -16.42339771,16.42335146 0,9.070296 7.35299051,16.423296 16.42339771,16.423296 z"
       fill="#000000"
       stroke="#ffffff"
       stroke-width="1.02002"
       id="path10345" /><path
       d="m 16.933274,31.45596 c 8.020612,0 14.522685,-6.502033 14.522685,-14.522612 0,-8.0206447 -6.502073,-14.522643 -14.522685,-14.522643 -8.0205777,0 -14.5225688,6.5019983 -14.5225688,14.522643 0,8.020579 6.5019911,14.522612 14.5225688,14.522612 z"
       stroke="#f0827d"
       stroke-width="0.588079"
       id="path10357" /><path
       fill-rule="evenodd"
       clip-rule="evenodd"
       d="m 17.554695,11.320042 c 0,-0.307998 -0.236193,-0.557677 -0.527487,-0.557677 0,0 -2.28e-4,0 -5.71e-4,0 -0.291045,0 -0.527147,0.24967 -0.527147,0.557677 0,2.247143 0,10.627944 0,12.87543 0,0.307956 0.236106,0.557698 0.527147,0.557698 3.43e-4,0 5.71e-4,0 5.71e-4,0 0.291303,0 0.527487,-0.249712 0.527487,-0.557698 0,-2.247486 0,-10.628287 0,-12.87543 z"
       fill="#ffffff"
       id="path10347"
       style="stroke-width:1.13561" /><path
       fill-rule="evenodd"
       clip-rule="evenodd"
       d="m 15.424065,21.93095 c -0.291174,-3.39e-4 -0.527491,0.249155 -0.527719,0.557132 0,0 0,3.4e-4 0,6.83e-4 -2.27e-4,0.307741 0.235635,0.557583 0.526813,0.55781 0.810029,6.82e-4 2.35162,0.002 3.161538,0.0028 0.291302,2.28e-4 0.527602,-0.249283 0.52783,-0.5569 0,-3.44e-4 0,-6.83e-4 0,-6.83e-4 2.27e-4,-0.307956 -0.235635,-0.557926 -0.526925,-0.558153 -0.810029,-6.78e-4 -2.351504,-0.002 -3.161537,-0.0027 z"
       fill="#ffffff"
       id="path10349"
       style="stroke-width:1.13561" /><path
       fill-rule="evenodd"
       clip-rule="evenodd"
       d="m 12.817388,14.637043 c -0.291388,-2.27e-4 -0.527491,0.249284 -0.527718,0.557244 0,0 0,3.39e-4 0,6.82e-4 -2.28e-4,0.307613 0.235506,0.557471 0.526808,0.55781 1.655494,0.0014 6.736664,0.006 8.392158,0.0073 0.291045,2.27e-4 0.527491,-0.249283 0.527718,-0.556905 0,-3.39e-4 0,-6.82e-4 0,-6.82e-4 2.28e-4,-0.307956 -0.235763,-0.557922 -0.526924,-0.558149 -1.655378,-0.0015 -6.736552,-0.006 -8.392042,-0.0073 z"
       fill="#ffffff"
       id="path10351"
       style="stroke-width:1.13561" /><path
       fill-rule="evenodd"
       clip-rule="evenodd"
       d="m 14.556118,11.81812 c -0.206105,-0.217479 -0.539981,-0.217136 -0.745755,9.05e-4 0,0 -2.28e-4,2.28e-4 -4.51e-4,4.55e-4 -0.205547,0.217823 -0.205204,0.570871 9.06e-4,0.788458 1.135608,1.198066 4.540167,4.790227 5.67578,5.98841 0.206105,0.217479 0.539981,0.217136 0.745528,-6.83e-4 2.27e-4,-2.27e-4 4.5e-4,-4.55e-4 4.5e-4,-4.55e-4 0.205762,-0.218037 0.205419,-0.571098 -7.94e-4,-0.78868 -1.135496,-1.198067 -4.540051,-4.790228 -5.675664,-5.98841 z"
       fill="#ffffff"
       id="path10353"
       style="stroke-width:1.13561" /><path
       fill-rule="evenodd"
       clip-rule="evenodd"
       d="m 13.817633,17.81641 c -0.205547,0.218037 -0.204989,0.571099 0.0014,0.788569 0,0 2.27e-4,2.28e-4 4.55e-4,4.51e-4 0.206105,0.217264 0.539981,0.216578 0.74564,-0.0016 1.132316,-1.201475 4.527222,-4.803744 5.659654,-6.005334 0.205547,-0.218166 0.20499,-0.57121 -0.0011,-0.788337 -2.28e-4,-2.28e-4 -4.55e-4,-4.55e-4 -4.55e-4,-4.55e-4 -0.20632,-0.217479 -0.540208,-0.216792 -0.745867,0.0014 -1.132317,1.201478 -4.527334,4.803743 -5.659651,6.005333 z"
       fill="#ffffff"
       id="path10355"
       style="stroke-width:1.13561" /></g></svg>
