<?xml version="1.0" encoding="UTF-8" standalone="no"?>
<svg
   width="128"
   height="128"
   viewBox="0 0 128 128"
   version="1.1"
   id="svg3662"
   sodipodi:docname="kujira.logo.svg"
   inkscape:export-filename="..\Mainnet_128x128\chains\kujira.png"
   inkscape:export-xdpi="96"
   inkscape:export-ydpi="96"
   xmlns:inkscape="http://www.inkscape.org/namespaces/inkscape"
   xmlns:sodipodi="http://sodipodi.sourceforge.net/DTD/sodipodi-0.dtd"
   xmlns="http://www.w3.org/2000/svg"
   xmlns:svg="http://www.w3.org/2000/svg"
   xmlns:rdf="http://www.w3.org/1999/02/22-rdf-syntax-ns#"
   xmlns:cc="http://creativecommons.org/ns#"
   xmlns:dc="http://purl.org/dc/elements/1.1/">
  <defs
     id="defs3666" />
  <sodipodi:namedview
     id="namedview3664"
     pagecolor="#ffffff"
     bordercolor="#000000"
     borderopacity="0.25"
     inkscape:showpageshadow="2"
     inkscape:pageopacity="0.0"
     inkscape:pagecheckerboard="0"
     inkscape:deskcolor="#d1d1d1"
     showgrid="false" />
  <title
     id="title3655">kuji</title>
  <g
     id="kuji"
     stroke="none"
     stroke-width="1"
     fill="none"
     fill-rule="evenodd"
     transform="scale(1.28)">
    <circle
       id="Oval"
       fill="#22242f"
       cx="50"
       cy="50"
       r="50" />
    <path
       d="M 50,2 C 76.509668,2 98,23.490332 98,50 98,76.509668 76.509668,98 50,98 23.490332,98 2,76.509668 2,50 2,23.490332 23.490332,2 50,2 Z m 0,3.3882353 C 25.361603,5.3882353 5.3882353,25.361603 5.3882353,50 5.3882353,74.638397 25.361603,94.611765 50,94.611765 74.638397,94.611765 94.611765,74.638397 94.611765,50 94.611765,25.361603 74.638397,5.3882353 50,5.3882353 Z"
       id="path3658"
       fill="#e53935"
       fill-rule="nonzero" />
    <path
       d="M 80.25078,31.08323 V 26.722981 H 66.439177 C 65.698066,23.90559 64.956956,21.423602 64.148472,19.142857 l -4.648784,0.804969 c 0.808484,2.012422 1.616968,4.293168 2.358079,6.775155 H 47.237679 v 4.360249 z m -35.371179,32.4 V 35.64472 H 38.07486 c 1.414847,-2.079503 2.829694,-4.628571 4.244541,-7.714285 V 24.710559 H 31.202745 c 0.606363,-1.341615 1.145352,-2.68323 1.684342,-4.091925 l -4.311915,-1.341615 c -2.021211,6.573913 -5.187773,11.873292 -9.432315,15.965217 l 1.010605,4.762733 C 21.02932,39.2 21.905178,38.395031 22.713662,37.522981 V 63.48323 Z M 33.426076,35.64472 h -9.028072 c 1.751715,-2.146583 3.436057,-4.56149 4.918278,-7.110559 h 8.489083 c -1.482221,2.68323 -2.897068,5.098137 -4.379289,7.110559 z M 61.18403,80.857143 c 3.368684,0 5.120399,-1.878261 5.120399,-5.567702 V 56.171429 H 77.016843 V 37.120497 H 50.808484 v 19.050932 h 10.779788 v 17.977639 c 0,1.677019 -0.673737,2.549069 -2.02121,2.549069 -1.549595,0 -3.166563,-0.134162 -4.783531,-0.335404 l 0.943231,4.49441 z M 31.876482,47.585093 H 26.89083 v -7.982608 h 4.985652 z m 8.825951,0 h -4.918278 v -7.982608 h 4.918278 z m 31.733001,4.360249 H 55.389894 V 41.413665 h 17.04554 z m -31.733001,7.513043 h -4.918278 v -7.982609 h 4.918278 z m -8.825951,0 H 26.89083 v -7.982609 h 4.985652 z m 45.409856,18.313044 3.570805,-2.481988 C 79.038054,70.996273 76.477854,66.032298 73.10917,60.330435 l -3.570804,2.146584 c 3.233936,5.567701 5.861509,10.665838 7.747972,15.29441 z M 49.056769,78.911801 C 52.02121,74.28323 54.58141,68.782609 56.737367,62.477019 l -3.907673,-1.878261 c -2.088584,6.037267 -4.58141,11.269565 -7.411104,15.696894 z m -5.592015,-4.56149 3.30131,-0.804969 c -0.943232,-3.219876 -1.886463,-6.037267 -2.964442,-8.452174 l -3.166563,0.93913 c 1.077979,2.68323 2.02121,5.433541 2.829695,8.318013 z m -7.14161,3.890683 3.503431,-0.402485 C 39.422333,72.740373 38.681223,68.715528 37.603244,65.763975 L 34.23456,66.16646 c 1.077979,2.817391 1.751716,6.842236 2.088584,12.074534 z m -12.868372,1.81118 C 24.869619,76.09441 25.745477,71.6 26.149719,66.501863 l -3.638178,-0.469565 c -0.336869,4.829814 -1.2801,9.122982 -2.762321,12.879503 z m 5.659389,-0.804969 3.503431,-0.402485 C 32.482845,73.545342 32.145976,69.319255 31.674361,66.23354 l -3.233937,0.402485 c 0.336869,2.951553 0.53899,7.17764 0.673737,12.61118 z"
       id="鯨"
       fill="#e53935"
       fill-rule="nonzero" />
  </g>
  <metadata
     id="metadata3668">
    <rdf:RDF>
      <cc:Work
         rdf:about="">
        <dc:title>kuji</dc:title>
      </cc:Work>
    </rdf:RDF>
  </metadata>
</svg>
