<?xml version="1.0" encoding="UTF-8" standalone="no"?>
<svg
   width="128"
   height="128"
   viewBox="0 0 128 128"
   fill="none"
   version="1.1"
   id="svg15299"
   sodipodi:docname="matic.svg"
   inkscape:export-filename="matic.png"
   inkscape:export-xdpi="96"
   inkscape:export-ydpi="96"
   xmlns:inkscape="http://www.inkscape.org/namespaces/inkscape"
   xmlns:sodipodi="http://sodipodi.sourceforge.net/DTD/sodipodi-0.dtd"
   xmlns="http://www.w3.org/2000/svg"
   xmlns:svg="http://www.w3.org/2000/svg">
  <defs
     id="defs15303" />
  <sodipodi:namedview
     id="namedview15301"
     pagecolor="#ffffff"
     bordercolor="#000000"
     borderopacity="0.25"
     inkscape:showpageshadow="2"
     inkscape:pageopacity="0.0"
     inkscape:pagecheckerboard="0"
     inkscape:deskcolor="#d1d1d1"
     showgrid="false" />
  <circle
     cx="64"
     cy="64"
     fill="#7b3fe4"
     id="circle15295"
     style="stroke-width:1.6"
     r="64" />
  <path
     d="m 106.66608,65.49392 v 19.30784 c -0.007,1.20416 -0.32496,2.38576 -0.92336,3.42944 -0.59824,1.04368 -1.45616,1.9136 -2.48992,2.52496 l -16.66672,9.63392 c -1.03216,0.61744 -2.21152,0.94336 -3.41328,0.94336 -1.20176,0 -2.38112,-0.32592 -3.41328,-0.94336 L 63.0928,90.75616 C 62.05904,90.1448 61.20112,89.27488 60.60288,88.2312 60.00464,87.18752 59.6864,86.00592 59.67952,84.80176 V 79.38272 L 68.2128,74.412 v 9.41968 l 14.93328,8.69728 14.93344,-8.69728 V 66.47728 L 83.14608,57.78 48.15952,78.11824 c -1.04192,0.58912 -2.2176,0.89872 -3.41344,0.89872 -1.19584,0 -2.37136,-0.3096 -3.41328,-0.89872 L 24.66608,68.44432 c -1.01776,-0.62064 -1.8592,-1.49392 -2.44304,-2.53568 -0.58384,-1.04176 -0.8904,-2.2168 -0.89024,-3.412 v -19.308 c 0.0069,-1.204 0.32512,-2.3856 0.92336,-3.42928 0.5984,-1.04368 1.45632,-1.91376 2.48992,-2.52496 L 41.4128,27.60048 c 1.0344,-0.61136 2.21296,-0.93376 3.41328,-0.93376 1.20048,0 2.37904,0.3224 3.41344,0.93376 l 16.66656,9.63392 c 1.03376,0.6112 1.89168,1.48128 2.48992,2.52496 0.5984,1.04368 0.91648,2.22528 0.92352,3.42928 v 5.41904 L 59.7328,53.54512 V 44.17888 L 44.79952,35.4816 29.86608,44.17888 V 61.51312 L 44.79952,70.2104 79.78608,49.87216 c 1.04192,-0.58912 2.2176,-0.89856 3.41344,-0.89856 1.19584,0 2.37136,0.30944 3.41328,0.89856 l 16.66672,9.67408 c 1.02768,0.61408 1.87968,1.48448 2.47312,2.52656 0.59344,1.04224 0.90816,2.2208 0.91344,3.42112 z"
     fill="#ffffff"
     id="path15297"
     style="stroke-width:1.6" />
</svg>
