<?xml version="1.0" encoding="UTF-8" standalone="no"?>
<svg
   width="80"
   height="80"
   viewBox="0 0 80 80"
   fill="none"
   version="1.1"
   id="svg15299"
   sodipodi:docname="Polygon2.svg"
   xmlns:inkscape="http://www.inkscape.org/namespaces/inkscape"
   xmlns:sodipodi="http://sodipodi.sourceforge.net/DTD/sodipodi-0.dtd"
   xmlns="http://www.w3.org/2000/svg"
   xmlns:svg="http://www.w3.org/2000/svg">
  <defs
     id="defs15303" />
  <sodipodi:namedview
     id="namedview15301"
     pagecolor="#ffffff"
     bordercolor="#000000"
     borderopacity="0.25"
     inkscape:showpageshadow="2"
     inkscape:pageopacity="0.0"
     inkscape:pagecheckerboard="0"
     inkscape:deskcolor="#d1d1d1"
     showgrid="false" />
  <circle
     cx="40"
     cy="40"
     r="40"
     fill="#7b3fe4"
     id="circle15295" />
  <path
     d="m 66.6663,40.9337 v 12.0674 c -0.0043,0.7526 -0.2031,1.4911 -0.5771,2.1434 -0.3739,0.6523 -0.9101,1.196 -1.5562,1.5781 l -10.4167,6.0212 c -0.6451,0.3859 -1.3822,0.5896 -2.1333,0.5896 -0.7511,0 -1.4882,-0.2037 -2.1333,-0.5896 L 39.433,56.7226 C 38.7869,56.3405 38.2507,55.7968 37.8768,55.1445 37.5029,54.4922 37.304,53.7537 37.2997,53.0011 v -3.3869 l 5.3333,-3.1067 v 5.8873 l 9.3333,5.4358 9.3334,-5.4358 V 41.5483 L 51.9663,36.1125 30.0997,48.8239 c -0.6512,0.3682 -1.386,0.5617 -2.1334,0.5617 -0.7474,0 -1.4821,-0.1935 -2.1333,-0.5617 L 15.4163,42.7777 C 14.7802,42.3898 14.2543,41.844 13.8894,41.1929 13.5245,40.5418 13.3329,39.8074 13.333,39.0604 V 26.9929 c 0.0043,-0.7525 0.2032,-1.491 0.5771,-2.1433 0.374,-0.6523 0.9102,-1.1961 1.5562,-1.5781 L 25.883,17.2503 c 0.6465,-0.3821 1.3831,-0.5836 2.1333,-0.5836 0.7503,0 1.4869,0.2015 2.1334,0.5836 l 10.4166,6.0212 c 0.6461,0.382 1.1823,0.9258 1.5562,1.5781 0.374,0.6523 0.5728,1.3908 0.5772,2.1433 v 3.3869 l -5.3667,3.0859 v -5.8539 l -9.3333,-5.4358 -9.3334,5.4358 v 10.8339 l 9.3334,5.4358 21.8666,-12.7114 c 0.6512,-0.3682 1.386,-0.5616 2.1334,-0.5616 0.7474,0 1.4821,0.1934 2.1333,0.5616 l 10.4167,6.0463 c 0.6423,0.3838 1.1748,0.9278 1.5457,1.5791 0.3709,0.6514 0.5676,1.388 0.5709,2.1382 z"
     fill="#ffffff"
     id="path15297" />
</svg>
