<?xml version="1.0" encoding="UTF-8" standalone="no"?>
<!-- Created with Inkscape (http://www.inkscape.org/) -->

<svg
   width="127.99999"
   height="128"
   viewBox="0 0 33.866664 33.866667"
   version="1.1"
   id="svg4195"
   inkscape:export-filename="metis.png"
   inkscape:export-xdpi="96"
   inkscape:export-ydpi="96"
   sodipodi:docname="metis.svg"
   xmlns:inkscape="http://www.inkscape.org/namespaces/inkscape"
   xmlns:sodipodi="http://sodipodi.sourceforge.net/DTD/sodipodi-0.dtd"
   xmlns="http://www.w3.org/2000/svg"
   xmlns:svg="http://www.w3.org/2000/svg">
  <sodipodi:namedview
     id="namedview4197"
     pagecolor="#ffffff"
     bordercolor="#000000"
     borderopacity="0.25"
     inkscape:showpageshadow="2"
     inkscape:pageopacity="0.0"
     inkscape:pagecheckerboard="0"
     inkscape:deskcolor="#d1d1d1"
     inkscape:document-units="mm"
     showgrid="false" />
  <defs
     id="defs4192" />
  <g
     inkscape:label="Layer 1"
     inkscape:groupmode="layer"
     id="layer1"
     transform="scale(0.71111111)">
    <circle
       style="fill:#ffffff;fill-opacity:1;stroke-width:0;stroke-linejoin:bevel;stroke-opacity:0.684597"
       id="path4316"
       cx="23.8125"
       cy="23.8125"
       r="23.8125" />
    <g
       id="g20346"
       transform="matrix(0.08373922,0,0,0.08373922,-21.406342,-12.630043)">
      <path
         class="st1"
         d="M 824.3,429.4 C 821.1,271 689,145.5 530.1,151 375,156.3 252.3,286.2 255.7,441.4 c 2.5,114.7 72.5,212 171.3,254.9 14,-17.8 25.7,-49.8 31.5,-67.7 5.8,-14.6 12,-28.8 18.4,-42.6 28.9,10.1 67.6,0.5 88.8,-22.5 l 0.8,-0.9 h -0.1 c -25.7,-11.2 -61.1,-5.4 -84.4,12.7 8,-16.5 16.4,-32.4 25.2,-47.7 28.4,11.4 67.5,3.6 89.7,-18.4 l 0.9,-0.9 h -0.1 c -24.8,-12.2 -59.7,-8.4 -83.8,7.9 8.8,-14.6 17.9,-28.7 27.5,-42.1 29.4,9.1 68.1,-2.1 88.4,-26.3 l 0.8,-1 h -0.1 c -24,-9.2 -55.4,-3.8 -77.8,11.8 0.8,-1.1 1.6,-2.1 2.4,-3.2 5.7,-7.5 11.6,-14.7 17.5,-21.8 34.7,-9.9 65.7,-45.2 70.6,-81.8 l 0.2,-1.5 h -0.1 c -35.9,7.2 -69.2,42.5 -75.8,79.9 -5.7,6.8 -11.3,13.7 -16.8,20.9 9,-24.4 7.4,-53.9 -5.7,-74.3 l -0.1,-0.1 -0.8,1 c -19.8,25 -22.9,65.7 -7.6,92.7 -9,12.7 -17.7,26 -26.1,39.8 5.3,-27.6 -3.6,-59.7 -23,-77.8 l -0.1,-0.1 -0.5,1.1 c -12.8,28.8 -5.9,68.6 15.2,91 -8.3,14.5 -16.3,29.5 -23.9,45 4.6,-28.7 -5.7,-62 -26.3,-80 l -0.1,-0.1 -0.5,1.2 c -11.7,30.3 -2.7,71.2 20,93.1 -4.9,10.6 -9.7,21.5 -14.3,32.5 -1.1,-1.1 -2.5,-2 -4.2,-2.5 -5.9,-1.7 -14.1,-4.8 -23.1,-10.2 -6,-3.6 -12.3,-6.5 -18.9,-8.6 -25.6,-8.4 -21.9,-20.8 -35.3,-45.5 -0.9,-1.6 -11.5,-12.7 -13.7,-14.7 -0.6,-0.5 -7.3,-4.4 -10.8,-11.7 -3.1,-6.6 -4.9,-12.8 -5.6,-18.8 -0.9,-8.1 -4.2,-13.4 -12.1,-16.1 -37.7,-13.1 -20.9,-62 -19.5,-68.6 1.1,-5.6 -3.7,-17.7 -5.5,-24.3 -0.2,-0.8 -0.4,-1.8 -0.6,-3 -2.7,-13.1 3.4,-24.3 7.9,-28.8 4.5,-4.6 20.2,-11.9 23.5,-16.2 3.2,-4.2 5.8,-9 9.1,-13.1 4.4,-5.5 17.9,-16.2 36,-25.9 11,-5.9 12.9,-21.2 17.1,-26 7.2,-8.1 18,-8.1 26.1,-15.3 4.1,-3.7 10,-5.5 13.7,-9.4 18.7,-19.2 43.8,-26.9 68.6,-31.6 16.7,-3.1 35.3,1.7 52.8,4.7 2.6,0.4 5,1.1 7.4,1.7 39.2,1.3 86.4,9.5 103.4,26.1 10.6,10.4 15.8,21.7 18.4,29.5 2.8,8.7 6.7,17 11.5,24.8 l 10.5,17.1 c 6.6,10.8 8.8,23.8 6,36.1 -1.6,7 -2.5,14.4 -0.4,18.5 3.3,6.4 13.3,16.8 19.4,22.8 2.9,2.9 6.1,5.4 9.6,7.6 8.1,5.1 23.4,14.9 23.4,15.7 0,1.1 1.3,6 -5.5,11.9 -6.8,5.9 -19.5,15.2 -19.5,15.2 0,0 0.7,4.3 2.5,7.7 1.8,3.4 6.2,8.5 4.9,13.1 -1.3,4.6 -10.7,8.3 -8.1,13.4 2.7,5.1 9.3,6.7 7.4,11.3 -1.9,4.6 -11.2,12.6 -10.3,16 0.9,3.4 8.5,35.1 -8.9,40.7 -13.1,4.2 -49.1,6.5 -66.1,7.4 -7.3,0.4 -13.9,4.5 -17.4,10.9 -2.6,4.8 -5.2,11.4 -6.5,20.3 -3.3,22.5 -25.5,74 -25.5,74 0,0 -0.7,1.3 -1.7,3.5 -1.9,4.7 -4.7,12 -4.3,14.9 0.3,1.9 2.9,5.7 6.7,10.2 3,3.6 8,5 12.5,3.5 114.2,-38.9 195.1,-148.1 192.5,-275 z"
         id="path20344"
         style="fill:#00dacc" />
    </g>
  </g>
</svg>
