<?xml version="1.0" encoding="UTF-8" standalone="no"?>
<!-- Created with Inkscape (http://www.inkscape.org/) -->

<svg
   width="128"
   height="128"
   viewBox="0 0 33.866665 33.866667"
   version="1.1"
   id="svg7221"
   inkscape:export-filename="Moonriver.svg"
   inkscape:export-xdpi="21.259516"
   inkscape:export-ydpi="21.259516"
   sodipodi:docname="mobm.svg"
   xmlns:inkscape="http://www.inkscape.org/namespaces/inkscape"
   xmlns:sodipodi="http://sodipodi.sourceforge.net/DTD/sodipodi-0.dtd"
   xmlns="http://www.w3.org/2000/svg"
   xmlns:svg="http://www.w3.org/2000/svg">
  <sodipodi:namedview
     id="namedview7223"
     pagecolor="#ffffff"
     bordercolor="#000000"
     borderopacity="0.25"
     inkscape:showpageshadow="2"
     inkscape:pageopacity="0.0"
     inkscape:pagecheckerboard="0"
     inkscape:deskcolor="#d1d1d1"
     inkscape:document-units="mm"
     showgrid="false" />
  <defs
     id="defs7218" />
  <g
     inkscape:label="Layer 1"
     inkscape:groupmode="layer"
     id="layer1"
     transform="scale(0.22145328)">
    <circle
       style="fill:#0e1027;fill-opacity:1;stroke-width:0.470852"
       id="path7394"
       cx="76.464584"
       cy="76.464584"
       r="76.464584" />
    <g
       id="logo-symbol"
       transform="matrix(0.5953125,0,0,0.5953125,-32.477604,-158.08854)">
      <rect
         id="Rectangle_37"
         data-name="Rectangle 37"
         width="200"
         height="200"
         transform="translate(83,294)"
         fill="none"
         x="0"
         y="0" />
      <g
         id="symbol"
         transform="translate(-224.332,64.165)">
        <path
           id="Path_185"
           data-name="Path 185"
           d="M 808.276,400.23 A 61.3,61.3 0 0 0 747,461.543 v 0 c 0,0.043 0,0.084 0,0.128 v 0.1 a 3.016,3.016 0 0 0 3.017,2.845 h 116.517 a 3.015,3.015 0 0 0 3.016,-2.845 l 0.005,-0.1 c 0,-0.044 0,-0.085 0,-0.128 v 0 A 61.3,61.3 0 0 0 808.276,400.23 Z"
           transform="translate(-382.261,-154.395)"
           fill="#53cbc8" />
        <path
           id="Path_186"
           data-name="Path 186"
           d="m 673.015,617.7 a 3.729,3.729 0 1 1 -3.73,-3.732 3.73,3.73 0 0 1 3.73,3.732 z"
           transform="translate(-348.846,-242.095)"
           fill="#e1147b" />
        <path
           id="Path_187"
           data-name="Path 187"
           d="M 853.29,585.287 H 728.267 a 3.677,3.677 0 0 0 -3.231,5.423 c 0.02,0.039 0.041,0.078 0.062,0.116 a 3.668,3.668 0 0 0 3.232,1.924 h 124.9 a 3.669,3.669 0 0 0 3.232,-1.924 l 0.062,-0.116 a 3.678,3.678 0 0 0 -3.234,-5.423 z"
           transform="translate(-373.07,-230.326)"
           fill="#e1147b" />
        <path
           id="Path_188"
           data-name="Path 188"
           d="M 869.9,527.924 H 728.262 a 3.681,3.681 0 0 0 -3.666,3.887 c 0,0.039 0,0.078 0.006,0.117 a 3.665,3.665 0 0 0 3.667,3.459 H 869.9 a 3.666,3.666 0 0 0 3.667,-3.459 c 0,-0.039 0,-0.078 0.006,-0.117 a 3.681,3.681 0 0 0 -3.673,-3.887 z"
           transform="translate(-373.068,-206.789)"
           fill="#e1147b" />
        <path
           id="Path_189"
           data-name="Path 189"
           d="m 833.6,671.331 h -63.833 a 3.675,3.675 0 0 0 -1.638,6.964 l 0.234,0.117 a 3.657,3.657 0 0 0 1.637,0.382 h 63.364 a 3.662,3.662 0 0 0 1.638,-0.382 l 0.233,-0.117 a 3.675,3.675 0 0 0 -1.635,-6.964 z"
           transform="translate(-390.097,-265.632)"
           fill="#e1147b" />
        <path
           id="Path_190"
           data-name="Path 190"
           d="m 899.737,642.649 h -63.831 a 3.676,3.676 0 0 0 -1.637,6.964 l 0.233,0.117 a 3.668,3.668 0 0 0 1.638,0.381 h 63.36 a 3.665,3.665 0 0 0 1.638,-0.381 l 0.233,-0.117 a 3.676,3.676 0 0 0 -1.634,-6.964 z"
           transform="translate(-417.236,-253.863)"
           fill="#e1147b" />
        <path
           id="Path_191"
           data-name="Path 191"
           d="m 798.341,620.256 -0.108,-0.116 a 3.674,3.674 0 0 1 2.694,-6.173 h 103.6 a 3.674,3.674 0 0 1 2.694,6.173 l -0.108,0.116 a 3.7,3.7 0 0 1 -2.693,1.174 H 801.034 a 3.7,3.7 0 0 1 -2.693,-1.174 z"
           transform="translate(-402.878,-242.095)"
           fill="#e1147b" />
        <path
           id="Path_192"
           data-name="Path 192"
           d="m 691.913,613.968 h 49.472 a 3.676,3.676 0 0 1 1.637,6.964 l -0.233,0.117 a 3.657,3.657 0 0 1 -1.637,0.382 h -49 a 3.658,3.658 0 0 1 -1.638,-0.382 l -0.233,-0.117 a 3.676,3.676 0 0 1 1.632,-6.964 z"
           transform="translate(-358.154,-242.095)"
           fill="#e1147b" />
        <path
           id="Path_193"
           data-name="Path 193"
           d="m 709.367,531.655 a 3.729,3.729 0 1 1 -3.73,-3.731 3.73,3.73 0 0 1 3.73,3.731 z"
           transform="translate(-363.763,-206.789)"
           fill="#e1147b" />
        <path
           id="Path_194"
           data-name="Path 194"
           d="m 786.534,561.345 c 0.01,-0.038 0.02,-0.078 0.031,-0.116 a 3.672,3.672 0 0 0 -3.549,-4.622 H 679.4 a 3.671,3.671 0 0 0 -3.549,4.622 c 0.01,0.038 0.021,0.078 0.032,0.116 a 3.681,3.681 0 0 0 3.547,2.724 h 103.556 a 3.683,3.683 0 0 0 3.548,-2.724"
           transform="translate(-353.019,-218.558)"
           fill="#e1147b" />
        <path
           id="Path_195"
           data-name="Path 195"
           d="m 660.5,560.337 a 3.729,3.729 0 1 1 -3.729,-3.731 3.731,3.731 0 0 1 3.729,3.731 z"
           transform="translate(-343.711,-218.558)"
           fill="#e1147b" />
        <path
           id="Path_196"
           data-name="Path 196"
           d="m 709.367,589.018 a 3.729,3.729 0 1 1 -3.73,-3.731 3.731,3.731 0 0 1 3.73,3.731 z"
           transform="translate(-363.763,-230.326)"
           fill="#e1147b" />
        <path
           id="Path_197"
           data-name="Path 197"
           d="m 817.008,646.381 a 3.729,3.729 0 1 1 -3.73,-3.731 3.73,3.73 0 0 1 3.73,3.731 z"
           transform="translate(-407.928,-253.863)"
           fill="#e1147b" />
        <path
           id="Path_198"
           data-name="Path 198"
           d="m 750.868,675.063 a 3.729,3.729 0 1 1 -3.729,-3.731 3.73,3.73 0 0 1 3.729,3.731 z"
           transform="translate(-380.79,-265.632)"
           fill="#e1147b" />
      </g>
    </g>
  </g>
</svg>
