<?xml version="1.0" encoding="UTF-8" standalone="no"?>
<!-- Created with Inkscape (http://www.inkscape.org/) -->

<svg
   width="128"
   height="128"
   viewBox="0 0 33.866665 33.866667"
   version="1.1"
   id="svg7221"
   inkscape:export-filename="Moonriver.png"
   inkscape:export-xdpi="21.259516"
   inkscape:export-ydpi="21.259516"
   sodipodi:docname="movr.svg"
   xmlns:inkscape="http://www.inkscape.org/namespaces/inkscape"
   xmlns:sodipodi="http://sodipodi.sourceforge.net/DTD/sodipodi-0.dtd"
   xmlns="http://www.w3.org/2000/svg"
   xmlns:svg="http://www.w3.org/2000/svg">
  <sodipodi:namedview
     id="namedview7223"
     pagecolor="#ffffff"
     bordercolor="#000000"
     borderopacity="0.25"
     inkscape:showpageshadow="2"
     inkscape:pageopacity="0.0"
     inkscape:pagecheckerboard="0"
     inkscape:deskcolor="#d1d1d1"
     inkscape:document-units="mm"
     showgrid="false" />
  <defs
     id="defs7218" />
  <g
     inkscape:label="Layer 1"
     inkscape:groupmode="layer"
     id="layer1"
     transform="scale(0.22145328)">
    <circle
       style="fill:#0e122f;fill-opacity:1;stroke-width:0.470852"
       id="path7394"
       cx="76.464584"
       cy="76.464584"
       r="76.464584" />
    <g
       id="logo-symbol"
       transform="matrix(0.5953125,0,0,0.5953125,-246.19479,-140.82448)">
      <rect
         id="Rectangle_38"
         data-name="Rectangle 38"
         width="200"
         height="200"
         transform="translate(442,265)"
         fill="none"
         x="0"
         y="0" />
      <g
         id="symbol"
         transform="translate(231.196,-160.618)">
        <path
           id="Path_207"
           data-name="Path 207"
           d="m 414.045,475.63 a 71.868,71.868 0 0 0 -71.868,71.87 72.791,72.791 0 0 0 1.274,13.532 l 9.284,-6.359 c 16.322,-11.194 42.8,-11.194 59.118,0 l 9.742,6.672 5.28,3.629 c 14.712,10.08 38.545,10.08 53.243,0 l 4.332,-2.966 a 71.914,71.914 0 0 0 -70.379,-86.347 z"
           transform="translate(-105.039,-46.012)"
           fill="#f2b705" />
        <path
           id="Path_208"
           data-name="Path 208"
           d="m 455.125,566.762 c -10.828,0 -21.182,-2.938 -28.978,-8.281 l -15.01,-10.287 c -7.186,-4.94 -16.836,-7.66 -27.147,-7.66 -10.311,0 -19.964,2.7 -27.15,7.66 l -9.705,6.645 a 4.216,4.216 0 1 1 -4.764,-6.957 l 9.7,-6.645 c 8.581,-5.887 19.909,-9.123 31.915,-9.123 12.006,0 23.332,3.236 31.913,9.123 l 15.01,10.287 a 46.384,46.384 0 0 0 48.425,0 l 5.7,-3.9 a 4.215,4.215 0 1 1 4.762,6.955 l -5.7,3.9 c -7.831,5.361 -18.142,8.283 -28.971,8.283 z"
           transform="translate(-105.732,-22.104)"
           fill="#53cbc8" />
        <path
           id="Path_209"
           data-name="Path 209"
           d="M 370.851,591.707 V 551.1 a 16.161,16.161 0 0 1 0.108,-2.558 4.572,4.572 0 0 1 4.547,-4.059 4.426,4.426 0 0 1 4.291,4.059 24.513,24.513 0 0 1 0.148,4.25 v 80.961 c -0.243,3 -2.123,4.981 -4.655,4.927 -2.532,-0.054 -4.36,-2.111 -4.371,-5.156 v -26.985 z"
           transform="translate(-92.907,-16.867)"
           fill="#53cbc8" />
        <path
           id="Path_210"
           data-name="Path 210"
           d="m 367.541,571.035 v 20.179 c 0,3.453 -1.842,5.739 -4.452,5.657 -2.61,-0.082 -4.588,-2.408 -4.6,-5.7 V 550.83 c 0,-3.534 2.058,-5.918 4.737,-5.781 2.679,0.137 4.278,2.274 4.291,5.805 0.037,6.728 0.024,13.454 0.024,20.181 z"
           transform="translate(-98.136,-16.632)"
           fill="#53cbc8" />
        <path
           id="Path_211"
           data-name="Path 211"
           d="M 383.276,569.114 V 554.93 c 0,-3.289 1.745,-5.413 4.344,-5.413 2.599,0 4.6,2.192 4.63,5.29 q 0.147,14.483 0,28.952 c 0,3.288 -1.937,5.263 -4.6,5.238 -2.663,-0.025 -4.369,-2.047 -4.4,-5.414 V 569.1 Z"
           transform="translate(-87.654,-14.738)"
           fill="#53cbc8" />
        <path
           id="Path_212"
           data-name="Path 212"
           d="M 346.132,571.187 V 557 c 0,-3.287 1.746,-5.412 4.344,-5.412 2.598,0 4.6,2.192 4.631,5.29 q 0.133,14.483 0,28.952 c 0,3.288 -1.951,5.263 -4.6,5.237 -2.649,-0.026 -4.371,-2.047 -4.4,-5.414 v -14.479 z"
           transform="translate(-103.376,-13.861)"
           fill="#53cbc8" />
        <path
           id="Path_213"
           data-name="Path 213"
           d="m 400.074,556.876 h 0.013 a 4.455,4.455 0 0 1 4.453,4.455 v 7.714 a 4.454,4.454 0 0 1 -4.453,4.453 h -0.013 a 4.455,4.455 0 0 1 -4.455,-4.453 v -7.714 a 4.456,4.456 0 0 1 4.455,-4.455 z"
           transform="translate(-82.419,-11.623)"
           fill="#53cbc8" />
        <path
           id="Path_214"
           data-name="Path 214"
           d="m 412.473,561.622 h 0.013 a 4.455,4.455 0 0 1 4.453,4.455 v 43.267 a 4.452,4.452 0 0 1 -4.453,4.452 h -0.013 a 4.451,4.451 0 0 1 -4.452,-4.452 v -43.267 a 4.454,4.454 0 0 1 4.452,-4.455 z"
           transform="translate(-77.168,-9.614)"
           fill="#53cbc8" />
        <path
           id="Path_215"
           data-name="Path 215"
           d="m 424.787,562.8 h 0.013 a 4.455,4.455 0 0 1 4.455,4.453 v 36.773 a 4.453,4.453 0 0 1 -4.455,4.451 h -0.013 a 4.45,4.45 0 0 1 -4.452,-4.451 v -36.772 a 4.452,4.452 0 0 1 4.452,-4.454 z"
           transform="translate(-71.956,-9.115)"
           fill="#53cbc8" />
        <path
           id="Path_216"
           data-name="Path 216"
           d="m 437.273,559.853 h 0.013 a 4.453,4.453 0 0 1 4.453,4.453 v 15.861 a 4.454,4.454 0 0 1 -4.453,4.453 h -0.013 a 4.452,4.452 0 0 1 -4.452,-4.453 v -15.86 a 4.452,4.452 0 0 1 4.452,-4.454 z"
           transform="translate(-66.671,-10.363)"
           fill="#53cbc8" />
      </g>
    </g>
  </g>
</svg>
