<?xml version="1.0" encoding="UTF-8" standalone="no"?>
<!-- Created with Inkscape (http://www.inkscape.org/) -->

<svg
   width="128.00002"
   height="128"
   viewBox="0 0 33.86667 33.866667"
   version="1.1"
   id="svg4195"
   inkscape:export-filename="oasis.png"
   inkscape:export-xdpi="96"
   inkscape:export-ydpi="96"
   sodipodi:docname="godwoken.svg"
   xmlns:inkscape="http://www.inkscape.org/namespaces/inkscape"
   xmlns:sodipodi="http://sodipodi.sourceforge.net/DTD/sodipodi-0.dtd"
   xmlns:xlink="http://www.w3.org/1999/xlink"
   xmlns="http://www.w3.org/2000/svg"
   xmlns:svg="http://www.w3.org/2000/svg">
  <sodipodi:namedview
     id="namedview4197"
     pagecolor="#ffffff"
     bordercolor="#000000"
     borderopacity="0.25"
     inkscape:showpageshadow="2"
     inkscape:pageopacity="0.0"
     inkscape:pagecheckerboard="0"
     inkscape:deskcolor="#d1d1d1"
     inkscape:document-units="mm"
     showgrid="false" />
  <defs
     id="defs4192">
    <clipPath
       id="SVGID_2_">
		<use
   xlink:href="#SVGID_1_"
   style="overflow:visible"
   id="use20817" />

	</clipPath>
    <rect
       id="SVGID_1_"
       width="128"
       height="128"
       x="0"
       y="0" />
  </defs>
  <g
     inkscape:label="Layer 1"
     inkscape:groupmode="layer"
     id="layer1"
     transform="scale(0.71111111)">
    <circle
       style="fill:#ffffff;fill-opacity:1;stroke-width:0;stroke-linejoin:bevel;stroke-opacity:0.684597"
       id="path4316"
       cx="23.8125"
       cy="23.8125"
       r="23.8125" />
    <g
       id="g20824"
       transform="matrix(0.37207031,0,0,0.37207031,-1.2221286e-6,1.9720703e-7)">
	<defs
   id="defs20815" />

	<clipPath
   id="clipPath20962">
		<use
   xlink:href="#SVGID_1_"
   style="overflow:visible"
   id="use20960" />

	</clipPath>

	<g
   class="st0"
   clip-path="url(#SVGID_2_)"
   id="g20822">
		<path
   class="st1"
   d="M 115,25.4 C 105.3,13 91.1,5.1 75.4,5.1 45,5.1 22.7,33.4 22.7,64 c 0,21.3 14.2,37.3 29.9,37.3 1.5,0 2.9,-0.1 4.4,-0.4 C 46.4,93.2 39.7,79.2 39.7,64 c 0,-24.2 16.4,-43.1 35.7,-43.1 21.1,0 35.7,20.9 35.7,43.1 -0.1,16.4 -5.9,32.7 -16.2,44.7 -9,10.5 -20.6,17.1 -33.4,19.2 0,0 1.1,0.1 2.5,0.1 35.3,0 64,-28.7 64,-64 0,-14.5 -4.8,-27.9 -13,-38.6 z M 105.3,64 c 0,-21.3 -14.2,-37.3 -29.9,-37.3 -1.5,0 -2.9,0.1 -4.4,0.4 10.6,7.7 17.3,21.7 17.3,36.9 0,24.2 -16.4,43.1 -35.7,43.1 C 31.5,107.1 16.9,86.2 16.9,64 17,47.6 22.8,31.3 33.1,19.3 42.1,8.8 53.7,2.2 66.5,0.1 66.5,0.1 65.4,0 64,0 28.7,0 0,28.7 0,64 0,78.5 4.8,91.9 13,102.6 22.7,115 36.9,122.8 52.6,122.8 83,122.9 105.3,94.6 105.3,64 Z"
   id="path20820"
   style="clip-rule:evenodd;fill:#0089db;fill-rule:evenodd" />

	</g>

</g>
  </g>
</svg>
