<?xml version="1.0" encoding="UTF-8" standalone="no"?>
<svg
   id="Layer_1"
   data-name="Layer 1"
   viewBox="0 0 128 128"
   version="1.1"
   sodipodi:docname="okb-okb-logo.svg"
   width="128"
   height="128"
   inkscape:export-filename="..\Mainnet\chains\okt.png"
   inkscape:export-xdpi="96"
   inkscape:export-ydpi="96"
   xmlns:inkscape="http://www.inkscape.org/namespaces/inkscape"
   xmlns:sodipodi="http://sodipodi.sourceforge.net/DTD/sodipodi-0.dtd"
   xmlns="http://www.w3.org/2000/svg"
   xmlns:svg="http://www.w3.org/2000/svg"
   xmlns:rdf="http://www.w3.org/1999/02/22-rdf-syntax-ns#"
   xmlns:cc="http://creativecommons.org/ns#"
   xmlns:dc="http://purl.org/dc/elements/1.1/">
  <defs
     id="defs16" />
  <sodipodi:namedview
     id="namedview14"
     pagecolor="#ffffff"
     bordercolor="#000000"
     borderopacity="0.25"
     inkscape:showpageshadow="2"
     inkscape:pageopacity="0.0"
     inkscape:pagecheckerboard="0"
     inkscape:deskcolor="#d1d1d1"
     showgrid="false" />
  <title
     id="title2">okb-okb-logo</title>
  <circle
     style="fill:#ffffff;fill-opacity:1;stroke-width:0;stroke-linejoin:bevel;stroke-opacity:0.684597"
     id="path299"
     cx="64"
     cy="64"
     r="64" />
  <g
     id="Path-raw"
     transform="matrix(0.56603774,0,0,0.56603774,3.9999996,3.9999996)">
    <circle
       id="Oval"
       cx="106"
       cy="48"
       r="48"
       style="fill:#88bdf3" />
    <circle
       id="Oval-Copy"
       cx="106"
       cy="164"
       r="48"
       style="fill:#3075ee" />
    <circle
       id="Oval-Copy-2"
       cx="164"
       cy="106"
       r="48"
       style="fill:#5795f1" />
    <circle
       id="Oval-Copy-3"
       cx="48"
       cy="106"
       r="48"
       style="fill:#205fec" />
    <path
       id="Combined-Shape"
       d="M 94.7,94.7 A 48,48 0 0 1 59.4,59.4 48.31,48.31 0 0 1 94.7,94.7 Z"
       style="fill:#134bef" />
    <path
       id="Combined-Shape-2"
       data-name="Combined-Shape"
       d="M 59.3,152.7 A 48,48 0 0 1 94.6,117.4 48.31,48.31 0 0 1 59.3,152.7 Z"
       style="fill:#0932e8" />
    <path
       id="Combined-Shape-3"
       data-name="Combined-Shape"
       d="m 117.3,117.3 a 48,48 0 0 1 35.3,35.3 48.31,48.31 0 0 1 -35.3,-35.3 z"
       style="fill:#164bea" />
    <path
       id="Combined-Shape-4"
       data-name="Combined-Shape"
       d="M 152.7,59.3 A 48,48 0 0 1 117.4,94.6 48.31,48.31 0 0 1 152.7,59.3 Z"
       style="fill:#3170f1" />
  </g>
  <metadata
     id="metadata18">
    <rdf:RDF>
      <cc:Work
         rdf:about="">
        <dc:title>okb-okb-logo</dc:title>
      </cc:Work>
    </rdf:RDF>
  </metadata>
</svg>
