<?xml version="1.0" encoding="UTF-8" standalone="no"?>
<!-- Created with Inkscape (http://www.inkscape.org/) -->

<svg
   width="128"
   height="128"
   viewBox="0 0 128 128"
   version="1.1"
   id="svg265"
   inkscape:export-filename="OKXchain.png"
   inkscape:export-xdpi="96"
   inkscape:export-ydpi="96"
   xmlns:inkscape="http://www.inkscape.org/namespaces/inkscape"
   xmlns:sodipodi="http://sodipodi.sourceforge.net/DTD/sodipodi-0.dtd"
   xmlns="http://www.w3.org/2000/svg"
   xmlns:svg="http://www.w3.org/2000/svg">
  <sodipodi:namedview
     id="namedview267"
     pagecolor="#ffffff"
     bordercolor="#000000"
     borderopacity="0.25"
     inkscape:showpageshadow="2"
     inkscape:pageopacity="0.0"
     inkscape:pagecheckerboard="0"
     inkscape:deskcolor="#d1d1d1"
     inkscape:document-units="px"
     showgrid="false" />
  <defs
     id="defs262" />
  <g
     inkscape:label="Layer 1"
     inkscape:groupmode="layer"
     id="layer1"
     transform="scale(0.22145329)">
    <circle
       style="fill:#ffffff;fill-opacity:1;stroke:none;stroke-width:0;stroke-linejoin:bevel;stroke-dasharray:none;stroke-opacity:0.684597"
       id="path485"
       cx="289"
       cy="289"
       r="289" />
    <path
       d="M 195.73563,169.0432 H 66.996205 A 2.9962048,2.9962048 0 0 0 64,172.0394 v 128.73943 a 2.9962048,2.9962048 0 0 0 2.996205,2.99621 H 195.73563 a 2.9962048,2.9962048 0 0 0 2.99621,-2.99621 V 172.0394 a 2.9962048,2.9962048 0 0 0 -2.99621,-2.9962 z m -41.94686,86.82253 a 2.9962048,2.9962048 0 0 1 -2.99621,2.9962 h -38.85328 a 2.9962048,2.9962048 0 0 1 -2.9962,-2.9962 v -38.88325 a 2.9962048,2.9962048 0 0 1 2.9962,-2.9962 h 38.95066 a 2.9962048,2.9962048 0 0 1 2.9962,2.9962 z"
       id="path8"
       style="stroke-width:0.749051" />
    <path
       d="m 465.26673,213.98628 h -38.95066 a 2.9962048,2.9962048 0 0 0 -2.99621,2.9962 v 38.95066 a 2.9962048,2.9962048 0 0 0 2.99621,2.9962 h 38.95066 a 2.9962048,2.9962048 0 0 0 2.9962,-2.9962 v -38.95066 a 2.9962048,2.9962048 0 0 0 -2.9962,-2.9962 z"
       id="path10"
       style="stroke-width:0.749051" />
    <path
       d="m 420.33864,169.0432 h -38.95067 a 2.9962048,2.9962048 0 0 0 -2.9962,2.9962 v 38.95066 a 2.9962048,2.9962048 0 0 0 2.9962,2.99622 h 38.95067 a 2.9962048,2.9962048 0 0 0 2.9962,-2.99622 V 172.0394 a 2.9962048,2.9962048 0 0 0 -2.9962,-2.9962 z"
       id="path12"
       style="stroke-width:0.749051" />
    <path
       d="m 510.15737,169.0432 h -38.95066 a 2.9962048,2.9962048 0 0 0 -2.99621,2.9962 v 38.95066 a 2.9962048,2.9962048 0 0 0 2.99621,2.99622 h 38.95066 a 2.9962048,2.9962048 0 0 0 2.9962,-2.99622 V 172.0394 a 2.9962048,2.9962048 0 0 0 -2.9962,-2.9962 z"
       id="path14"
       style="stroke-width:0.749051" />
    <path
       d="m 420.33864,258.86193 h -38.95067 a 2.9962048,2.9962048 0 0 0 -2.9962,2.9962 v 38.95067 a 2.9962048,2.9962048 0 0 0 2.9962,2.9962 h 38.95067 a 2.9962048,2.9962048 0 0 0 2.9962,-2.9962 v -38.95067 a 2.9962048,2.9962048 0 0 0 -2.9962,-2.9962 z"
       id="path16"
       style="stroke-width:0.749051" />
    <path
       d="m 510.15737,258.86193 h -38.95066 a 2.9962048,2.9962048 0 0 0 -2.99621,2.9962 v 38.95067 a 2.9962048,2.9962048 0 0 0 2.99621,2.9962 h 38.95066 a 2.9962048,2.9962048 0 0 0 2.9962,-2.9962 v -38.95067 a 2.9962048,2.9962048 0 0 0 -2.9962,-2.9962 z"
       id="path18"
       style="stroke-width:0.749051" />
    <path
       d="m 352.91654,169.0432 h -38.95066 a 2.9962048,2.9962048 0 0 0 -2.99621,2.9962 v 38.95066 a 2.9962048,2.9962048 0 0 0 2.99621,2.99622 h 38.95066 a 2.9962048,2.9962048 0 0 0 2.9962,-2.99622 V 172.0394 a 2.9962048,2.9962048 0 0 0 -2.9962,-2.9962 z"
       id="path20"
       style="stroke-width:0.749051" />
    <path
       d="m 352.91654,258.86193 h -38.95066 a 2.9962048,2.9962048 0 0 0 -2.99621,2.9962 v 38.95067 a 2.9962048,2.9962048 0 0 0 2.99621,2.9962 h 38.95066 a 2.9962048,2.9962048 0 0 0 2.9962,-2.9962 v -38.95067 a 2.9962048,2.9962048 0 0 0 -2.9962,-2.9962 z"
       id="path22"
       style="stroke-width:0.749051" />
    <path
       d="m 311.00713,216.91507 a 2.9962048,2.9962048 0 0 0 -0.88388,-2.11982 2.9962048,2.9962048 0 0 0 -2.11233,-0.8764 H 266.06405 V 172.0394 a 2.9962048,2.9962048 0 0 0 -2.9962,-2.9962 h -38.95066 a 2.9962048,2.9962048 0 0 0 -2.99621,2.9962 v 128.67202 a 2.9962048,2.9962048 0 0 0 2.99621,2.9962 h 38.95066 a 2.9962048,2.9962048 0 0 0 2.9962,-2.9962 v -41.87945 h 41.94687 a 2.9962048,2.9962048 0 0 0 2.11233,-0.8764 2.9962048,2.9962048 0 0 0 0.88388,-2.11981 z"
       id="path24"
       style="stroke-width:0.749051" />
    <path
       d="m 310.81986,376.53038 c 0,19.01841 12.53163,32.42643 30.14931,32.42643 17.61768,0 30.14182,-13.40802 30.14182,-32.42643 0,-19.01841 -12.44922,-32.42643 -30.14931,-32.42643 -17.70008,0 -30.14182,13.40802 -30.14182,32.42643 z m 45.69212,0 c 0,12.08969 -6.3969,19.71503 -15.51285,19.71503 -9.11595,0 -15.45292,-7.62534 -15.45292,-19.71503 0,-12.08969 6.30701,-19.72252 15.42296,-19.72252 9.11596,0 15.51285,7.62535 15.51285,19.72252 z m 49.98419,-31.46015 h -14.66642 v 62.9203 h 14.63646 v -17.00346 l 7.01111,-8.14968 16.91358,25.15314 h 17.00346 l -24.19435,-36.45632 22.70374,-26.46398 H 428.9003 l -22.43409,27.25048 z m 66.14872,31.46015 c 0,-11.98482 6.22461,-19.72252 14.98101,-19.72252 6.4793,0 11.13091,4.11978 12.61403,10.77885 L 514,363.03248 c -3.85012,-11.48296 -12.79379,-18.92853 -26.2917,-18.92853 -17.26562,0 -29.70737,13.40802 -29.70737,32.42643 0,19.01841 12.44175,32.42643 29.70737,32.42643 13.48292,0 22.47154,-7.49051 26.2917,-18.92852 l -13.76007,-4.56173 c -1.4981,6.65907 -6.13473,10.77885 -12.61403,10.77885 -8.78637,0 -15.01098,-7.73021 -15.01098,-19.71503 z"
       id="path26"
       style="stroke-width:0.749051" />
    <path
       class="cls-1"
       d="M 64,378.77753 H 288.71536"
       id="path28"
       style="fill:none;stroke:#000000;stroke-width:7.49051px" />
  </g>
</svg>
