<?xml version="1.0" encoding="UTF-8" standalone="no"?>
<!-- Generator: Adobe Illustrator 26.0.1, SVG Export Plug-In . SVG Version: 6.00 Build 0)  -->

<svg
   version="1.1"
   id="Layer_1"
   x="0px"
   y="0px"
   viewBox="0 0 128 128"
   xml:space="preserve"
   sodipodi:docname="Optimism.svg"
   inkscape:export-filename="..\Testnet\Optimism.svg"
   inkscape:export-xdpi="24.576"
   inkscape:export-ydpi="24.576"
   width="128"
   height="128"
   xmlns:inkscape="http://www.inkscape.org/namespaces/inkscape"
   xmlns:sodipodi="http://sodipodi.sourceforge.net/DTD/sodipodi-0.dtd"
   xmlns="http://www.w3.org/2000/svg"
   xmlns:svg="http://www.w3.org/2000/svg"><defs
   id="defs6851" /><sodipodi:namedview
   id="namedview6849"
   pagecolor="#ffffff"
   bordercolor="#000000"
   borderopacity="0.25"
   inkscape:showpageshadow="2"
   inkscape:pageopacity="0.0"
   inkscape:pagecheckerboard="0"
   inkscape:deskcolor="#d1d1d1"
   showgrid="false" />
<style
   type="text/css"
   id="style6840">
	.st0{fill:#FF0420;}
	.st1{fill:#FFFFFF;}
</style>
<circle
   class="st0"
   cx="64"
   cy="64"
   r="64"
   id="circle6842"
   style="stroke-width:0.256" />
<path
   class="st1"
   d="m 45.3376,80.9984 c -3.8144,0 -6.9376,-0.896 -9.3696,-2.688 -2.4064,-1.8176 -3.6096,-4.4288 -3.6096,-7.7824 0,-0.7168 0.0768,-1.5616 0.2304,-2.5856 0.4096,-2.304 0.9984,-5.0688 1.7664,-8.32 2.176,-8.8064 7.808,-13.2096 16.8704,-13.2096 2.4576,0 4.6848,0.4096 6.6304,1.2544 1.9456,0.7936 3.4816,2.0224 4.608,3.6608 1.1264,1.6128 1.6896,3.5328 1.6896,5.76 0,0.6656 -0.0768,1.5104 -0.2304,2.5344 -0.4864,2.8416 -1.0496,5.632 -1.7408,8.32 -1.1264,4.3776 -3.0464,7.68 -5.8112,9.856 -2.7392,2.1504 -6.4256,3.2 -11.0336,3.2 z m 0.6912,-6.912 c 1.792,0 3.3024,-0.5376 4.5568,-1.5872 1.28,-1.0496 2.2016,-2.6624 2.7392,-4.864 0.7424,-3.0208 1.3056,-5.632 1.6896,-7.8848 0.128,-0.6656 0.2048,-1.3568 0.2048,-2.0736 0,-2.9184 -1.5104,-4.3776 -4.5568,-4.3776 -1.792,0 -3.328,0.5376 -4.608,1.5872 -1.2544,1.0496 -2.1504,2.6624 -2.688,4.864 -0.5888,2.1504 -1.152,4.7616 -1.7408,7.8848 -0.128,0.64 -0.2048,1.3056 -0.2048,2.0224 -0.0256,2.9696 1.536,4.4288 4.608,4.4288 z"
   id="path6844"
   style="stroke-width:0.256" />
<path
   class="st1"
   d="m 66.3808,80.5376 c -0.3584,0 -0.6144,-0.1024 -0.8192,-0.3328 -0.1536,-0.256 -0.2048,-0.5376 -0.1536,-0.8704 l 6.6304,-31.232 c 0.0512,-0.3584 0.2304,-0.64 0.5376,-0.8704 0.2816,-0.2304 0.5888,-0.3328 0.9216,-0.3328 H 86.272 c 3.5584,0 6.4,0.7424 8.5504,2.2016 2.176,1.4848 3.2768,3.6096 3.2768,6.4 0,0.7936 -0.1024,1.6384 -0.2816,2.5088 -0.7936,3.6864 -2.4064,6.4 -4.864,8.1664 -2.4064,1.7664 -5.7088,2.6368 -9.9072,2.6368 H 76.5696 L 74.368,79.3344 c -0.0768,0.3584 -0.2304,0.64 -0.5376,0.8704 -0.2816,0.2304 -0.5888,0.3328 -0.9216,0.3328 z M 83.3792,62.1824 c 1.3568,0 2.5088,-0.3584 3.5072,-1.1008 1.024,-0.7424 1.6896,-1.792 2.0224,-3.1744 0.1024,-0.5376 0.1536,-1.024 0.1536,-1.4336 0,-0.9216 -0.2816,-1.6384 -0.8192,-2.1248 -0.5376,-0.512 -1.4848,-0.768 -2.7904,-0.768 h -5.76 l -1.8176,8.6016 z"
   id="path6846"
   style="stroke-width:0.256" />
</svg>
