<?xml version="1.0" encoding="UTF-8" standalone="no"?>
<!-- Generator: Adobe Illustrator 24.0.0, SVG Export Plug-In . SVG Version: 6.00 Build 0)  -->

<svg
   version="1.1"
   id="Layer_1"
   x="0px"
   y="0px"
   viewBox="0 0 128 128"
   xml:space="preserve"
   sodipodi:docname="secret.logo.svg"
   width="128"
   height="128"
   inkscape:export-filename="..\Mainnet_128x128\chains\secret.png"
   inkscape:export-xdpi="96"
   inkscape:export-ydpi="96"
   xmlns:inkscape="http://www.inkscape.org/namespaces/inkscape"
   xmlns:sodipodi="http://sodipodi.sourceforge.net/DTD/sodipodi-0.dtd"
   xmlns="http://www.w3.org/2000/svg"
   xmlns:svg="http://www.w3.org/2000/svg"><defs
   id="defs3961" /><sodipodi:namedview
   id="namedview3959"
   pagecolor="#ffffff"
   bordercolor="#000000"
   borderopacity="0.25"
   inkscape:showpageshadow="2"
   inkscape:pageopacity="0.0"
   inkscape:pagecheckerboard="0"
   inkscape:deskcolor="#d1d1d1"
   showgrid="false" />
<style
   type="text/css"
   id="style3950">
	.secret0{fill:#1B1B1B;stroke:#FFFFFF;stroke-width:4;}
	.secret1{fill-rule:evenodd;clip-rule:evenodd;fill:#FFFFFF;}
	.secret2{fill:none;stroke:#FFFFFF;stroke-width:2;stroke-linecap:round;}
</style>
<circle
   class="secret0"
   cx="64"
   cy="64"
   r="61.901638"
   id="circle3952" />
<path
   class="secret1"
   d="m 82.15082,45.84918 c 0.839344,0.839345 2.203278,0.734427 2.832787,-0.209836 0.629508,-0.734426 0.52459,-1.888524 -0.209837,-2.518033 -6.92459,-6.609836 -13.114754,-9.967213 -23.396721,-9.442622 -10.806557,0.52459 -20.354098,6.190163 -19.72459,18.150819 0.52459,10.596722 10.806557,14.478689 19.829508,17.940984 6.92459,2.622951 13.009836,4.931147 13.32459,9.862295 0.314754,5.455738 -5.245901,8.708197 -10.072131,9.022951 -9.127869,0.52459 -14.478688,-2.727869 -20.459016,-8.498361 -0.734426,-0.734426 -1.888525,-0.734426 -2.622951,-0.104918 -0.839344,0.734426 -0.839344,1.993443 -0.104918,2.832787 6.714754,6.714754 13.639344,10.072131 23.711475,9.547541 10.072132,-0.734426 22.452459,-6.4 21.822951,-18.360656 C 86.557377,63.685246 76.695082,59.803279 67.777049,56.445902 60.432787,53.613115 53.613115,50.990164 53.298361,45.009836 c -0.209836,-4.301639 4.931147,-7.44918 8.603278,-7.659016 8.918033,-0.419672 14.478689,2.727869 20.249181,8.49836 z m 1.154098,28.432787 c 0,4.616394 -2.518033,8.603279 -6.295082,10.911476 L 76.8,85.088525 c 1.363934,-1.888525 1.57377,-4.30164 1.57377,-6.609836 0,-6.819673 -7.44918,-9.442623 -15.318032,-12.27541 -8.708197,-3.147541 -17.836066,-6.4 -17.836066,-15.632787 0,-4.196722 1.888525,-8.708197 5.560656,-10.806558 l 0.104918,0.209836 c -0.944262,1.993443 -1.363935,4.196722 -1.363935,6.4 0,7.554099 8.288525,10.596722 16.681968,13.744263 8.603278,3.147541 17.101639,6.295082 17.101639,14.163934 z"
   id="path3954"
   style="stroke-width:1.04918" />
<path
   class="secret2"
   d="m 63.47541,113.31148 c 27.488524,0 49.83607,-22.347546 49.83607,-49.83607 0,-27.488525 -22.347546,-49.836066 -49.83607,-49.836066 -27.488525,0 -49.836066,22.347541 -49.836066,49.836066 0,27.488524 22.347541,49.83607 49.836066,49.83607 z"
   id="path3956" />
</svg>
