<svg width="505" height="505" viewBox="0 0 505 505" fill="none" xmlns="http://www.w3.org/2000/svg">
<g clip-path="url(#clip0_5937_2415)">
<circle cx="252.5" cy="252.5" r="252.5" fill="black"/>
<path d="M376.448 145.078L335.027 166.175L135.01 268.025C134.334 262.868 133.993 257.673 133.991 252.471C134.019 231.719 139.469 211.333 149.802 193.334C160.135 175.335 174.992 160.347 192.902 149.854C210.812 139.362 231.153 133.729 251.911 133.514C272.668 133.299 293.122 138.509 311.245 148.628L334.954 136.552L338.491 134.747C316.772 118.988 291.118 109.539 264.363 107.444C237.609 105.35 210.796 110.691 186.888 122.878C162.981 135.065 142.909 153.623 128.891 176.501C114.874 199.379 107.457 225.686 107.459 252.515C107.459 256.22 107.6 259.911 107.881 263.588C108.275 268.794 107.121 274 104.562 278.552C102.003 283.103 98.1552 286.796 93.5019 289.167L81 295.539V325.265L117.807 306.51L129.727 300.428L141.472 294.448L352.332 187.04L376.026 174.978L425 150.025V120.314L376.448 145.078Z" fill="#F9F9F9"/>
<path d="M425 179.765L153.45 317.99L129.756 330.081L81 354.918V384.615L129.421 359.952L170.842 338.855L371.063 236.859C371.739 242.051 372.08 247.28 372.081 252.515C372.069 273.292 366.62 293.704 356.277 311.725C345.934 329.746 331.056 344.749 313.12 355.245C295.184 365.741 274.815 371.364 254.033 371.557C233.251 371.75 212.78 366.505 194.653 356.344L193.197 357.115L167.495 370.21C189.208 385.97 214.857 395.422 241.608 397.522C268.358 399.621 295.168 394.287 319.076 382.108C342.984 369.93 363.059 351.381 377.082 328.511C391.106 305.641 398.532 279.34 398.541 252.515C398.541 248.776 398.395 245.036 398.119 241.341C397.725 236.136 398.879 230.932 401.435 226.381C403.99 221.83 407.834 218.136 412.483 215.762L425 209.389V179.765Z" fill="#F9F9F9"/>
</g>
<defs>
<clipPath id="clip0_5937_2415">
<rect width="505" height="505" fill="white"/>
</clipPath>
</defs>
</svg>
