<?xml version="1.0" encoding="UTF-8" standalone="no"?>
<!-- Created with Inkscape (http://www.inkscape.org/) -->

<svg
   width="127.99999"
   height="127.99999"
   viewBox="0 0 33.866664 33.866664"
   version="1.1"
   id="svg577"
   inkscape:export-filename="..\Mainnet_128x128\chains\terra.png"
   inkscape:export-xdpi="96"
   inkscape:export-ydpi="96"
   sodipodi:docname="cly.svg"
   xml:space="preserve"
   inkscape:version="1.2.2 (732a01da63, 2022-12-09)"
   xmlns:inkscape="http://www.inkscape.org/namespaces/inkscape"
   xmlns:sodipodi="http://sodipodi.sourceforge.net/DTD/sodipodi-0.dtd"
   xmlns="http://www.w3.org/2000/svg"
   xmlns:svg="http://www.w3.org/2000/svg"><sodipodi:namedview
     id="namedview579"
     pagecolor="#ffffff"
     bordercolor="#000000"
     borderopacity="0.25"
     inkscape:showpageshadow="2"
     inkscape:pageopacity="0.0"
     inkscape:pagecheckerboard="0"
     inkscape:deskcolor="#d1d1d1"
     inkscape:document-units="mm"
     showgrid="false"
     inkscape:zoom="6.2968754"
     inkscape:cx="52.645158"
     inkscape:cy="66.38213"
     inkscape:window-width="1920"
     inkscape:window-height="1009"
     inkscape:window-x="-8"
     inkscape:window-y="-8"
     inkscape:window-maximized="1"
     inkscape:current-layer="layer1" /><defs
     id="defs574"><linearGradient
       id="f"
       x1="41.637001"
       x2="59.921001"
       y1="598.29303"
       y2="598.29303"
       gradientTransform="matrix(0.52916667,0,0,0.52916667,-1.075972e-6,-287.86667)"
       gradientUnits="userSpaceOnUse"><stop
         offset="0"
         stop-color="#58c66b"
         id="stop2970" /><stop
         offset="1"
         stop-color="#5491f6"
         id="stop2972" /></linearGradient><linearGradient
       id="e"
       x1="17.27"
       x2="64"
       y1="569.60602"
       y2="569.60602"
       gradientTransform="matrix(0.52916667,0,0,0.52916667,-1.075972e-6,-287.86667)"
       gradientUnits="userSpaceOnUse"><stop
         offset="0"
         stop-color="#58c66b"
         id="stop2963" /><stop
         offset="1"
         stop-color="#5491f6"
         id="stop2965" /></linearGradient><linearGradient
       id="d"
       x1="0"
       x2="19.716999"
       y1="585.099"
       y2="585.099"
       gradientTransform="matrix(0.52916667,0,0,0.52916667,-1.075972e-6,-287.86667)"
       gradientUnits="userSpaceOnUse"><stop
         offset="0"
         stop-color="#58c66b"
         id="stop2956" /><stop
         offset="1"
         stop-color="#5491f6"
         id="stop2958" /></linearGradient><linearGradient
       id="c"
       x1="3.3110001"
       x2="23.726999"
       y1="554.677"
       y2="554.677"
       gradientTransform="matrix(0.52916667,0,0,0.52916667,-1.075972e-6,-287.86667)"
       gradientUnits="userSpaceOnUse"><stop
         offset="0"
         stop-color="#58c66b"
         id="stop2949" /><stop
         offset="1"
         stop-color="#5491f6"
         id="stop2951" /></linearGradient><linearGradient
       id="b-7"
       x1="35.362999"
       x2="35.362999"
       y1="572.98798"
       y2="544.85901"
       gradientTransform="matrix(0.52916667,0,0,0.52916667,-1.075972e-6,-287.86667)"
       gradientUnits="userSpaceOnUse"><stop
         offset="0"
         stop-color="#4366c2"
         id="stop2936" /><stop
         offset=".15"
         stop-color="#3458b8"
         id="stop2938" /><stop
         offset=".4"
         stop-color="#2348ac"
         id="stop2940" /><stop
         offset=".67"
         stop-color="#193fa5"
         id="stop2942" /><stop
         offset="1"
         stop-color="#163ca3"
         id="stop2944" /></linearGradient><linearGradient
       id="a-5"
       x1="43.755001"
       x2="43.755001"
       y1="605.12299"
       y2="575.01202"
       gradientTransform="matrix(0.52916667,0,0,0.52916667,-1.075972e-6,-287.86667)"
       gradientUnits="userSpaceOnUse"><stop
         offset="0"
         stop-color="#4366c2"
         id="stop2923" /><stop
         offset=".15"
         stop-color="#3458b8"
         id="stop2925" /><stop
         offset=".4"
         stop-color="#2348ac"
         id="stop2927" /><stop
         offset=".67"
         stop-color="#193fa5"
         id="stop2929" /><stop
         offset="1"
         stop-color="#163ca3"
         id="stop2931" /></linearGradient></defs><g
     inkscape:label="Layer 1"
     inkscape:groupmode="layer"
     id="layer1"><circle
       style="display:inline;fill:#ffffff;fill-opacity:1;stroke:none;stroke-width:0;stroke-linecap:butt;stroke-linejoin:bevel;stroke-dasharray:none;stroke-opacity:1;paint-order:fill markers stroke"
       id="path800"
       cx="16.933332"
       cy="16.933332"
       r="16.933332" /><path
       fill="#ffffff"
       d="M -1.075972e-6,-0.52916753 H 33.866666 V 33.337499 H -1.075972e-6 Z"
       opacity="0"
       id="path2921"
       style="stroke-width:0.529166" /><path
       fill="url(#a)"
       d="m 14.552081,26.405415 c 0.952501,3.439584 4.233335,6.085418 5.926668,5.979584 0.05292,0 6.35,-1.164167 9.842501,-6.985001 2.69875,-4.497916 1.799166,-8.837084 -1.905,-8.942915 -1.27,0.05292 -15.610418,3.386666 -13.864169,9.948332"
       id="path2934"
       style="fill:url(#a-5);stroke-width:0.529166" /><path
       fill="url(#b)"
       d="M 28.098749,4.2862493 C 23.389165,0.26458239 16.8275,-0.68791763 11.165416,1.8520829 10.795,2.0108232 10.4775,2.1695826 10.159999,2.3283325 9.9483317,2.4341778 9.7366657,2.5929149 9.5249997,2.6987496 h 0.05292 C 8.8899994,3.1749992 8.3079172,3.7041651 7.8316676,4.3391656 3.2808334,10.424583 18.679583,14.869582 26.934584,14.869582 c 3.81,2.751666 4.868334,-7.6729166 1.164167,-10.5833327 z"
       id="path2947"
       style="fill:url(#b-7);stroke-width:0.529166" /><path
       fill="url(#c)"
       d="M 12.117916,4.3920829 C 10.001249,7.5670835 2.9104153,9.8424983 1.7462488,9.4720833 L 1.9049987,9.1545829 C 2.2754158,8.3608329 2.7516654,7.6199987 3.2808313,6.8791656 4.3391652,5.5033331 5.55625,4.2333331 6.9849999,3.2279154 7.4083321,2.9104146 7.8845818,2.5929149 8.3079162,2.3283325 8.9958317,1.9049992 9.8424987,1.693333 10.63625,1.693333 c 3.174999,0.052917 1.481666,2.5929163 1.481666,2.5929163"
       id="path2954"
       style="fill:url(#c);stroke-width:0.529166" /><path
       fill="url(#d)"
       d="m 10.371665,26.987499 c 0.158741,1.005416 0,4.974166 -0.211666,5.291666 -0.158759,0 -0.5291683,0.05292 -1.5874994,-0.582082 C 7.9904154,31.379582 7.4612495,31.009165 6.9320815,30.638749 6.2441657,30.109582 5.6091652,29.580414 4.9741657,28.945415 4.3391652,28.363333 3.8099993,27.675415 3.2808313,26.987499 2.2224985,25.558749 1.4287489,24.024165 0.89958232,22.330832 c -0.2645834,-0.846667 -0.5291668,-1.746249 -0.635,-2.592917 -0.3175,-1.799166 -0.3175,-3.704166 0,-5.503332 0.15875,-0.899584 0.3704166,-1.74625 0.635,-2.592919 0.052916,-0.158759 0.10583358,-0.3175 0.15875008,-0.529166 1.2170834,1.640416 2.592917,3.122085 3.8099997,4.762501 1.2170838,1.640416 2.6987499,4.127499 3.0162497,4.656665 2.0108339,3.439584 2.3283332,5.503335 2.4870832,6.455835"
       id="path2961"
       style="fill:url(#d);stroke-width:0.529166" /><path
       fill="url(#e)"
       d="m 33.866666,16.986249 c 0,2.116665 -0.423334,4.233333 -1.164166,6.244165 C 30.691666,25.347083 17.250831,20.108333 17.145,20.055415 15.292916,19.261664 9.6837497,16.774583 9.2074997,12.911664 8.466666,7.3554152 19.685,3.4924989 24.60625,3.333749 c 0.582082,0 2.38125,0 3.439582,0.8995841 3.704168,3.2279158 5.820834,7.8845819 5.820834,12.7529159"
       id="path2968"
       style="fill:url(#e);stroke-width:0.529166" /><path
       fill="url(#f)"
       d="m 24.765,32.067499 c -1.481668,0.687916 -3.069168,0.211666 -2.645835,-1.27 0.793751,-2.751666 7.831666,-5.556251 9.366251,-5.715 0.211666,0 0.264584,0.105834 0.211666,0.264584 -1.640416,2.8575 -4.074582,5.185832 -6.932082,6.720416"
       id="path2975"
       style="fill:url(#f);stroke-width:0.529166" /></g></svg>
