<?xml version="1.0" encoding="UTF-8" standalone="no"?>
<!-- Created with Inkscape (http://www.inkscape.org/) -->

<svg
   width="128"
   height="128"
   viewBox="0 0 33.866667 33.866667"
   version="1.1"
   id="svg353"
   inkscape:export-filename="Gnosis.png"
   inkscape:export-xdpi="21.259516"
   inkscape:export-ydpi="21.259516"
   sodipodi:docname="xdai.svg"
   xmlns:inkscape="http://www.inkscape.org/namespaces/inkscape"
   xmlns:sodipodi="http://sodipodi.sourceforge.net/DTD/sodipodi-0.dtd"
   xmlns="http://www.w3.org/2000/svg"
   xmlns:svg="http://www.w3.org/2000/svg">
  <sodipodi:namedview
     id="namedview355"
     pagecolor="#ffffff"
     bordercolor="#000000"
     borderopacity="0.25"
     inkscape:showpageshadow="2"
     inkscape:pageopacity="0.0"
     inkscape:pagecheckerboard="0"
     inkscape:deskcolor="#d1d1d1"
     inkscape:document-units="mm"
     showgrid="false" />
  <defs
     id="defs350" />
  <g
     inkscape:label="Layer 1"
     inkscape:groupmode="layer"
     id="layer1"
     transform="scale(0.22145328)">
    <circle
       style="fill:#f0ebde;fill-opacity:1;stroke-width:0.686855"
       id="path474"
       cx="76.464584"
       cy="76.464584"
       r="76.464584" />
    <path
       style="fill:#00193c;stroke-width:0.309092"
       d="m 49.202549,85.64241 c 3.801834,0 7.510941,-1.267278 10.509135,-3.585469 L 35.602492,57.94775 c -5.810932,7.510939 -4.420018,18.329167 3.090923,24.140099 3.029103,2.287283 6.7073,3.554561 10.509134,3.554561 z"
       id="path2596" />
    <path
       style="fill:#00193c;stroke-width:0.309092"
       d="m 120.91194,68.425975 c 0,-3.801834 -1.26729,-7.510941 -3.58547,-10.509135 L 93.217281,82.026032 c 7.510939,5.810932 18.298249,4.420017 24.109189,-3.090923 2.31818,-2.998194 3.58547,-6.7073 3.58547,-10.509134 z"
       id="path2598" />
    <path
       style="fill:#00193c;stroke-width:0.309092"
       d="m 133.05926,42.184047 -10.66367,10.663682 c 8.59275,10.292769 7.23274,25.623742 -3.06002,34.216505 -9.02549,7.541854 -22.130999,7.541854 -31.156495,0 L 76.464481,98.778828 64.780796,87.095143 c -10.29277,8.592765 -25.623743,7.232755 -34.216506,-3.060013 -7.54185,-9.025492 -7.54185,-22.131 0,-31.156492 l -5.470932,-5.470932 -5.192749,-5.223659 c -6.274571,10.32368 -9.581858,22.192821 -9.581858,34.278325 0,36.534698 29.611032,66.145738 66.14573,66.145738 36.534689,0 66.145719,-29.61104 66.145719,-66.145738 0.031,-12.085504 -3.30728,-23.954645 -9.55094,-34.278325 z"
       id="path2600" />
    <path
       style="fill:#00193c;stroke-width:0.309092"
       d="M 124.31195,30.809455 C 99.120941,4.3820719 57.269856,3.3929759 30.842473,28.583991 c -0.77273,0.741821 -1.514552,1.483642 -2.225464,2.225464 -1.638189,1.730915 -3.183649,3.523651 -4.636383,5.409113 L 76.464481,88.733332 128.94833,36.218568 c -1.42182,-1.885462 -2.99819,-3.678198 -4.63638,-5.409113 z M 76.464481,18.971223 c 15.45461,0 29.858299,5.96548 40.676529,16.845525 L 76.464481,76.493281 35.787947,35.816748 C 46.606175,24.936703 61.009871,18.971223 76.464481,18.971223 Z"
       id="path2602" />
  </g>
</svg>
