<svg xmlns="http://www.w3.org/2000/svg" width="128" height="128" xmlns:v="https://vecta.io/nano"><path d="M95.689.35l14.823 14.743-39.073 38.855A10.524 10.524 0 0 1 64.02 57a10.482 10.482 0 0 1-7.409-3.052L17.54 15.093 32.363.35l31.663 31.488zm17.49 17.385L128 32.478l-31.663 31.49 31.657 31.484-14.817 14.737L74.11 71.334a10.384 10.384 0 0 1 0-14.743zM56.565 74.052a10.526 10.526 0 0 1 14.823 0l39.071 38.855-14.823 14.743-31.661-31.488-31.659 31.488-14.823-14.741zM14.823 17.797l39.071 38.855a10.374 10.374 0 0 1 0 14.743L14.823 110.26 0 95.52l31.663-31.49L0 32.54z"/></svg>