<svg xmlns="http://www.w3.org/2000/svg" width="128" height="128" viewBox="0 0 33.867 33.867" xmlns:v="https://vecta.io/nano"><path d="M15.469 22.96L5.433 25.284c-.366.092-.641.459-.641.825v6.909a.81.81 0 0 0 1.037.826l14.001-3.24c.58-.123.824-.673.58-1.192l-2.532-5.228c-.397-.825 0-1.681.885-1.865l9.151-2.201c.641-.153 1.19-.825 1.19-1.498v-6.39c0-.581-.457-.978-1.037-.825l-13.208 3.149c-.824.183-1.19.978-.824 1.742l2.318 4.799c.397.825 0 1.651-.885 1.865zM8.85 5.688l2.623 5.38c.336.703 0 1.437-.763 1.59l-4.85 1.131a1.5 1.5 0 0 0-1.098 1.376v5.778c0 .978.793 1.59 1.739 1.376l4.515-1.039c.61-.122 1.098-.764 1.098-1.376l.031-5.931c0-.825.671-1.651 1.464-1.834l14.794-3.546a.88.88 0 0 0 .641-.825V.858c0-.581-.457-.978-1.037-.825L9.43 4.496c-.58.122-.824.673-.58 1.192z"/></svg>