<?xml version="1.0" encoding="UTF-8" standalone="no"?>
<!-- Created with Inkscape (http://www.inkscape.org/) -->

<svg
   width="127.99999"
   height="128"
   viewBox="0 0 33.866664 33.866667"
   version="1.1"
   id="svg4195"
   inkscape:export-filename="oasis.svg"
   inkscape:export-xdpi="96"
   inkscape:export-ydpi="96"
   sodipodi:docname="godwoken.svg"
   xmlns:inkscape="http://www.inkscape.org/namespaces/inkscape"
   xmlns:sodipodi="http://sodipodi.sourceforge.net/DTD/sodipodi-0.dtd"
   xmlns="http://www.w3.org/2000/svg"
   xmlns:svg="http://www.w3.org/2000/svg">
  <sodipodi:namedview
     id="namedview4197"
     pagecolor="#ffffff"
     bordercolor="#000000"
     borderopacity="0.25"
     inkscape:showpageshadow="2"
     inkscape:pageopacity="0.0"
     inkscape:pagecheckerboard="0"
     inkscape:deskcolor="#d1d1d1"
     inkscape:document-units="mm"
     showgrid="false" />
  <defs
     id="defs4192" />
  <g
     inkscape:label="Layer 1"
     inkscape:groupmode="layer"
     id="layer1"
     transform="scale(0.71111111)">
    <circle
       style="fill:#f5b5ff;fill-opacity:1;stroke-width:0;stroke-linejoin:bevel;stroke-opacity:0.684597"
       id="path4316"
       cx="23.8125"
       cy="23.8125"
       r="23.8125" />
    <path
       d="m 22.300167,30.03656 -10.364211,2.399326 c -0.378027,0.09471 -0.661541,0.473553 -0.661541,0.852374 v 7.134779 c 0,0.600036 0.472514,0.978747 1.071074,0.852511 l 14.459487,-3.346378 c 0.598534,-0.126511 0.850572,-0.694578 0.598534,-1.231223 l -2.614667,-5.398607 c -0.409533,-0.852374 0,-1.736336 0.913553,-1.925773 l 9.450712,-2.273035 c 0.661515,-0.157851 1.228489,-0.852403 1.228489,-1.546925 v -6.598162 c 0,-0.599844 -0.472433,-1.010251 -1.071103,-0.852401 l -13.640366,3.251728 c -0.85057,0.18941 -1.228598,1.010253 -0.85057,1.799481 l 2.394161,4.956505 c 0.409533,0.8524 0,1.704803 -0.913552,1.9258 z"
       fill="#000000"
       id="path239"
       style="stroke-width:0.27324" />
    <path
       d="m 15.464669,12.199654 2.709208,5.556322 c 0.346524,0.72611 0,1.483807 -0.787561,1.641658 l -5.008857,1.168075 c -0.630037,0.157852 -1.134058,0.789257 -1.134058,1.420661 v 5.966757 c 0,1.010225 0.819039,1.64163 1.795602,1.420633 l 4.662333,-1.073372 c 0.630037,-0.126291 1.134085,-0.789255 1.134085,-1.42066 l 0.03151,-6.124581 c 0,-0.852401 0.693048,-1.704802 1.512087,-1.894212 l 15.278494,-3.662136 c 0.378165,-0.09471 0.661516,-0.473553 0.661516,-0.852402 V 7.2115666 c 0,-0.599832 -0.472434,-1.0102435 -1.071104,-0.8523931 L 16.063229,10.968403 c -0.59856,0.126293 -0.85057,0.694552 -0.59856,1.231251 z"
       fill="#000000"
       id="path241"
       style="stroke-width:0.27324" />
  </g>
</svg>
