<svg xmlns="http://www.w3.org/2000/svg" width="128" height="128" xmlns:v="https://vecta.io/nano"><path d="M128 84.938l-.279-7.398c-.14-.977-1.535-24.707-16.611-45.226S61.976 7.049 60.58 6.77l-7.817-.838v32.105L23.59 9.98H2.373l36.013 34.059H0l.279 7.258c0 1.256 1.117 31.546 18.984 47.878s40.061 22.892 47.459 22.892h3.35l6.002-.838V87.032l30.988 33.78h18.844L93.104 84.938zm-98.268 5.025c-9.073-8.375-13.54-23.032-14.796-31.965h67.839s5.863-1.675 5.863-6.979-5.863-6.979-5.863-6.979H66.722V22.124c9.492 2.373 25.125 7.538 33.221 18.565a75.795 75.795 0 0 1 12.702 30.29H44.947s-5.304 2.233-5.304 7.119 5.304 6.84 5.304 6.84h17.169v21.357c-6.979-.977-18.146-3.35-32.384-16.332zm50.809-38.805a2.513 2.513 0 0 0-2.513 2.373 2.652 2.652 0 0 0 1.117 2.094 4.606 4.606 0 0 1-3.071-4.327 4.467 4.467 0 0 1 8.933 0 4.606 4.606 0 0 1-3.071 4.327 2.931 2.931 0 0 0 .977-2.094 2.373 2.373 0 0 0-2.373-2.373z"/></svg>