<svg xmlns="http://www.w3.org/2000/svg" width="128" height="128" viewBox="0 0 33.867 33.867" xmlns:v="https://vecta.io/nano"><path d="M33.679 14.403l-.004-.022-.094.004-.003.031-.031.001a7.72 7.72 0 0 1-.255 1.483c-.316 1.129-.845 2.27-1.489 3.212-.713 1.043-1.542 1.816-2.4 2.235-.535.262-1.065.454-1.576.572-.396.089-.787.134-1.16.134-1.294 0-2.479-.544-3.429-1.574-1.468-1.592-2.318-4.33-2.115-6.812.07-.868.209-1.676.343-2.457.285-1.658.531-3.09.071-4.587-.247-.802-.767-1.424-1.468-1.752-.477-.224-.975-.337-1.481-.337-1.626 0-2.968 1.145-3.622 2.126-.999 1.498-1.497 3.383-1.365 5.173.123 1.675.704 2.779 1.575 4.274l1.294 1.995c.68.989 1.267 1.843 1.557 2.78.402 1.298.123 1.923-.016 2.132-.171.257-.446.406-.818.441a1.33 1.33 0 0 1-.14.006c-1.135 0-1.157-1.55-1.17-2.476v-.021l-.003-.175c-.039-1.815-.736-2.899-1.619-4.273-.554-.862-1.182-1.838-1.733-3.167-.882-2.124-1.103-4.173-.658-6.089l.05-.206c.541-2.133 1.879-4.865 5.176-5.765a7.23 7.23 0 0 1 1.906-.257c1.939 0 3.627.798 4.632 2.189.814 1.125 1.233 2.4 1.283 3.899a9.73 9.73 0 0 1-.028 1.109c-.071.857-.253 1.796-.554 2.871-.61 2.173-.757 4.014-.438 5.471.245 1.118.779 1.969 1.466 2.335.557.297 1.15.447 1.763.447 1.566 0 2.992-.999 3.712-1.989 1.131-1.557 1.727-4.301 1.63-5.952l-.158-1.572-.002-.006-.001-.004a16.97 16.97 0 0 0-6.139-7.094C23.423.947 20.229 0 16.934 0A16.82 16.82 0 0 0 4.959 4.959C1.762 8.158 0 12.41 0 16.933c0 1.315.152 2.626.452 3.899l.005.022.094-.014s-.001-.028-.002-.03l.031-.005c-.058-1.008.033-1.978.265-2.807a11.17 11.17 0 0 1 1.489-3.212c.713-1.042 1.542-1.816 2.4-2.235.531-.26 1.059-.452 1.567-.57a5.31 5.31 0 0 1 1.17-.136c1.294 0 2.48.544 3.429 1.573 1.468 1.592 2.318 4.33 2.115 6.813-.07.869-.209 1.676-.344 2.457-.285 1.658-.531 3.09-.071 4.587.246.802.767 1.424 1.468 1.752.477.224.975.336 1.481.336 1.626 0 2.968-1.145 3.622-2.127.999-1.498 1.497-3.383 1.365-5.173-.123-1.674-.704-2.779-1.575-4.274-.435-.747-.891-1.41-1.294-1.995-.68-.989-1.267-1.843-1.557-2.781-.402-1.298-.123-1.923.016-2.131.171-.257.446-.406.818-.441.047-.005.095-.006.14-.006 1.135 0 1.157 1.548 1.17 2.473l.001.026.003.172c.039 1.815.736 2.899 1.619 4.273.554.862 1.182 1.838 1.733 3.167.854 2.056 1.088 4.044.698 5.908l-.034.155c-.517 2.226-1.846 5.073-5.233 5.998-.625.171-1.266.257-1.906.257-1.939 0-3.627-.798-4.632-2.188-.814-1.125-1.233-2.4-1.283-3.899-.007-.217-.006-.442.001-.667.039-.975.23-2.059.581-3.314.61-2.173.757-4.014.438-5.471-.244-1.118-.779-1.969-1.466-2.335-.557-.297-1.149-.447-1.763-.447-1.565 0-2.992.999-3.712 1.989-1.131 1.557-1.727 4.301-1.63 5.952.06 1.025.165 1.779.339 2.448l.002.006.001.003a16.92 16.92 0 0 0 14.922 8.925 16.82 16.82 0 0 0 11.974-4.959 16.82 16.82 0 0 0 4.959-11.974c0-.845-.063-1.697-.188-2.53z"/></svg>