<?xml version="1.0" encoding="UTF-8" standalone="no"?>
<!-- Created with Inkscape (http://www.inkscape.org/) -->

<svg
   width="127.99999"
   height="128"
   viewBox="0 0 33.866664 33.866667"
   version="1.1"
   id="svg4195"
   inkscape:export-filename="squid.png"
   inkscape:export-xdpi="96"
   inkscape:export-ydpi="96"
   sodipodi:docname="godwoken.svg"
   xmlns:inkscape="http://www.inkscape.org/namespaces/inkscape"
   xmlns:sodipodi="http://sodipodi.sourceforge.net/DTD/sodipodi-0.dtd"
   xmlns="http://www.w3.org/2000/svg"
   xmlns:svg="http://www.w3.org/2000/svg">
  <sodipodi:namedview
     id="namedview4197"
     pagecolor="#ffffff"
     bordercolor="#000000"
     borderopacity="0.25"
     inkscape:showpageshadow="2"
     inkscape:pageopacity="0.0"
     inkscape:pagecheckerboard="0"
     inkscape:deskcolor="#d1d1d1"
     inkscape:document-units="mm"
     showgrid="false" />
  <defs
     id="defs4192" />
  <g
     inkscape:label="Layer 1"
     inkscape:groupmode="layer"
     id="layer1"
     transform="scale(0.71111111)">
    <circle
       style="fill:#000000;fill-opacity:1;stroke-width:0;stroke-linejoin:bevel;stroke-opacity:0.684597"
       id="path4316"
       cx="23.8125"
       cy="23.8125"
       r="23.8125" />
    <path
       d="m 47.361789,20.254545 -0.005,-0.0305 -0.13168,0.005 c 0,0 -0.003,0.0399 -0.004,0.0438 l -0.0438,0.002 c -0.0574,0.73905 -0.17825,1.44123 -0.35927,2.08603 -0.44382,1.58788 -1.18759,3.19184 -2.09352,4.51664 -1.00213,1.46674 -2.16892,2.55369 -3.3748,3.14333 -0.75235,0.36869 -1.49834,0.63897 -2.21632,0.80391 -0.5572,0.12558 -1.10691,0.18851 -1.63168,0.18851 -1.81935,0 -3.48624,-0.76566 -4.82157,-2.21355 -2.06414,-2.23933 -3.25948,-6.08844 -2.97478,-9.57939 0.099,-1.22113 0.2944,-2.35743 0.4829,-3.45575 0.40113,-2.33164 0.74682,-4.34532 0.10008,-6.45048 -0.3468,-1.1277 -1.07919,-2.00203 -2.06413,-2.46332 -0.67058,-0.31436 -1.37055,-0.47348 -2.08216,-0.47348 -2.28701,0 -4.174,1.61061 -5.09407,2.99003 -1.40492,2.10599 -2.10516,4.75781 -1.91915,7.27436 0.17326,2.35548 0.98965,3.90815 2.21466,6.01026 0.6143,1.05342 1.25439,1.98402 1.82018,2.80596 0.95639,1.39078 1.78221,2.59195 2.18971,3.90927 0.56496,1.826 0.17243,2.70421 -0.023,2.99751 -0.24089,0.36204 -0.62761,0.5705 -1.15071,0.62012 -0.0668,0.007 -0.13251,0.009 -0.19627,0.009 -1.59647,0 -1.62696,-2.17946 -1.64498,-3.48236 v -0.0294 c -8.3e-4,-0.0859 -0.003,-0.16772 -0.004,-0.24589 -0.0543,-2.55175 -1.03456,-4.0767 -2.27647,-6.00833 -0.77925,-1.2117 -1.66218,-2.58418 -2.43754,-4.45399 -1.24026,-2.98697 -1.55157,-5.86833 -0.92479,-8.56312 0.0219,-0.0962 0.0457,-0.19239 0.0704,-0.28969 0.76096,-2.99945 2.64213,-6.8408 7.27908,-8.10684 0.87821,-0.24006 1.78026,-0.36204 2.68038,-0.36204 2.72611,0 5.10072,1.12216 6.51424,3.07763 1.14406,1.58206 1.73369,3.37563 1.8041,5.48273 0.0172,0.50092 0.004,1.02596 -0.0391,1.56015 -0.10008,1.20505 -0.35539,2.52598 -0.77925,4.03762 -0.85715,3.05573 -1.06478,5.64462 -0.61625,7.69351 0.34402,1.57152 1.09555,2.76908 2.06136,3.28415 0.78285,0.4172 1.61727,0.62872 2.4794,0.62872 2.20218,0 4.2081,-1.40492 5.21965,-2.79653 1.59066,-2.18888 2.42895,-6.04853 2.29173,-8.36963 -0.0504,-0.8516 -0.12281,-1.57264 -0.22288,-2.21078 l -0.003,-0.009 -0.002,-0.005 c -1.88228,-4.07005 -4.86731,-7.51998 -8.63271,-9.97664 -3.86214,-2.51682 -8.3541,-3.84938996279 -12.98801,-3.84938996279 -6.36094,0 -12.34071,2.47662996279 -16.8385004,6.97413996279 -4.49668,4.49779 -6.97413998213,10.47756 -6.97413998213,16.8385 0,1.84874 0.21345000213,3.69277 0.63537000213,5.48273 l 0.007,0.0313 0.13251,-0.0191 c 0,0 -0.002,-0.0391 -0.003,-0.0419 l 0.0438,-0.007 c -0.0818,-1.41739 0.0466,-2.78212 0.37229998,-3.94724 0.44382,-1.58678 1.18786,-3.19184 2.09352,-4.51665 1.00213,-1.4659 2.16892,-2.55369 3.3748,-3.14332 0.74681,-0.36592 1.48863,-0.63537 2.20412,-0.80115 0.56191,-0.12752 1.11634,-0.19155 1.6458204,-0.19155 1.81935,0 3.48707,0.76483 4.82157,2.21272 2.06414,2.2385 3.25948,6.08844 2.97478,9.58022 -0.099,1.22196 -0.2944,2.35742 -0.48401,3.45574 -0.40113,2.33165 -0.74682,4.34533 -0.10008,6.45021 0.34569,1.1277 1.0792,2.00231 2.06414,2.46332 0.67058,0.31436 1.37054,0.4732 2.08215,0.4732 2.28701,0 4.174,-1.61061 5.09407,-2.99085 1.40492,-2.10599 2.10488,-4.75782 1.91915,-7.27408 -0.17326,-2.35466 -0.98965,-3.90816 -2.21466,-6.01055 -0.61237,-1.05064 -1.25356,-1.98318 -1.81935,-2.80595 -0.95639,-1.39078 -1.78221,-2.59167 -2.18971,-3.9101 -0.56497,-1.82601 -0.17243,-2.70422 0.0219,-2.99668 0.24089,-0.36204 0.62761,-0.57051 1.15071,-0.62013 0.0668,-0.007 0.13334,-0.009 0.19627,-0.009 1.59647,0 1.62696,2.17751 1.64498,3.47764 l 8.3e-4,0.0371 c 8.3e-4,0.0848 0.003,0.16466 0.004,0.24201 0.0543,2.55175 1.03457,4.0767 2.27648,6.00832 0.77925,1.2117 1.66217,2.58502 2.43754,4.45399 1.20117,2.89189 1.5305,5.68732 0.98106,8.30865 -0.0153,0.0723 -0.0316,0.1447 -0.0477,0.21733 -0.72769,3.12974 -2.59555,7.13409 -7.35891,8.43533 -0.87821,0.24007 -1.78027,0.36094 -2.68038,0.36177 -2.72612,0 -5.10073,-1.12189 -6.51424,-3.07735 -1.14406,-1.58206 -1.73342,-3.37563 -1.80411,-5.48273 -0.0105,-0.30577 -0.009,-0.62207 0.002,-0.93809 0.0552,-1.37165 0.32295,-2.89577 0.81723,-4.65968 0.85714,-3.05573 1.06505,-5.64463 0.61624,-7.69351 -0.34374,-1.57263 -1.09527,-2.76909 -2.06108,-3.28415 -0.78285,-0.41721 -1.61643,-0.62872 -2.4794004,-0.62872 -2.20135,0 -4.2081,1.40492 -5.21965,2.79653 -1.59065,2.18888 -2.42895,6.04852 -2.29173,8.36963 0.0848,1.44207 0.23148,2.50241 0.47709,3.44244 l 0.003,0.008 0.002,0.004 c 4.16042,7.74008 12.2026604,12.55029 20.9836804,12.55029 6.36094,0 12.34071,-2.47663 16.8385,-6.97414 4.49751,-4.49779 6.97414,-10.47756 6.97414,-16.83851 0,-1.18869 -0.0887,-2.38597 -0.26474,-3.55776 z"
       id="path23261"
       style="fill:#e6fa36;fill-opacity:1;stroke-width:0.0277213" />
  </g>
</svg>
