<svg xmlns="http://www.w3.org/2000/svg" width="128" height="128" xmlns:v="https://vecta.io/nano"><linearGradient  gradientUnits="userSpaceOnUse" x1="2551.464" y1="437.301" x2="438.066" y2="2550.699"><stop offset="0"/><stop offset="1" stop-color="#07aefe"/></linearGradient><path d="M122.977 39.091c-3.224-7.621-7.84-14.467-13.715-20.344-1.122-1.122-2.278-2.198-3.468-3.226l-.398-.338A63.64 63.64 0 0 0 88.916 5.034C81.024 1.692 72.641 0 64 0S46.98 1.692 39.089 5.029c-7.622 3.226-14.468 7.835-20.343 13.713S8.255 31.466 5.031 39.087C1.691 46.982 0 55.361 0 64.002s1.691 17.02 5.031 24.911c3.224 7.621 7.84 14.467 13.715 20.344.951.951 1.931 1.872 2.933 2.755l.569.497c5.04 4.348 10.687 7.861 16.84 10.461C46.98 126.308 55.364 128 64 128a63.6 63.6 0 0 0 24.911-5.029c7.622-3.222 14.468-7.835 20.343-13.713s10.49-12.723 13.715-20.344C126.304 81.022 128 72.639 128 64.002s-1.687-17.02-5.023-24.911zM64 124.556c-14.447 0-27.729-5.085-38.147-13.559l63.435-26.71-21.722-22.054-.009.009-.043-.043-43.482 47.256C11.42 98.347 3.447 82.089 3.447 64.002 3.447 30.613 30.611 3.449 64 3.449c14.271 0 27.403 4.965 37.765 13.25l-55.984 23.48 21.734 22.015.009-.009.043.043 36.014-44.018c12.841 11.113 20.977 27.52 20.977 45.791 0 33.389-27.164 60.554-60.557 60.554zM32.649 104.73l34.957-37.99 16.202 16.45zm63.353-82.205L67.34 57.555l-16.065-16.27z"/></svg>