<svg width="275" height="97" viewBox="0 0 275 97" fill="none"
    xmlns="http://www.w3.org/2000/svg">
    <path d="M94.0276 37.0662H84.9902V62.919H94.0276C102.287 62.919 107.658 57.8447 107.658 50.0296C107.658 42.1775 102.287 37.0662 94.0276 37.0662ZM90.1756 58.5114V41.4367H93.8424C99.2871 41.4367 102.361 44.659 102.361 50.0296C102.361 55.4002 99.2871 58.5114 93.8424 58.5114H90.1756Z" fill="black"/>
    <path d="M120.354 46.3258C123.021 46.3258 125.169 48.0295 125.243 50.7333H115.502C115.91 47.9184 117.873 46.3258 120.354 46.3258ZM130.095 56.4743H124.503C123.836 57.8447 122.614 58.9559 120.391 58.9559C117.799 58.9559 115.725 57.2521 115.465 54.2149H130.466C130.577 53.5482 130.614 52.8816 130.614 52.2149C130.614 46.1035 126.429 42.0663 120.503 42.0663C114.428 42.0663 110.206 46.1776 110.206 52.6593C110.206 59.104 114.539 63.2523 120.503 63.2523C125.577 63.2523 128.984 60.2522 130.095 56.4743Z" fill="black"/>
    <path d="M134.954 62.919H140.214V46.6591H143.807V42.3997H140.214V41.5478C140.214 39.2514 141.066 38.4366 143.584 38.5107V34.1401C137.806 33.992 134.954 36.3254 134.954 41.3626V42.3997H132.621V46.6591H134.954V62.919Z" fill="black"/>
    <path d="M147.167 62.919H152.352V42.3997H147.167V62.919ZM149.797 39.9552C151.612 39.9552 152.982 38.6218 152.982 36.918C152.982 35.2142 151.612 33.8809 149.797 33.8809C147.945 33.8809 146.611 35.2142 146.611 36.918C146.611 38.6218 147.945 39.9552 149.797 39.9552Z" fill="black"/>
    <path d="M172.476 37.0291H157.476V62.919H172.476V58.6966H162.661V51.8445H171.365V47.7332H162.661V41.2515H172.476V37.0291Z" fill="black"/>
    <path d="M175.855 52.5853C175.855 58.9929 180.003 63.2523 185.226 63.2523C188.448 63.2523 190.744 61.7708 191.967 59.8818V62.919H197.226V35.5106H191.967V45.2516C190.559 43.3257 187.967 42.0663 185.263 42.0663C180.003 42.0663 175.855 46.1776 175.855 52.5853ZM192.004 52.6593C192.004 56.5484 189.411 58.6966 186.559 58.6966C183.781 58.6966 181.151 56.4743 181.151 52.5853C181.151 48.6962 183.781 46.6221 186.559 46.6221C189.411 46.6221 192.004 48.7703 192.004 52.6593Z" fill="black"/>
    <path d="M200.957 52.5853C200.957 58.9929 205.105 63.2523 210.328 63.2523C213.55 63.2523 215.884 61.6597 217.106 59.8818V63.0671C217.106 66.8821 214.884 68.5118 212.032 68.5118C209.439 68.5118 207.513 67.2895 206.994 65.4376H201.846C202.365 70.1415 206.402 73.0304 212.18 73.0304C218.921 73.0304 222.328 68.6229 222.328 63.0671V42.3997H217.106V45.3257C215.884 43.5479 213.55 42.0663 210.328 42.0663C205.105 42.0663 200.957 46.1776 200.957 52.5853ZM217.106 52.6593C217.106 56.5484 214.513 58.6966 211.661 58.6966C208.883 58.6966 206.254 56.4743 206.254 52.5853C206.254 48.6962 208.883 46.6221 211.661 46.6221C214.513 46.6221 217.106 48.7703 217.106 52.6593Z" fill="black"/>
    <path d="M236.208 46.3258C238.875 46.3258 241.023 48.0295 241.097 50.7333H231.356C231.763 47.9184 233.726 46.3258 236.208 46.3258ZM245.949 56.4743H240.356C239.689 57.8447 238.467 58.9559 236.245 58.9559C233.652 58.9559 231.578 57.2521 231.319 54.2149H246.319C246.43 53.5482 246.468 52.8816 246.468 52.2149C246.468 46.1035 242.282 42.0663 236.356 42.0663C230.282 42.0663 226.059 46.1776 226.059 52.6593C226.059 59.104 230.393 63.2523 236.356 63.2523C241.43 63.2523 244.838 60.2522 245.949 56.4743Z" fill="black"/>
    <g clip-path="url(#clip0_1818_790)">
        <path d="M71.8521 55.8504C72.2607 53.834 72.4797 51.7592 72.4797 49.6259C72.4797 47.3465 72.2316 45.1401 71.7645 43.0068C68.0281 41.385 63.9121 40.4937 59.5919 40.4937C51.1411 40.4937 43.4931 43.9128 37.9614 49.4505C43.4931 54.9883 51.1411 58.4075 59.5919 58.4075C63.9559 58.4075 68.101 57.5015 71.8521 55.8504Z" fill="url(#paint0_radial_1818_790)"/>
        <path d="M71.7501 43.0214C68.0137 41.3996 63.8977 40.5083 59.5775 40.5083C51.1413 40.5083 43.4933 43.9274 37.9616 49.4505C32.4299 43.9127 29 36.2417 29 27.7816C29 25.6483 29.2189 23.5734 29.6276 21.557C33.3786 19.9059 37.5237 19 41.8878 19C56.527 19 68.758 29.2719 71.7793 43.0214H71.7501Z" fill="url(#paint1_linear_1818_790)"/>
        <path d="M71.7501 55.8798C68.0137 57.5017 63.8977 58.393 59.5775 58.393C51.1413 58.393 43.4933 54.9739 37.9616 49.4507C32.4299 54.9885 29 62.6596 29 71.1197C29 73.253 29.2189 75.3278 29.6276 77.3442C33.3786 78.9807 37.5237 79.9012 41.8878 79.9012C56.527 79.9012 68.758 69.6293 71.7793 55.8798H71.7501Z" fill="url(#paint2_linear_1818_790)"/>
    </g>
    <defs>
        <radialGradient id="paint0_radial_1818_790" cx="0" cy="0" r="1" gradientUnits="userSpaceOnUse" gradientTransform="translate(44.1061 49.3921) scale(30.3585 25.7213)">
            <stop stop-color="#3C69FF"/>
            <stop offset="1" stop-color="#0034AA"/>
        </radialGradient>
        <linearGradient id="paint1_linear_1818_790" x1="36.5167" y1="24.3332" x2="45.4374" y2="49.3859" gradientUnits="userSpaceOnUse">
            <stop stop-color="#2D5AF1"/>
            <stop offset="1" stop-color="#0034AA"/>
        </linearGradient>
        <linearGradient id="paint2_linear_1818_790" x1="30.3136" y1="68.3873" x2="61.0391" y2="62.9197" gradientUnits="userSpaceOnUse">
            <stop stop-color="#2D5CF3"/>
            <stop offset="1" stop-color="#0034AA"/>
        </linearGradient>
        <clipPath id="clip0_1818_790">
            <rect width="43.4799" height="60.9011" fill="white" transform="translate(29 19)"/>
        </clipPath>
    </defs>
</svg>
